<svg width="146" height="40" viewBox="0 0 146 40" fill="none" xmlns="http://www.w3.org/2000/svg">
<path fill-rule="evenodd" clip-rule="evenodd" d="M16.0747 37.5582L13.3144 37.8622L6.27155 17.2713V38.7742C4.30281 38.9769 2.47615 39.2404 0.588592 39.5241L0 39.5849V0.267578H5.84533L13.8421 22.5609V0.267578H20.0527V37.0516C18.7335 37.2745 17.4142 37.4164 16.0747 37.5582ZM32.1696 14.6569L36.4521 14.6164L40.4099 14.5556V20.6964C37.6699 20.6964 34.4834 20.6964 32.1696 20.818V29.938L35.2547 29.7353C37.8323 29.5529 40.4302 29.3705 43.0687 29.2894V35.2073L26.0198 36.5449V0.267578H43.0687V6.40838H32.1696V14.6569ZM59.5696 6.40838H65.9427V0.267578H47.0265V6.40838H53.3995V34.7412C55.4089 34.6804 57.4791 34.6804 59.5696 34.6804V6.40838ZM75.9487 14.2516H84.392V20.3924H75.9487V34.3156H69.9207V0.267578H87.1117V6.40838H75.9487V14.2516ZM104.769 29.3097C102.253 29.1678 99.6751 29.0057 97.1178 28.9449V0.267578H90.9274V34.7412C96.5495 34.8628 102.05 35.2073 107.57 35.5518V29.4718L104.769 29.3097ZM112.786 35.9774H113.091C114.958 36.099 116.927 36.2206 118.814 36.4436V0.267578H112.786V35.9774ZM137.994 18.9534L145.788 0.267578H139.07L134.747 10.6036L130.708 0.267578H124.092L131.256 18.7305L123.341 36.7476L126.06 37.0516C127.359 37.1934 128.638 37.315 129.937 37.5582L134.443 27.1006L138.867 38.4702L140.592 38.754C142.338 39.058 144.063 39.362 145.788 39.5849L138.015 18.9737L137.994 18.9534Z" fill="#575757"/>
</svg>
