<svg width="207" height="26" viewBox="0 0 207 26" fill="none" xmlns="http://www.w3.org/2000/svg">
<path d="M193.835 10.9421L192.873 8.84729C194.879 7.6979 197.168 7.11042 199.492 7.14883C204.013 7.14883 206.206 9.54555 206.206 14.0182V24.8317H203.974L203.744 22.8879C201.99 24.3233 199.793 25.1348 197.51 25.1903C194.047 25.1903 191.873 23.1521 191.873 20.1515C191.873 16.8489 194.066 14.773 198.51 14.773H203.628V14.2069C203.628 11.1119 202.224 9.45119 199.068 9.45119C197.221 9.48893 195.413 10.0173 193.854 10.9609L193.835 10.9421ZM203.647 16.8867H198.626C195.855 16.8867 194.47 18.0001 194.47 19.8684C194.47 21.7556 195.951 22.8879 198.125 22.8879C200.158 22.8329 202.106 22.078 203.628 20.7554V16.8867H203.647ZM143.888 24.8128L140.617 6.24299L133.768 24.8317H131.806L124.995 6.20524L121.705 24.8317H118.953L123.263 1.46842H125.918L132.806 20.9064L139.655 1.46842H142.33L146.62 24.8317H143.888V24.8128ZM163.224 23.605C161.3 24.6619 159.107 25.1903 156.894 25.1714C151.507 25.1714 148.083 21.4914 148.083 16.1507C148.083 11.1119 151.507 7.14883 156.279 7.14883C161.05 7.14883 163.878 10.7156 163.878 15.1882C163.878 15.811 163.879 16.4526 163.821 17.0754H150.718C151.122 20.6233 153.489 22.9257 157.106 22.9257C158.926 22.898 160.715 22.4657 162.339 21.6612L163.224 23.605ZM161.262 14.924V14.773C161.262 11.7158 159.396 9.3757 156.317 9.3757C153.239 9.3757 151.18 11.7536 150.738 14.924H161.262ZM182.387 0.732422V24.794H180.175L179.925 23.0389C178.283 24.4265 176.185 25.1841 174.018 25.1714C169.169 25.1714 166.476 21.0951 166.476 16.1884C166.476 11.1497 169.554 7.12996 174.46 7.12996C176.404 7.12996 178.308 7.75273 179.848 8.86617V0.732422H182.387ZM174.537 22.8879C176.477 22.8292 178.334 22.1084 179.79 20.8498V11.3006C178.443 10.1306 176.712 9.45119 174.884 9.41345C171.247 9.41345 169.073 12.2631 169.073 16.2073C169.073 19.9062 170.978 22.9068 174.537 22.9068V22.8879ZM188.813 7.22432V24.8317H186.216V7.20545H188.813V7.22432ZM17.4053 10.1306C17.136 11.6592 16.7127 13.3577 16.4818 14.3579L13.8459 24.8128H7.68918L0.666626 1.46842H6.34239L9.61317 13.1501L10.6714 17.4151L14.6733 1.48729H20.0989L24.1585 17.4528L25.2359 13.1689L28.449 1.48729H34.1248L27.1984 24.8506H21.0224L18.3288 14.3956C18.1172 13.3765 17.7132 11.6781 17.4053 10.1683V10.1306ZM66.8518 7.18658H71.3539L71.7002 9.01714C73.2472 7.5515 75.3216 6.74439 77.4722 6.7714C78.3048 6.72809 79.1364 6.87224 79.9034 7.1928C80.6705 7.51337 81.3525 8.00184 81.8974 8.62083C82.9556 9.8475 83.4366 11.6026 83.4366 13.8294V24.8128H78.2995V14.1314C78.3572 13.3199 78.1071 12.5084 77.6069 11.8668C77.3198 11.5857 76.9718 11.3718 76.5886 11.2411C76.2055 11.1103 75.7973 11.0662 75.3943 11.1119C74.1434 11.153 72.9461 11.6201 72.0081 12.4329V24.8128H66.871V7.20545L66.8518 7.18658ZM100.983 20.0383L102.561 23.4163C100.411 24.6723 97.9436 25.3069 95.4423 25.2469C90.0551 25.2469 86.1879 21.3782 86.1879 15.9997C86.1879 10.8477 89.7473 6.80914 94.9997 6.80914C100.06 6.80914 103.196 10.2627 103.196 15.4524C103.196 16.1318 103.196 17.0377 103.138 17.5283H91.2672C91.729 19.9817 93.4221 21.1328 96.2696 21.1328C97.905 21.1328 99.5211 20.7554 100.983 20.0383ZM91.248 14.2635H98.4437V14.0937C98.4437 13.1878 98.1358 12.3008 97.5202 11.6026C97.2083 11.2693 96.8269 11.0058 96.402 10.8299C95.977 10.6541 95.5185 10.57 95.0575 10.5835C94.5889 10.5773 94.1239 10.6644 93.6907 10.8395C93.2575 11.0147 92.865 11.2743 92.537 11.6026C91.8444 12.3574 91.3826 13.301 91.248 14.3012V14.2635ZM63.9273 7.1677C62.771 7.07394 61.6076 7.22791 60.518 7.61894C59.4283 8.00998 58.4383 8.62873 57.6167 9.43232L57.2703 7.18658H52.7682V24.8128H57.9245V12.7726C59.7199 11.6953 61.8646 11.3245 63.9273 11.7347V7.18658V7.1677ZM117.068 11.7347H117.126L117.972 7.41304L117.703 7.33755C117.274 7.23555 116.835 7.17861 116.394 7.1677C114.277 7.18132 112.25 8.01572 110.757 9.48893L110.411 7.24319H105.909V24.8317H111.065V12.7726C112.354 12.0178 113.816 11.6214 115.336 11.6026C115.913 11.6026 116.51 11.6403 117.087 11.7347H117.068ZM187.467 0.732422C187.138 0.732723 186.817 0.827702 186.544 1.00554C186.27 1.18338 186.056 1.43623 185.927 1.73263C185.805 2.02481 185.774 2.34619 185.84 2.65554C185.905 2.96489 186.063 3.24809 186.293 3.46883C186.527 3.68742 186.82 3.83507 187.137 3.89399C187.454 3.95291 187.782 3.92058 188.081 3.80091C188.38 3.68123 188.637 3.47932 188.822 3.21949C189.006 2.95967 189.11 2.65303 189.121 2.33652C189.121 1.92134 188.948 1.50617 188.64 1.20422C188.327 0.902028 187.906 0.732584 187.467 0.732422V0.732422ZM41.9362 6.80914C39.5312 6.80914 37.1262 7.29981 34.9328 8.2434L35.9141 12.131C37.5361 11.4125 39.2909 11.0271 41.0704 10.9987C43.3214 10.9987 44.4951 11.8857 44.4951 14.1503V14.3201H40.9934C35.9141 14.3201 33.5861 16.2828 33.5861 19.8496C33.5861 23.0578 35.991 25.2658 39.5889 25.2658C41.6283 25.2658 43.5908 24.5109 45.0915 23.1521L45.3993 24.8317H49.6129V13.8483C49.6129 9.33796 46.8423 6.80914 41.9362 6.80914ZM44.4951 20.3968C43.5331 21.0573 42.3787 21.4537 41.2243 21.5291C39.6659 21.5291 38.7423 20.7177 38.7423 19.5099C38.7423 18.3021 39.6466 17.5094 41.3397 17.5094H44.4951V20.378V20.3968Z" fill="#575757"/>
</svg>
