<svg width="164" height="42" viewBox="0 0 164 42" fill="none" xmlns="http://www.w3.org/2000/svg">
<path d="M29.3718 0.199219L46.6198 41.2905V0.199219H29.3718ZM0.0666504 0.199219V41.2905L17.3146 0.199219H0.0666504ZM15.8362 32.9049H23.7046L27.1542 41.2741H34.2834L23.2282 15.2146L15.8362 32.9049ZM75.5143 26.7182L73.6088 32.3961C73.5431 32.6095 73.4446 32.6751 73.231 32.6751H69.7814C69.5843 32.6751 69.5022 32.5602 69.535 32.3305L76.6642 12.1131C76.7956 11.7849 76.8942 11.4238 76.9763 10.2587C76.9763 10.1274 77.042 10.029 77.1734 10.029H81.97C82.1343 10.029 82.1835 10.0618 82.2164 10.2259L90.1833 32.3797C90.2162 32.5767 90.1833 32.6915 89.9862 32.6915H86.1095C85.9453 32.6915 85.8303 32.6259 85.781 32.4782L83.7605 26.7346H75.5143V26.7182ZM82.6599 22.9438C81.9371 20.6628 80.3109 15.8874 79.621 13.4751H79.5881C79.0296 15.789 77.6334 19.8259 76.6149 22.9438H82.6599ZM91.4317 24.3223C91.4317 19.3336 95.1606 15.3295 101.238 15.3295C101.731 15.3295 102.126 15.3623 102.717 15.4279V8.35512C102.717 8.19101 102.783 8.10896 102.93 8.10896H106.692C106.856 8.10896 106.856 8.19101 106.856 8.3223V29.1633C106.856 29.8361 106.922 30.7223 107.004 31.3623C107.004 31.5264 106.955 31.6085 106.791 31.6741C104.54 32.6423 102.339 33.0197 100.253 33.0197C95.2592 33.0197 91.4317 30.1315 91.4317 24.3223ZM102.717 19.0546C102.273 18.8905 101.731 18.8085 101.107 18.8085C98.0188 18.8085 95.7191 20.7777 95.7191 24.1254C95.7191 27.8833 97.9696 29.4259 100.729 29.4259C101.403 29.4259 102.093 29.3602 102.733 29.1469V19.071H102.717V19.0546ZM126.782 24.0926C126.782 29.4259 123.365 33.0197 118.503 33.0197C112.721 33.0197 110.175 28.5726 110.175 24.191C110.175 19.3008 113.394 15.3295 118.552 15.3295C123.891 15.3295 126.766 19.3664 126.766 24.0926H126.782ZM114.38 24.1254C114.38 27.2926 115.94 29.4915 118.569 29.4915C120.704 29.4915 122.527 27.7356 122.527 24.191C122.527 21.3192 121.295 18.8085 118.355 18.8085C116.055 18.8085 114.38 20.8433 114.38 24.1254ZM133.895 8.10896C134.141 8.10896 134.207 8.14178 134.207 8.38794L134.24 15.8054C135.176 15.4936 136.244 15.3131 137.394 15.3131C138.478 15.2639 139.561 15.4413 140.573 15.834C141.585 16.2267 142.503 16.8261 143.27 17.5937C144.037 18.3613 144.635 19.2803 145.026 20.292C145.417 21.3036 145.593 22.3857 145.541 23.469C145.541 29.869 140.564 33.0197 135.439 33.0197C133.648 33.0197 131.923 32.7736 130.264 32.2649C130.133 32.232 130.034 32.0515 130.034 31.9367V8.37153C130.034 8.20742 130.133 8.12537 130.264 8.12537H133.895V8.10896ZM136.671 18.8741C135.455 18.8741 134.815 19.0382 134.24 19.2515V29.3438C134.732 29.4751 135.225 29.5079 135.817 29.5079C138.658 29.5079 141.27 27.7192 141.27 23.8956C141.287 20.6136 139.398 18.8741 136.671 18.8741ZM152.21 25.1428C152.309 27.5551 153.886 29.4751 157.418 29.4751C158.962 29.4751 160.374 29.1961 161.689 28.6546C161.787 28.589 161.902 28.6218 161.902 28.7859V31.6577C161.902 31.871 161.836 31.9695 161.689 32.0351C160.063 32.7589 158.292 33.0959 156.514 33.0197C150.223 33.0197 147.989 28.6218 147.989 24.3715C147.989 19.5797 150.896 15.3459 156.104 15.3459C161.196 15.3459 163.183 19.35 163.183 22.632C163.183 23.5838 163.151 24.3715 163.052 24.7654C163.019 24.9131 162.953 24.9787 162.773 25.0115C162.28 25.11 160.917 25.1428 159.208 25.1428H152.21ZM157.336 22.1561C158.65 22.1561 159.093 22.1561 159.241 22.1233V21.8608C159.241 20.8597 158.551 18.6443 155.923 18.6443C153.525 18.6443 152.473 20.4495 152.178 22.1561H157.336Z" fill="#575757"/>
</svg>
