<svg width="49" height="48" viewBox="0 0 49 48" fill="none" xmlns="http://www.w3.org/2000/svg">
<path fill-rule="evenodd" clip-rule="evenodd" d="M0.866759 24.0001C0.859727 20.8464 1.47571 17.7224 2.67933 14.8074C3.88295 11.8924 5.65051 9.24385 7.88052 7.01384C10.1105 4.78384 12.7591 3.01628 15.674 1.81266C18.589 0.609033 21.7131 -0.00694589 24.8668 8.57989e-05C28.0209 -0.00835894 31.1455 0.606655 34.0611 1.80978C36.9768 3.0129 39.6259 4.7804 41.8562 7.01069C44.0864 9.24098 45.8539 11.8901 47.0571 14.8057C48.2602 17.7213 48.8752 20.846 48.8668 24.0001C48.8752 27.1542 48.2602 30.2788 47.0571 33.1945C45.8539 36.1101 44.0864 38.7592 41.8562 40.9895C39.6259 43.2198 36.9768 44.9873 34.0611 46.1904C31.1455 47.3935 28.0209 48.0085 24.8668 48.0001C21.7131 48.0071 18.589 47.3911 15.674 46.1875C12.7591 44.9839 10.1105 43.2163 7.88052 40.9863C5.65051 38.7563 3.88295 36.1078 2.67933 33.1928C1.47571 30.2778 0.859727 27.1538 0.866759 24.0001ZM9.17609 16.5868C8.19105 16.5867 7.21574 16.7816 6.30635 17.1602C5.39696 17.5387 4.57146 18.0935 3.87742 18.7925C3.18337 19.4915 2.63449 20.3209 2.26241 21.233C1.89033 22.1451 1.70239 23.1217 1.70943 24.1068C1.7038 25.0909 1.89278 26.0664 2.2655 26.9772C2.63822 27.8881 3.18731 28.7162 3.88122 29.4141C4.57512 30.112 5.40014 30.6658 6.30883 31.0437C7.21752 31.4216 8.19195 31.6161 9.17609 31.6161C11.7254 31.6161 12.7174 29.8028 12.7174 29.8028V31.4561H16.6534V24.0961C16.6591 23.1111 16.4697 22.1347 16.0963 21.2231C15.723 20.3116 15.1729 19.483 14.4779 18.785C13.7828 18.087 12.9566 17.5334 12.0466 17.1561C11.1367 16.7788 10.1611 16.5853 9.17609 16.5868ZM9.17609 20.5228C11.1494 20.5228 12.7388 22.1228 12.7388 24.1068C12.7388 25.0516 12.3634 25.9578 11.6953 26.6259C11.0271 27.2941 10.121 27.6694 9.17609 27.6694C8.23121 27.6694 7.32504 27.2941 6.65691 26.6259C5.98878 25.9578 5.61342 25.0516 5.61342 24.1068C5.61061 23.6371 5.70069 23.1715 5.87847 22.7368C6.05625 22.3021 6.31823 21.9069 6.64933 21.5738C6.98044 21.2407 7.37413 20.9763 7.80777 20.796C8.24141 20.6156 8.70644 20.5227 9.17609 20.5228ZM17.6028 24.1068V11.4134H21.5388V18.4001C21.5388 18.4001 22.5308 16.5868 25.0801 16.5868C26.0651 16.5867 27.0404 16.7816 27.9498 17.1602C28.8592 17.5387 29.6847 18.0935 30.3788 18.7925C31.0728 19.4915 31.6217 20.3209 31.9938 21.233C32.3659 22.1451 32.5538 23.1217 32.5468 24.1068C32.5468 25.0873 32.3536 26.0582 31.9784 26.9641C31.6032 27.87 31.0532 28.6931 30.3598 29.3865C29.6665 30.0798 28.8434 30.6298 27.9375 31.0051C27.0316 31.3803 26.0606 31.5734 25.0801 31.5734C24.0996 31.5734 23.1286 31.3803 22.2227 31.0051C21.3168 30.6298 20.4937 30.0798 19.8004 29.3865C19.107 28.6931 18.557 27.87 18.1818 26.9641C17.8066 26.0582 17.6134 25.0873 17.6134 24.1068H17.6028ZM28.6428 24.1068C28.6428 23.1619 28.2674 22.2557 27.5993 21.5876C26.9311 20.9194 26.025 20.5441 25.0801 20.5441C24.1352 20.5441 23.229 20.9194 22.5609 21.5876C21.8928 22.2557 21.5174 23.1619 21.5174 24.1068C21.5174 25.0516 21.8928 25.9578 22.5609 26.6259C23.229 27.2941 24.1352 27.6694 25.0801 27.6694C26.025 27.6694 26.9311 27.2941 27.5993 26.6259C28.2674 25.9578 28.6428 25.0516 28.6428 24.1068ZM33.1974 24.1068C33.1703 22.2507 33.8355 20.4512 35.0633 19.059C36.291 17.6669 37.9933 16.7819 39.8382 16.5768C41.683 16.3717 43.5381 16.8611 45.0417 17.9495C46.5452 19.038 47.5895 20.6475 47.9708 22.4641H43.8428C43.4797 21.7467 42.8847 21.1732 42.1545 20.8368C41.4242 20.5004 40.6016 20.421 39.8205 20.6113C39.0393 20.8017 38.3455 21.2506 37.8519 21.8852C37.3582 22.5198 37.0937 23.3028 37.1014 24.1068C37.1008 24.9041 37.3676 25.6786 37.8592 26.3063C38.3508 26.934 39.0387 27.3787 39.8129 27.5692C40.5872 27.7597 41.4029 27.6849 42.1296 27.357C42.8564 27.029 43.4521 26.4667 43.8214 25.7601H47.9708C47.6018 27.5906 46.5604 29.2163 45.0518 30.3168C43.5433 31.4173 41.6772 31.9127 39.8215 31.7051C37.9657 31.4976 36.2551 30.6023 35.027 29.1957C33.7988 27.7892 33.1422 25.9735 33.1868 24.1068H33.1974Z" fill="#575757"/>
</svg>
