<svg width="86" height="38" viewBox="0 0 86 38" fill="none" xmlns="http://www.w3.org/2000/svg">
<g clip-path="url(#clip0_344_2853)">
<path d="M85.2678 36.8818H73.5384C73.4297 36.8818 73.2281 36.4176 73.166 36.3248L68.3253 27.6597C66.6186 30.7234 64.943 33.849 63.2208 36.9127H51.7396C52.174 36.1081 52.6394 35.319 53.1049 34.5299C56.301 29.0523 59.4661 23.4974 62.6777 18.0044C59.2644 12.1091 55.8045 6.24477 52.3602 0.364931C52.3602 0.364931 52.3291 0.333984 52.3602 0.333984H64.1517C65.6101 2.94896 67.022 5.59489 68.4494 8.22534C69.9388 5.61036 71.3817 2.96444 72.8402 0.333984H84.2593L84.2128 0.473244C80.877 6.26024 77.4637 12.0782 74.1279 17.8652C77.8516 24.2092 81.6062 30.5532 85.2833 36.8973L85.2678 36.8818Z" fill="#575757"/>
<path fill-rule="evenodd" clip-rule="evenodd" d="M56.9836 18.9491C56.9618 14.9978 55.6195 11.1665 53.1692 8.06144C50.7188 4.95634 47.3003 2.75468 43.4544 1.80475C42.1591 1.49657 40.8294 1.35616 39.4981 1.38697H39.467C37.0124 1.38856 34.5913 1.95514 32.3921 3.04261C30.0179 4.18235 27.9373 5.84976 26.3102 7.91669C23.7153 11.171 22.3383 15.2252 22.4159 19.3824C22.4779 22.2294 23.083 24.5659 23.9829 26.5929C25.3483 29.6102 27.3342 32.0085 29.9097 33.8034C32.8212 35.8922 36.3309 36.9884 39.917 36.929C43.4614 36.9157 46.9065 35.7595 49.7381 33.6332C51.4325 32.4205 52.8804 30.8978 54.0047 29.146C56.0133 26.1335 57.0525 22.5816 56.9836 18.9646V18.9491ZM42.8028 25.8038C42.8028 26.268 42.8183 26.7322 42.7252 27.088C42.4149 28.3259 41.4219 29.2543 40.0566 29.409C39.2902 29.4796 38.5261 29.2516 37.9245 28.7728C37.3228 28.294 36.9304 27.6015 36.8295 26.8405C36.7984 26.6393 36.8139 26.4227 36.8139 26.2061V12.636V12.5587C36.8139 12.0171 36.8139 11.4755 36.907 11.0578C37.1243 10.1913 37.6207 9.54138 38.3034 9.10813C38.6447 8.8915 39.0636 8.7213 39.5446 8.69035C40.5686 8.61298 41.3754 9.10813 41.9184 9.66516C42.2331 9.98554 42.4749 10.3697 42.6275 10.7915C42.7801 11.2134 42.8399 11.663 42.8028 12.1099V25.8038Z" fill="#575757"/>
<path d="M23.4555 10.3297H10.9503C10.9038 11.877 10.9503 13.5481 10.9348 15.0955C14.3171 15.1264 17.746 15.0955 21.1438 15.0955V25.0912H10.8572L10.8727 36.8973V36.9282H0.446558H0.415527V0.349458V0.333984H22.7573L23.4555 10.3297Z" fill="#575757"/>
</g>
<defs>
<clipPath id="clip0_344_2853">
<rect width="85.3333" height="37.1358" fill="white" transform="translate(0.399902 0.333984)"/>
</clipPath>
</defs>
</svg>
