<svg width="125" height="36" viewBox="0 0 125 36" fill="none" xmlns="http://www.w3.org/2000/svg">
<path fill-rule="evenodd" clip-rule="evenodd" d="M81.4563 0.214844H43.6479V35.5044H81.4563V0.214844ZM66.8843 17.0452C66.8843 17.0452 70.1844 15.6608 70.1572 11.969C70.1572 11.969 70.6597 5.92903 62.5657 5.18252H53.5889V30.5502H63.883C63.883 30.5502 72.4795 30.5774 72.4795 23.3838C72.4795 23.3838 72.6832 18.4975 66.8843 17.0588V17.0452ZM62.9595 26.6277C62.9595 26.6277 67.7806 26.8584 67.7806 23.0173C67.7806 23.0173 67.9164 19.6648 62.9595 19.6919H58.1384V26.6277H62.9595ZM61.8188 9.13223H58.152V15.6879H61.2755C61.2755 15.6879 65.4855 15.6336 65.4855 12.1454C65.4855 12.1454 65.6213 9.33582 61.8188 9.13223ZM37.8083 0.214844H0V35.5044H37.8083V0.214844ZM23.2228 17.0452C23.2228 17.0452 26.5229 15.6608 26.4957 11.969C26.4957 11.969 26.9982 5.92903 18.9042 5.18252H9.94098V30.5502H20.235C20.235 30.5502 28.8315 30.5774 28.8315 23.3838C28.8315 23.3838 29.0353 18.4975 23.2364 17.0588L23.2228 17.0452ZM19.298 26.6277C19.298 26.6277 24.1191 26.8584 24.1191 23.0173C24.1191 23.0173 24.2549 19.6648 19.298 19.6919H14.4769V26.6277H19.298ZM18.1572 9.13223H14.4905V15.6879H17.614C17.614 15.6879 21.824 15.6336 21.824 12.1454C21.824 12.1454 21.9598 9.33582 18.1572 9.13223ZM124.982 35.5044H87.1872V0.214844H124.982V35.5044ZM117.282 11.6839V7.00129C113.085 5.26396 110.193 4.9925 110.193 4.9925C105.344 4.53102 102.656 5.54899 102.656 5.54899C92.5652 8.61646 92.8775 17.8596 92.8775 17.8596C92.9009 20.366 93.6562 22.811 95.0507 24.8942C96.4451 26.9775 98.418 28.6084 100.727 29.5866C109.731 33.1155 117.499 28.5279 117.499 28.5279V23.6688C111.714 27.3335 107.449 26.8313 107.449 26.8313C97.264 26.3427 97.6036 17.8596 97.6036 17.8596C98.0381 8.63003 107.558 8.82006 107.558 8.82006C112.664 8.87435 117.282 11.6839 117.282 11.6839Z" fill="#575757"/>
</svg>
