<svg width="168" height="35" viewBox="0 0 168 35" fill="none" xmlns="http://www.w3.org/2000/svg">
<path d="M27.09 2.91096C27.09 3.63725 27.3779 4.33379 27.8904 4.84735C28.403 5.36091 29.0981 5.64943 29.8229 5.64943C30.5478 5.64943 31.2429 5.36091 31.7554 4.84735C32.268 4.33379 32.5559 3.63725 32.5559 2.91096C32.5559 1.4288 31.3162 0.22896 29.7807 0.22896C28.3156 0.22896 27.09 1.4288 27.09 2.91096ZM32.7249 8.13381H26.8927V26.9643H32.739V8.11969L32.7249 8.13381ZM155.286 34.2057L167.021 8.11969H160.851L156.624 18.2125L151.975 8.11969H145.453L153.483 24.4234L149.144 34.2057H155.286ZM144.636 8.11969C144.135 7.98983 143.618 7.92811 143.1 7.93619C141.565 7.93619 139.156 8.54317 138.156 10.6605V8.11969H132.521V26.9643H138.353V18.7348C138.353 14.98 140.466 13.6249 142.804 13.6249C143.382 13.6249 144.002 13.6531 144.65 13.8084V8.11969H144.636ZM117.038 15.2905C117.151 13.8789 118.391 12.1004 120.842 12.1004C123.603 12.1004 124.603 13.8507 124.674 15.2905H117.038ZM125.097 20.1746C124.561 21.6568 123.378 22.6449 121.265 22.6449C119.011 22.6449 117.038 21.1203 116.926 19.003H130.21C130.238 18.8901 130.323 18.0149 130.323 17.2244C130.323 11.1546 126.66 7.55506 120.758 7.55506C119.475 7.5598 118.207 7.82316 117.029 8.32944C115.85 8.83572 114.786 9.57456 113.898 10.5019C113.011 11.4293 112.319 12.5262 111.864 13.7272C111.409 14.9282 111.199 16.2088 111.249 17.4926C111.249 23.8165 115.926 27.5289 121.194 27.5289C126.026 27.5289 129.055 24.8046 129.971 21.5438L125.097 20.1746ZM111.981 8.11969H105.839L101.768 19.8358L97.3583 8.11969H91.0189L98.8515 26.9643H104.726L111.981 8.11969ZM81.848 22.2355C79.6644 22.2355 77.5513 20.6828 77.5513 17.5208C77.5513 14.3448 79.6644 12.8626 81.848 12.8626C84.0738 12.8626 86.1587 14.3448 86.1587 17.5208C86.1587 20.711 84.0738 22.2214 81.848 22.2214V22.2355ZM81.848 7.55506C76.1707 7.55506 71.7191 11.6769 71.7191 17.5208C71.7191 23.3648 76.1707 27.543 81.8621 27.543C87.5675 27.543 91.9909 23.3648 91.9909 17.5208C91.9909 11.6769 87.5675 7.55506 81.848 7.55506ZM61.5902 12.8626C63.8442 12.8626 65.0134 14.2318 65.4361 15.6575L70.6484 14.1048C69.8032 10.7311 66.7321 7.55506 61.4775 7.55506C60.1521 7.51645 58.8327 7.74839 57.5996 8.23676C56.3665 8.72514 55.2454 9.45975 54.3045 10.3959C53.3636 11.3321 52.6226 12.4502 52.1266 13.6824C51.6305 14.9145 51.3898 16.2349 51.419 17.5632C51.419 23.4071 55.9834 27.5289 61.6747 27.5289C66.7744 27.5289 69.9159 24.2823 70.7752 20.9651L65.6051 19.4123C65.1825 20.8239 63.9146 22.2355 61.6606 22.2355C59.2376 22.2355 57.1949 20.5557 57.1949 17.5632C57.1949 14.5283 59.1671 12.8626 61.5761 12.8626H61.5902ZM34.4295 21.6144C34.5704 23.7035 36.5004 27.543 42.4876 27.543C47.5872 27.543 50.0948 24.3811 50.0948 21.1627C50.0948 18.396 48.1648 16.0387 44.2062 15.2482L41.6705 14.7541C40.8252 14.613 40.1772 14.1471 40.1772 13.3425C40.1772 12.3686 41.1352 11.7192 42.2622 11.7192C44.0231 11.7192 44.8261 12.7779 44.981 14.0342L49.813 13.159C49.6299 10.9711 47.6999 7.55506 42.1776 7.55506C37.9232 7.55506 34.8522 10.35 34.8522 13.8084C34.8522 16.4621 36.4581 18.7489 40.5294 19.61L42.713 20.104C44.1358 20.4004 44.6007 20.9792 44.6007 21.6567C44.6007 22.4896 43.8681 23.2801 42.3749 23.2801C40.3744 23.2801 39.4588 22.0379 39.3742 20.7392L34.4295 21.6144ZM8.50858 14.6412L8.53676 14.7824C8.5555 14.808 8.56979 14.8366 8.57902 14.867L8.60719 14.9235C8.63537 14.9235 8.63537 14.8953 8.59311 14.8247C8.56999 14.7809 8.55563 14.7329 8.55084 14.6835C8.55084 14.5565 8.52267 14.5424 8.50858 14.6412ZM8.26909 11.1122H8.21274C8.21274 11.1405 8.21274 11.1405 8.25501 11.1405L8.32544 11.1264C8.32544 11.1122 8.31136 11.0981 8.26909 11.0981V11.1122ZM8.29727 9.67243C8.35362 9.67243 8.33953 9.63008 8.29727 9.58774C8.22683 9.55951 8.22683 9.55951 8.22683 9.58774C8.22683 9.61597 8.26909 9.68655 8.29727 9.68655V9.67243ZM8.48041 9.61597L8.46632 9.54539C8.45223 9.51716 8.43814 9.51716 8.43814 9.53127H8.40997C8.36771 9.53127 8.38179 9.55951 8.42406 9.60185C8.45223 9.61597 8.46632 9.63008 8.48041 9.61597ZM9.8328 10.8864V10.8299L9.80463 10.7735C9.80463 10.7452 9.80463 10.7452 9.77645 10.7452C9.7201 10.7452 9.67784 10.8158 9.69193 10.8864C9.70602 10.9287 9.7201 10.9429 9.79054 10.957H9.8328V10.9005V10.8864ZM8.66354 14.1895C8.69172 14.1754 8.69172 14.1613 8.69172 14.1471C8.69172 14.1471 8.66354 14.1471 8.64946 14.1754L8.63537 14.2177L8.66354 14.1895ZM9.56514 11.2675V11.2252C9.53697 11.2252 9.53697 11.2252 9.52288 11.1969C9.52288 11.1687 9.52288 11.1546 9.55105 11.1687H9.59332L9.56514 11.0981C9.53697 11.0558 9.52288 11.0558 9.50879 11.084C9.4947 11.0981 9.4947 11.0981 9.4947 11.0558L9.48062 11.0134L9.39609 10.9429L9.35383 10.8582C9.35383 10.8582 9.382 10.8582 9.382 10.8299L9.41018 10.8158C9.43835 10.8158 9.45244 10.7876 9.43835 10.7311C9.43835 10.6747 9.33974 10.6747 9.26931 10.7311C9.18478 10.8017 9.17069 10.844 9.21295 10.9146L9.24113 10.9711L9.31157 11.084L9.382 11.1687V11.2393V11.3522C9.41018 11.4228 9.56514 11.4934 9.6074 11.451C9.63558 11.451 9.6074 11.3099 9.57923 11.2816V11.2534L9.56514 11.2675ZM8.56493 11.2675V11.324L8.57902 11.2957L8.56493 11.2816V11.2675ZM8.63537 9.84182L8.59311 9.79947C8.57902 9.77124 8.56493 9.77124 8.57902 9.79947C8.57902 9.84182 8.63537 9.88417 8.63537 9.84182ZM9.12843 10.1241L9.14252 10.0818L9.12843 10.11C9.11434 10.1524 9.12843 10.2229 9.1566 10.2088L9.14252 10.1665V10.1241H9.12843ZM9.18478 11.3663L9.19887 11.3946L9.22704 11.4228V11.3946C9.215 11.3824 9.20062 11.3728 9.18478 11.3663ZM9.35383 9.87005L9.36792 9.84182V9.81359L9.35383 9.82771V9.85594V9.87005ZM9.07208 11.3099C9.05799 11.3099 9.04391 11.3099 9.07208 11.324V11.3099ZM8.74807 10.8582C8.70581 10.844 8.67763 10.8158 8.67763 10.8017H8.70581C8.70581 10.8017 8.73398 10.7452 8.71989 10.7311C8.71989 10.7311 8.71989 10.7029 8.74807 10.6888L8.77624 10.6605H8.74807L8.67763 10.6747C8.65524 10.6905 8.63169 10.7047 8.60719 10.717C8.55084 10.7452 8.55084 10.7452 8.57902 10.7735L8.63537 10.7876L8.66354 10.8017L8.62128 10.8299L8.56493 10.844C8.55084 10.8582 8.53676 10.844 8.50858 10.8158C8.48041 10.7735 8.48041 10.7735 8.50858 10.7593C8.50858 10.7452 8.50858 10.7311 8.48041 10.7311L8.42406 10.717C8.42406 10.6464 8.32544 10.717 8.31136 10.8017L8.28318 10.8299C8.28318 10.8017 8.22683 10.9993 8.24092 11.0417C8.25501 11.0981 8.39588 11.1264 8.48041 11.0699C8.53676 11.0275 8.59311 11.0417 8.66354 11.0699C8.73398 11.1264 8.90303 11.1405 8.94529 11.1122C9.01573 11.0134 8.81851 10.9146 8.74807 10.8582ZM11.2556 9.376V9.34777H11.2275C11.2275 9.33365 11.2275 9.34777 11.2275 9.34777L11.2556 9.376ZM11.1148 10.5476V10.5758C11.1148 10.59 11.1289 10.6041 11.1289 10.5758L11.1148 10.5476ZM10.8753 10.5617V10.59L10.9035 10.6041V10.59L10.8753 10.5617ZM13.3124 14.5424V14.5283V14.5424ZM13.2842 14.5988V14.613C13.2842 14.6412 13.2842 14.6412 13.2842 14.613V14.5988ZM13.242 14.2601H13.2279C13.2279 14.246 13.2279 14.2601 13.2279 14.2601H13.242ZM13.1856 14.1048V14.0907V14.1048ZM13.1434 14.0624C13.1434 14.0907 13.1152 14.1048 13.1011 14.1048L13.087 14.1189V14.133H13.1152L13.1574 14.0483C13.1574 14.0201 13.1574 14.0342 13.1434 14.0624ZM13.0729 14.9094C13.0729 14.8388 13.0588 14.8388 13.0588 14.9094V14.8812L13.0729 14.9094ZM13.0447 14.373H13.0588V14.3306V14.2883V14.1613V14.133V14.0907L13.0025 13.9919C12.9743 13.9919 12.9602 13.9636 12.9461 13.9495L12.9039 14.006C12.8757 14.0624 12.8616 14.0624 12.8616 14.0342C12.8587 14.0108 12.8587 13.9871 12.8616 13.9636V13.9213H12.8193C12.8193 13.9495 12.8053 13.9495 12.7912 13.9636H12.8053L12.8193 13.9919L12.8334 14.0201C12.8475 14.0201 12.8334 14.0201 12.8334 14.0201C12.8053 14.0342 12.8053 14.0342 12.8193 14.0483V14.1048H12.8616L12.8898 14.133V14.2742L12.8757 14.3024C12.8616 14.3165 12.8757 14.3165 12.8757 14.3024L12.9039 14.3165C12.9039 14.3589 12.9602 14.3448 12.9602 14.3024L12.9884 14.2601C13.0025 14.2318 13.0166 14.246 13.0166 14.3024L13.0447 14.3589V14.373ZM12.8193 14.2601V14.1895V14.2601C12.8053 14.2883 12.8053 14.2883 12.8193 14.2601ZM12.9039 14.5424V14.4718L12.8475 14.6835L12.8053 14.8106C12.7771 14.8529 12.763 14.867 12.763 14.8388L12.7489 14.7965C12.7207 14.74 12.7207 14.74 12.7489 14.6835C12.7572 14.6503 12.7666 14.6174 12.7771 14.5847L12.763 14.5706L12.7207 14.5565C12.7066 14.5283 12.6926 14.5283 12.7066 14.5565C12.7066 14.5565 12.7066 14.5988 12.6785 14.5988C12.6671 14.6037 12.6572 14.6115 12.6498 14.6214C12.6424 14.6313 12.6377 14.643 12.6362 14.6553L12.6221 14.6977C12.6102 14.7099 12.6007 14.7243 12.5939 14.74C12.5939 14.7541 12.5939 14.7682 12.5658 14.7824V14.74C12.5517 14.7259 12.5235 14.74 12.5094 14.7682L12.4531 14.867L12.439 14.8953L12.4108 14.9235C12.4108 14.8953 12.3826 14.9376 12.3685 14.98L12.2981 15.1211L12.2136 15.1776C12.1711 15.21 12.1332 15.248 12.1009 15.2905L12.0868 15.3046L12.0727 15.3188C12.0586 15.3188 12.0023 15.4599 12.0023 15.5023L11.9882 15.5587L11.9459 15.6575C11.9276 15.7681 11.8993 15.8768 11.8614 15.9822C11.8473 15.9963 11.8332 16.0104 11.8614 16.0387C11.8755 16.0669 11.8896 16.0528 11.9459 16.0104C11.9668 15.9793 11.9962 15.9549 12.0304 15.9399C12.0727 15.9399 12.0868 15.9257 12.1009 15.8975C12.115 15.8552 12.1572 15.8269 12.2699 15.7563L12.3263 15.7281H12.3404C12.3545 15.7281 12.3685 15.8269 12.3404 15.8693C12.3404 15.8975 12.3404 15.8693 12.3967 15.8128C12.439 15.7281 12.4531 15.7422 12.3967 15.8128C12.3685 15.8693 12.3685 15.8975 12.3967 15.8552C12.4249 15.8128 12.4249 15.8269 12.3967 15.8834C12.3967 15.8975 12.3967 15.8975 12.3967 15.8834V15.9399V16.0104L12.4249 16.0245L12.4531 15.9963C12.4672 15.9681 12.4672 15.9681 12.4812 15.9963L12.5094 15.9681C12.5258 15.947 12.5447 15.928 12.5658 15.9116L12.5939 15.8693C12.6495 15.7489 12.7106 15.6311 12.7771 15.5164L12.8193 15.4176L12.8475 15.3188L12.8616 15.2341L12.8757 15.1352V15.0647V15.0364V14.98V14.8953C12.8697 14.8721 12.8697 14.8478 12.8757 14.8247C12.8874 14.7781 12.8968 14.731 12.9039 14.6835V14.6412V14.5424ZM12.9039 15.7422H12.8898V15.6858V15.6293V15.6434L12.8757 15.6858C12.8669 15.7406 12.8478 15.7933 12.8193 15.841L12.8053 15.8834V15.9257L12.7771 15.9681L12.8475 15.841L12.8616 15.8128C12.8616 15.8128 12.9039 15.7705 12.9039 15.7422ZM12.763 15.9681V15.954L12.7207 16.0104C12.6955 16.0546 12.6672 16.0971 12.6362 16.1375C12.5992 16.1815 12.5662 16.2288 12.5376 16.2786L12.5517 16.3069C12.5799 16.3069 12.5939 16.2786 12.6362 16.208L12.6785 16.1234L12.7348 16.0528L12.763 15.9681ZM12.439 16.1234L12.3967 16.1375C12.3964 16.1751 12.3964 16.2128 12.3967 16.2504L12.4108 16.2222L12.439 16.1939C12.4672 16.1092 12.4672 16.1092 12.439 16.1234ZM12.3545 15.9116C12.3545 15.9257 12.3545 15.9116 12.3545 15.9116C12.3685 15.9116 12.3545 15.9116 12.3545 15.9116ZM12.0023 10.5053V10.477V10.4911V10.5053ZM12.3545 10.4065V10.3782V10.3923V10.4065ZM7.88873 9.81359V9.78536C7.86056 9.78536 7.84647 9.78536 7.84647 9.81359C7.84647 9.82771 7.87465 9.84182 7.88873 9.81359ZM7.67742 9.88417L7.7056 9.87005L7.69151 9.84182C7.69151 9.84182 7.66333 9.84182 7.66333 9.87005L7.67742 9.88417ZM7.33932 10.0253C7.35341 10.0536 7.38158 10.0253 7.38158 9.98298H7.33932C7.31115 9.98298 7.31115 10.0253 7.33932 10.0394V10.0253ZM7.28297 10.0112L7.26888 10.0253C7.26888 10.0394 7.26888 10.0536 7.28297 10.0394C7.31115 10.0253 7.29706 10.0112 7.28297 10.0112ZM8.56493 11.6063L8.62128 11.5781L8.57902 11.564L8.53676 11.5781C8.53676 11.5922 8.53676 11.6063 8.56493 11.6063ZM8.10004 11.564H8.12822H8.10004ZM7.39567 11.3804C7.42436 11.3935 7.45256 11.4076 7.4802 11.4228L7.50837 11.3804C7.50837 11.324 7.50837 11.324 7.42385 11.324L7.33932 11.3381L7.40976 11.3804H7.39567ZM7.15618 11.0558L7.17027 11.0134C7.17027 10.9711 7.17027 10.957 7.1421 10.9852C7.12801 10.9993 7.1421 11.0558 7.15618 11.0558ZM7.11392 11.1828V11.2534C7.15618 11.2534 7.18436 11.2252 7.18436 11.1687C7.18436 11.0981 7.18436 11.084 7.1421 11.0981C7.11392 11.0981 7.11392 11.1264 7.11392 11.1828ZM6.78991 11.2111C6.78991 11.2252 6.78991 11.2393 6.804 11.2252C6.83217 11.2111 6.83217 11.1969 6.804 11.1969C6.78991 11.1969 6.77582 11.1969 6.78991 11.2252V11.2111ZM11.791 12.9896L11.8473 13.1449C11.8797 13.2171 11.9034 13.2929 11.9177 13.3708L11.96 13.5119L12.0586 13.6954C12.0727 13.7942 12.115 13.9495 12.1572 13.9354V13.9072L12.1713 13.7942C12.1713 13.7237 12.1009 13.639 12.0586 13.6107L12.0164 13.5684C12.0113 13.5389 12.0018 13.5103 11.9882 13.4837C11.9459 13.4414 11.9459 13.4131 11.9318 13.2861C11.9318 13.1873 11.9318 13.1449 11.9459 13.2014L11.9741 13.2296L12.0304 13.3002L12.1009 13.3849L12.1291 13.4414L12.1572 13.4837C12.1572 13.4837 12.1854 13.4131 12.1713 13.3849V13.3708L12.2136 13.3143V13.1873C12.1889 13.0878 12.1406 12.9958 12.0727 12.9191C11.9882 12.8061 11.9741 12.7638 12.0023 12.6791C12.0023 12.6085 12.0586 12.5944 12.0727 12.6509L12.1009 12.7073V12.7356C12.0727 12.7356 12.0727 12.8061 12.1009 12.8344C12.1291 12.8344 12.1431 12.8344 12.1431 12.7779C12.1431 12.7497 12.1431 12.7356 12.115 12.7214C12.0868 12.6791 12.0868 12.6368 12.115 12.6085C12.1431 12.5803 12.1572 12.5662 12.1431 12.5379C12.1431 12.5238 12.1431 12.5097 12.1431 12.5379C12.1713 12.5662 12.2136 12.5379 12.2277 12.4674C12.245 12.4223 12.2546 12.3745 12.2558 12.3262L12.2418 12.298V12.2274C12.2418 12.1145 12.2418 12.058 12.1995 12.0439H12.1854V12.0298C12.1995 12.0015 12.1854 11.9451 12.1291 11.8604C12.1159 11.8158 12.0969 11.7731 12.0727 11.7333C12.0445 11.7333 12.0727 11.6204 12.0727 11.5922C12.1009 11.5922 12.0868 11.564 12.0586 11.5498H12.0164C12.0164 11.5922 12.0023 11.5781 11.9882 11.5498C11.9844 11.5327 11.9743 11.5176 11.96 11.5075C11.9318 11.4934 11.9178 11.4369 11.9318 11.4369L11.96 11.3804C11.96 11.3381 11.9741 11.324 11.9882 11.3381L12.0023 11.3804C12.0023 11.4369 12.0304 11.4651 12.0445 11.4228H12.0727C12.0868 11.4228 12.1009 11.4369 12.1009 11.4793C12.115 11.5357 12.1291 11.5498 12.1431 11.5498C12.1572 11.5498 12.1854 11.5781 12.1854 11.6063L12.2418 11.7475H12.2699V11.6628C12.2546 11.612 12.2308 11.5643 12.1995 11.5216C12.1768 11.4911 12.1578 11.4579 12.1431 11.4228C12.1431 11.4087 12.1572 11.3522 12.1431 11.324V11.2534C12.1572 11.2111 12.1713 11.2111 12.1854 11.2393C12.2136 11.2675 12.2277 11.2393 12.2136 11.0417C12.2136 10.9005 12.2136 10.8864 12.1854 10.8158C12.1687 10.7841 12.1545 10.751 12.1431 10.717C12.1431 10.6323 12.0304 10.4911 12.0304 10.5476C12.0304 10.5758 12.0304 10.5758 12.0164 10.5476C12.0023 10.5194 11.9882 10.5194 12.0023 10.5476V10.5194L11.96 10.477L11.9318 10.4629V10.4347L11.96 10.3641C11.96 10.2229 11.9037 10.1947 11.9882 10.2229H12.0304C12.0304 10.2229 12.0868 10.2512 12.0868 10.2794H12.1572C12.1572 10.2935 12.1572 10.2794 12.1572 10.2794C12.1291 10.2653 12.1291 10.2512 12.1291 10.2088C12.1291 10.1665 12.1291 10.1524 12.1572 10.1665C12.1854 10.1665 12.1854 10.1806 12.1854 10.1947C12.2136 10.2371 12.2277 10.2512 12.2277 10.2229V10.2088V10.1806V10.1524C12.2418 10.1524 12.2699 10.2371 12.2558 10.2794V10.3782C12.2418 10.4065 12.2558 10.4629 12.284 10.5194C12.284 10.5617 12.3263 10.6323 12.3545 10.6747L12.4108 10.7876V10.717V10.6888V10.6182L12.3967 10.5758C12.3685 10.5476 12.3685 10.5053 12.3967 10.5335L12.3826 10.5053L12.3545 10.4629L12.3404 10.4347C12.3263 10.4347 12.3122 10.4065 12.3122 10.35V10.3076H12.3404C12.3404 10.3218 12.3404 10.3218 12.3404 10.3076L12.3826 10.3218H12.3967C12.2667 10.1256 12.1256 9.93708 11.9741 9.75713L11.96 9.7289L11.9318 9.70066L11.8896 9.6442C11.8677 9.62758 11.8441 9.61338 11.8191 9.60185C11.7487 9.57362 11.7769 9.58774 11.7487 9.54539C11.7205 9.50304 11.6501 9.47481 11.6642 9.50304C11.6642 9.51716 11.6642 9.50304 11.6642 9.50304C11.6642 9.47481 11.636 9.4607 11.6078 9.44658L11.5515 9.43246L11.5233 9.41835V9.44658C11.5515 9.47481 11.5515 9.48893 11.5233 9.47481C11.5233 9.4607 11.5233 9.4607 11.5233 9.47481H11.5092L11.4388 9.43246H11.3824C11.3824 9.4607 11.3683 9.43246 11.312 9.39012L11.2979 9.36189L11.2556 9.31954V9.30542L11.2416 9.27719L11.157 9.23484H11.1148C11.1289 9.26307 11.1148 9.26307 11.0866 9.24896C11.0559 9.24061 11.0272 9.22621 11.0021 9.20661C10.9714 9.18772 10.9382 9.17345 10.9035 9.16426C10.8649 9.14744 10.8273 9.12859 10.7908 9.1078H10.7485L10.7344 9.12192C10.6921 9.12192 10.664 9.1078 10.6921 9.09369L10.7344 9.07957C10.753 9.06974 10.7718 9.06033 10.7908 9.05134V9.00899L10.7626 8.98076C10.7482 8.97177 10.7341 8.96236 10.7203 8.95253C10.6985 8.93943 10.6747 8.9299 10.6499 8.9243C10.5935 8.9243 10.5372 8.88195 10.5372 8.86783C10.5372 8.8396 10.4667 8.81137 10.4386 8.82548L10.4104 8.85372L10.3822 8.86783H10.34C10.2413 8.8396 10.0723 8.85372 10.0582 8.88195L10.0441 8.89606L10.0723 8.9243H9.88915C9.88915 8.9243 9.93142 9.00899 9.97368 9.02311C9.98777 9.02311 10.0019 9.03722 9.98777 9.05134L9.93142 9.02311L9.84689 8.98076C9.80463 8.96664 9.80463 8.96664 9.8328 8.99487C9.86098 9.02311 9.86098 9.02311 9.8328 9.00899C9.77645 8.99487 9.77645 9.00899 9.8328 9.03722H9.81872C9.79054 9.03722 9.77645 9.03722 9.76237 8.99487C9.75511 8.97506 9.74566 8.95612 9.73419 8.93841V8.99487H9.70602L9.73419 9.05134C9.74828 9.07957 9.76237 9.07957 9.74828 9.1078C9.74828 9.15015 9.77645 9.17838 9.8328 9.17838C9.88915 9.17838 9.93142 9.22073 9.93142 9.27719C9.93142 9.29131 9.93142 9.29131 9.93142 9.27719C9.90324 9.23484 9.86098 9.1925 9.8328 9.20661V9.24896L9.81872 9.31954C9.79054 9.36189 9.70602 9.36189 9.67784 9.31954H9.7201C9.74828 9.33365 9.76237 9.31954 9.77645 9.27719L9.76237 9.20661C9.741 9.1773 9.72655 9.14352 9.7201 9.1078C9.71018 9.08201 9.69588 9.05813 9.67784 9.03722V8.98076C9.67784 8.95253 9.64967 8.92429 9.6074 8.91018C9.59332 8.91018 9.57923 8.91018 9.59332 8.89606L9.57923 8.86783C9.56514 8.86783 9.55105 8.86783 9.56514 8.89606H9.55105L9.53697 8.93841L9.50879 8.99487V9.02311L9.52288 9.05134V9.07957C9.52288 9.07957 9.52288 9.1078 9.56514 9.12192C9.64967 9.20661 9.63558 9.22073 9.52288 9.16426C9.469 9.13134 9.41245 9.10301 9.35383 9.07957C9.32069 9.07112 9.28781 9.06171 9.25522 9.05134L9.26931 9.07957C9.32565 9.12192 9.33974 9.13603 9.32565 9.16426H9.29748C9.28339 9.15015 9.25522 9.13603 9.19887 9.15015H9.08617C9.08617 9.12192 9.07208 9.12192 9.05799 9.12192L9.01573 9.15015C8.95938 9.15015 8.87486 9.1925 8.87486 9.20661C8.87486 9.23484 8.83259 9.23484 8.80442 9.20661C8.77624 9.20661 8.77624 9.16426 8.80442 9.17838C8.83259 9.17838 8.81851 9.15015 8.80442 9.12192H8.71989V9.17838L8.74807 9.22073C8.77624 9.24896 8.74807 9.29131 8.71989 9.26307H8.63537C8.59311 9.30542 8.59311 9.30542 8.60719 9.34777C8.63537 9.376 8.63537 9.376 8.57902 9.36189C8.5498 9.35596 8.52142 9.34648 8.49449 9.33365L8.46632 9.34777L8.50858 9.39012C8.52267 9.39012 8.53676 9.43246 8.50858 9.43246C8.46339 9.41619 8.42412 9.38668 8.39588 9.34777C8.38732 9.33013 8.38252 9.3109 8.38179 9.29131L8.33953 9.24896C8.28318 9.22073 8.32544 9.22073 8.43814 9.24896C8.55084 9.27719 8.56493 9.27719 8.59311 9.24896C8.62128 9.23484 8.63537 9.20661 8.62128 9.1925C8.49881 9.09274 8.35363 9.02486 8.19866 8.99487C8.14231 8.99487 8.12822 8.99487 8.15639 8.96664C8.18457 8.96664 8.18457 8.96664 8.14231 8.93841L8.08596 8.9243H8.07187C8.07187 8.89606 8.07187 8.89606 8.04369 8.89606L8.00143 8.9243C7.98433 8.92811 7.96926 8.93818 7.95917 8.95253H7.94508L7.95917 8.91018H7.93099C7.90922 8.91977 7.88994 8.93426 7.87465 8.95253H7.84647L7.79012 8.96664C7.76195 8.98076 7.74786 8.99487 7.73377 8.96664H7.69151V8.99487H7.63516C7.62107 8.99487 7.60698 8.99487 7.63516 9.02311C7.66333 9.05134 7.60698 9.06545 7.57881 9.03722H7.56472H7.53655V9.05134L7.56472 9.06545C7.62107 9.03722 7.5929 9.09369 7.52246 9.13603C7.47947 9.16942 7.44555 9.2131 7.42385 9.26307C7.42385 9.29131 7.39567 9.31954 7.38158 9.31954L7.3675 9.33365L7.35341 9.34777C7.35341 9.34777 7.32523 9.34777 7.31115 9.376L7.2548 9.40423C7.24071 9.40423 7.22662 9.40423 7.22662 9.43246L7.21253 9.4607L7.12801 9.48893C7.07166 9.53127 7.04348 9.60185 7.07166 9.6442V9.70066C7.04348 9.7289 7.04348 9.7289 7.07166 9.71478C7.11392 9.71478 7.11392 9.71478 7.08575 9.7289C7.05757 9.77124 7.05757 9.78536 7.12801 9.79947L7.24071 9.77124L7.29706 9.70066H7.31115L7.32523 9.75713L7.33932 9.78536L7.35341 9.81359C7.35341 9.82771 7.35341 9.85594 7.38158 9.88417L7.39567 9.92652V9.96886C7.42385 10.0112 7.4802 10.0112 7.4802 9.96886L7.50837 9.95475C7.56472 9.95475 7.60698 9.9124 7.5929 9.84182C7.5929 9.79948 7.5929 9.78536 7.62107 9.77124C7.64742 9.75634 7.67121 9.73727 7.69151 9.71478V9.65832L7.63516 9.63008L7.62107 9.58774C7.62107 9.51716 7.66333 9.4607 7.71968 9.43246C7.79012 9.39012 7.8183 9.36189 7.80421 9.33365C7.79012 9.30542 7.86056 9.26307 7.91691 9.26307C7.98735 9.27719 8.00143 9.30542 7.95917 9.33365C7.8183 9.4607 7.80421 9.47481 7.8183 9.50304V9.57362C7.8183 9.6442 7.88873 9.67243 7.98734 9.65832L8.10004 9.6442C8.14231 9.6442 8.19866 9.67243 8.18457 9.68655L8.07187 9.71478C7.95917 9.71478 7.93099 9.71478 7.93099 9.75713L7.94508 9.78536C7.97326 9.78536 7.97326 9.81359 7.97326 9.84182C7.97326 9.89829 7.94508 9.9124 7.91691 9.87005C7.86056 9.81359 7.8183 9.87005 7.8183 9.96886C7.8183 10.0253 7.8183 10.0394 7.79012 10.0394C7.79012 10.0394 7.76195 10.0394 7.76195 10.0677C7.76195 10.0959 7.7056 10.0818 7.69151 10.0677H7.56472L7.45202 10.11L7.35341 10.0959C7.26888 10.0959 7.22662 10.0536 7.24071 10.0112C7.24071 9.98298 7.26888 9.96886 7.28297 9.96886C7.29706 9.95475 7.31115 9.94063 7.28297 9.92652V9.87005C7.31115 9.84182 7.2548 9.84182 7.24071 9.87005C7.22662 9.89829 7.19845 9.9124 7.19845 9.89829V9.96886C7.19845 10.11 7.19845 10.1383 7.15618 10.1383C7.04348 10.1383 7.04348 10.1383 7.01531 10.1947C7.01531 10.2229 7.01531 10.2229 7.01531 10.1947C7.00122 10.1947 6.98713 10.1947 6.95896 10.2512C6.93314 10.2833 6.89903 10.3077 6.86035 10.3218C6.84626 10.3359 6.81808 10.35 6.81808 10.3782L6.74765 10.4347C6.70538 10.4629 6.6913 10.4629 6.67721 10.4347C6.64904 10.4347 6.64903 10.4347 6.63495 10.4629C6.63495 10.5053 6.63495 10.5194 6.59269 10.5194C6.52225 10.5053 6.49407 10.5194 6.49407 10.5476L6.50816 10.5758C6.5786 10.5758 6.64903 10.6747 6.63495 10.7593L6.60677 10.8582C6.5786 10.9146 6.5786 10.9146 6.45181 10.9146L6.29685 10.9005H6.2405C6.21232 10.9287 6.19824 10.9429 6.19824 11.0417L6.15597 11.1828C6.1278 11.2393 6.1278 11.2675 6.14189 11.2816V11.3663C6.14189 11.4087 6.14189 11.4087 6.18415 11.3946C6.22641 11.3946 6.2405 11.3946 6.25459 11.4369C6.28276 11.4651 6.29685 11.4651 6.33911 11.451L6.43772 11.4228C6.47999 11.4228 6.50816 11.4228 6.50816 11.3946L6.55042 11.3663C6.5786 11.3663 6.62086 11.2675 6.62086 11.2252C6.62086 11.1828 6.70539 11.084 6.76173 11.0558C6.804 11.0558 6.81809 11.0275 6.83217 10.9852C6.83217 10.9146 6.90261 10.8723 6.95896 10.9146C6.97305 10.9287 7.00122 10.9146 7.07166 10.8864C7.10194 10.8633 7.13509 10.8444 7.17027 10.8299L7.2548 10.9287C7.29706 10.9711 7.3675 11.0558 7.42385 11.084C7.53655 11.1546 7.56472 11.1969 7.55063 11.2816C7.53655 11.3381 7.55063 11.3381 7.57881 11.2816C7.62107 11.2252 7.63516 11.2111 7.60698 11.1969V11.1405H7.66333C7.67742 11.1687 7.7056 11.1687 7.7056 11.1687C7.7056 11.1546 7.60698 11.0699 7.56472 11.0699V11.0417L7.52246 11.0275L7.43793 10.9287C7.41968 10.8965 7.39583 10.8678 7.3675 10.844L7.35341 10.8017C7.35341 10.7311 7.40976 10.7029 7.42385 10.7593H7.46611L7.50837 10.8299L7.57881 10.9005C7.60698 10.9005 7.64925 10.9429 7.69151 10.9711C7.74786 11.0134 7.76195 11.0417 7.76195 11.084L7.83238 11.2252L7.87465 11.3099C7.86056 11.324 7.931 11.4228 7.97326 11.4228V11.3946C7.97326 11.3663 7.97326 11.3522 8.01552 11.3381C8.07187 11.2958 8.05778 11.2534 7.97326 11.2675V11.2252V11.1828C7.931 11.1546 7.94508 11.1122 7.97326 11.1264L8.02961 11.1122C8.05778 11.0417 8.17048 11.084 8.17048 11.1546V11.1969C8.18457 11.1969 8.19866 11.2111 8.19866 11.2534V11.2957L8.22683 11.3381L8.26909 11.3946L8.35362 11.4369C8.38179 11.4651 8.39588 11.4651 8.42406 11.4369C8.43814 11.3946 8.45223 11.3946 8.49449 11.4369C8.55084 11.4651 8.62128 11.4793 8.63537 11.4369L8.67763 11.4228H8.73398V11.5075L8.71989 11.7051C8.67763 11.8463 8.63537 11.8886 8.55084 11.8463C8.52267 11.8039 8.49449 11.8039 8.45223 11.8322C8.39588 11.8604 8.35362 11.8604 8.26909 11.8322L8.12822 11.7898C8.07187 11.7898 8.01552 11.7616 8.01552 11.7475C8.01552 11.7475 8.00143 11.7192 7.97326 11.7192C7.91691 11.691 7.83238 11.7475 7.83238 11.8039L7.8183 11.8886C7.79012 11.9168 7.77603 11.9168 7.7056 11.8886C7.67129 11.8639 7.63324 11.8448 7.5929 11.8322C7.58062 11.8307 7.56895 11.826 7.55906 11.8185C7.54917 11.8111 7.5414 11.8012 7.53655 11.7898C7.50837 11.7616 7.39567 11.691 7.3675 11.7192C7.35341 11.7192 7.19845 11.6486 7.19845 11.6204L7.24071 11.5781C7.26888 11.5357 7.26888 11.5216 7.2548 11.4934V11.4228C7.28297 11.3946 7.28297 11.3946 7.2548 11.4087L7.22662 11.3946H7.1421L6.90261 11.4087C6.76173 11.4087 6.60677 11.451 6.52225 11.5357C6.49407 11.5498 6.32502 11.5357 6.31094 11.5216C6.29685 11.4793 6.28276 11.4934 6.25459 11.564C6.23381 11.6107 6.19944 11.65 6.15597 11.6769C6.08554 11.7192 6.0151 11.8463 6.0151 11.9027C6.0151 11.9592 5.94466 12.0439 5.84605 12.0862C5.7681 12.1517 5.70557 12.2337 5.66291 12.3262L5.62065 12.3968C5.58956 12.442 5.56133 12.4892 5.53612 12.5379C5.47977 12.6226 5.47977 12.6368 5.49386 12.6791C5.50795 12.7073 5.50795 12.7497 5.49386 12.8767C5.47977 12.9614 5.42343 13.1167 5.39525 13.1167V13.2861C5.39525 13.3284 5.39525 13.3425 5.42343 13.3567L5.4516 13.399L5.50795 13.4978L5.5643 13.639C5.5643 13.7237 5.70517 13.8366 5.7897 13.9213C5.83196 13.9495 5.84605 13.9495 6.0151 13.9213C6.07145 13.8931 6.1278 13.9072 6.17006 13.9213C6.22641 13.9213 6.26867 13.9213 6.36729 13.8789C6.4659 13.8366 6.60677 13.766 6.71947 13.8366C6.73356 13.8507 6.76173 13.8789 6.76173 13.9072C6.76173 13.9636 6.804 13.9778 6.90261 13.9636C6.97305 13.9495 6.98713 13.9636 7.04348 14.006C7.07166 14.0342 7.09983 14.0766 7.08575 14.0907V14.2318L7.04348 14.3589C7.0294 14.3871 7.05757 14.4577 7.18436 14.5706C7.2861 14.6865 7.3543 14.8281 7.38158 14.98L7.40976 15.1211C7.42385 15.1776 7.42385 15.2058 7.39567 15.2341C7.34028 15.3177 7.31087 15.416 7.31115 15.5164C7.32523 15.6293 7.40976 15.7422 7.4802 15.8269L7.53655 15.9963C7.55063 16.1234 7.5929 16.1939 7.63516 16.2363C7.67742 16.2645 7.77603 16.4621 7.77603 16.4904C7.74786 16.5186 7.79012 16.5892 7.83238 16.6033H7.91691L8.05778 16.5751C8.19866 16.5609 8.36771 16.5045 8.46632 16.3633L8.56493 16.2363C8.60569 16.2001 8.63092 16.1495 8.63537 16.0951C8.63537 16.0245 8.63537 16.0245 8.71989 15.9822C8.79033 15.9398 8.80442 15.9398 8.80442 15.8693V15.7422C8.80442 15.6858 8.80442 15.6716 8.83259 15.6434C8.86311 15.6176 8.89139 15.5893 8.91712 15.5587C8.9477 15.5222 8.98626 15.4932 9.02982 15.474C9.05799 15.474 9.10026 15.4317 9.12843 15.4035C9.17069 15.3611 9.17069 15.347 9.18478 15.1917V15.0082L9.1566 14.8953V14.7541C9.12843 14.7118 9.14252 14.6835 9.18478 14.613C9.32623 14.4576 9.46249 14.2975 9.59332 14.133C9.71265 14.0381 9.79289 13.9024 9.81872 13.7519C9.81872 13.6813 9.84689 13.6107 9.86098 13.5966V13.4555C9.86098 13.3708 9.86098 13.3567 9.81872 13.3849C9.70254 13.4262 9.58508 13.4639 9.46653 13.4978C9.46653 13.4696 9.43835 13.4555 9.42427 13.4272L9.39609 13.3708C9.42427 13.3567 9.29748 13.2155 9.19887 13.1449C9.1514 13.11 9.11674 13.0604 9.10026 13.0038C9.08771 12.952 9.06363 12.9037 9.02982 12.8626C8.98756 12.8344 8.97347 12.792 8.94529 12.7214C8.93651 12.6599 8.91227 12.6016 8.87486 12.5521C8.85111 12.5275 8.83201 12.4988 8.81851 12.4674C8.80914 12.4236 8.79496 12.381 8.77624 12.3403C8.73161 12.2404 8.68464 12.1416 8.63537 12.0439C8.69172 12.1427 8.73398 12.1568 8.71989 12.0862V12.0721L8.81851 12.2133L8.90303 12.3544L8.94529 12.4109C9.00164 12.4532 9.04391 12.5379 9.05799 12.6085C9.05799 12.6509 9.08617 12.6791 9.12843 12.7214L9.19887 12.8061L9.25522 12.9191L9.32565 13.0602C9.33974 13.1449 9.39609 13.3002 9.42427 13.3143L9.4947 13.3002C9.50961 13.2815 9.529 13.267 9.55105 13.2578L9.6074 13.2437L9.64967 13.2296L9.69193 13.1873C9.72191 13.1638 9.75513 13.1448 9.79054 13.1308C9.82156 13.1098 9.84599 13.0805 9.86098 13.0461C9.87507 13.0179 9.91733 12.9896 9.9455 12.9896L10.0019 12.9191C10.0019 12.8908 10.0019 12.8767 10.03 12.8767C10.03 12.8767 10.0582 12.8767 10.0441 12.8626L10.0723 12.8061C10.1005 12.8061 10.1005 12.7779 10.1005 12.7779V12.6932L10.1427 12.6226L10.1568 12.5521C10.1431 12.533 10.129 12.5141 10.1146 12.4956C10.0954 12.4719 10.0714 12.4527 10.0441 12.4391C9.98777 12.425 9.95959 12.3968 9.9455 12.3121L9.91733 12.2556L9.88915 12.3262C9.81872 12.4532 9.69193 12.4391 9.69193 12.3262C9.69193 12.2556 9.66375 12.2415 9.64967 12.298C9.64967 12.3403 9.64967 12.3403 9.62149 12.2697C9.61041 12.233 9.59114 12.1992 9.56514 12.1709L9.4947 12.0721C9.45244 11.9874 9.45244 11.9874 9.46653 11.9733C9.52288 11.931 9.55105 11.9451 9.6074 12.0298C9.64967 12.1145 9.76237 12.2415 9.86098 12.2133H9.90324C9.90324 12.1709 9.93142 12.185 9.9455 12.2415L9.98777 12.298C10.1005 12.3403 10.2695 12.3686 10.3963 12.3262L10.4527 12.3827C10.5372 12.4815 10.5935 12.5379 10.6076 12.5238H10.6217L10.6076 12.5521C10.5794 12.5521 10.5794 12.5521 10.6358 12.6226C10.6921 12.6932 10.7344 12.6932 10.7344 12.6226C10.7344 12.5662 10.7344 12.5662 10.7626 12.6226L10.7908 12.7073C10.8048 12.8485 10.8612 12.9755 10.9316 13.0885L10.988 13.2155L11.0443 13.3284L11.1148 13.4837C11.1711 13.5966 11.1852 13.5966 11.2134 13.4978C11.2421 13.3812 11.2372 13.2589 11.1993 13.1449C11.1711 13.0602 11.1711 13.0461 11.1993 13.032V13.0038L11.2134 12.9896C11.2275 12.9896 11.2556 12.9191 11.2838 12.8061L11.3261 12.7356C11.3402 12.7356 11.3543 12.6932 11.3402 12.6509V12.6085H11.3965L11.4388 12.5944V12.5521C11.4388 12.4956 11.467 12.5379 11.5092 12.6085L11.5797 12.7073L11.6078 12.7638L11.6219 12.792C11.6501 12.792 11.6783 12.8908 11.6924 12.9332V13.0038C11.7346 13.0179 11.7487 13.0038 11.7628 12.9614V12.9191L11.805 12.9896H11.791ZM11.3261 13.5543C11.2697 13.4696 11.2556 13.4555 11.2556 13.4978C11.2556 13.5543 11.2979 13.6813 11.312 13.7096C11.3261 13.7378 11.3402 13.7378 11.3543 13.7096C11.3824 13.6813 11.3824 13.639 11.3261 13.5543ZM10.5231 18.1137H10.5513L10.5372 18.0996C10.5372 18.0996 10.5231 18.0996 10.5372 18.0996L10.5231 18.1137ZM9.95959 13.3143H9.98777C10.0019 13.3002 9.98777 13.2861 9.97368 13.2861L9.95959 13.3002V13.3143ZM9.88915 15.6575V15.6434V15.6152V15.6434C9.87507 15.6434 9.88915 15.6434 9.88915 15.6434V15.6575ZM9.84689 17.5914H9.88915V17.5632C9.86098 17.5632 9.84689 17.5632 9.84689 17.5914ZM9.28339 15.6716L9.24113 15.8128C9.24113 15.9257 9.26931 15.9681 9.35383 15.954L9.41018 15.9116C9.49471 15.7987 9.55105 15.6152 9.62149 15.4458L9.63558 15.4035L9.64967 15.347C9.64967 15.3046 9.64967 15.3046 9.67784 15.3188L9.70602 15.2482L9.66375 15.0788V15.0929L9.63558 15.1352C9.6328 15.1609 9.62306 15.1853 9.6074 15.2058C9.58207 15.2274 9.55852 15.251 9.53697 15.2764C9.51464 15.3062 9.4857 15.3304 9.45244 15.347C9.35383 15.3752 9.31157 15.4458 9.32565 15.5446C9.32565 15.6152 9.32565 15.6293 9.29748 15.6858L9.28339 15.6716ZM6.98713 19.2006V19.1724V19.2147V19.2006ZM6.42364 19.3276H6.43772V19.3135L6.42364 19.3276ZM10.9175 18.5089H10.8612L10.8189 18.523H10.8048H10.7908L10.7626 18.5513H10.7485H10.6921V18.5372L10.5935 18.5513L10.5231 18.5654C10.5513 18.5513 10.5513 18.5372 10.5372 18.5372L10.5231 18.5654L10.4667 18.6077C10.4399 18.6152 10.4156 18.6299 10.3963 18.6501C10.3681 18.6783 10.34 18.6783 10.34 18.6501H10.3259C10.3118 18.6783 10.2132 18.7207 10.1427 18.7348H10.1005C10.1005 18.7207 10.03 18.7348 10.0019 18.763C9.98777 18.7912 9.97368 18.7912 9.90324 18.7912C9.8328 18.7912 9.81872 18.7912 9.77645 18.8195L9.76237 18.8336L9.70602 18.8618C9.64115 18.8738 9.57906 18.8978 9.52288 18.9324L9.45244 18.9747C9.41696 19.0015 9.37926 19.0251 9.33974 19.0453C9.3098 19.0556 9.28137 19.0698 9.25522 19.0877H9.24113L9.19887 19.13C9.17069 19.1724 9.11434 19.2006 9.08617 19.2006C9.08617 19.2006 9.08617 19.1583 9.11434 19.1583L9.14252 19.13C9.17069 19.1018 9.17069 19.1018 9.14252 19.1159C9.14252 19.1159 9.11434 19.1159 9.14252 19.1159V19.0877C9.17069 19.0877 9.22704 19.0312 9.22704 19.0171H9.1566C9.01573 19.0171 8.90303 19.0171 8.91712 19.003L8.90303 18.9747C8.86077 18.9465 8.71989 18.9747 8.71989 19.0171L8.67763 19.0312L8.64946 19.0453H8.62128C8.59567 19.0481 8.5713 19.0579 8.55084 19.0736C8.53246 19.0798 8.51362 19.0845 8.49449 19.0877C8.44298 19.1007 8.39491 19.1248 8.35362 19.1583C8.32544 19.1865 8.28318 19.2006 8.28318 19.1724H8.26909L8.22683 19.1583C8.19866 19.13 8.19866 19.13 8.18457 19.1441L7.98734 19.2147C7.91726 19.2248 7.84611 19.2248 7.77603 19.2147C7.68294 19.1971 7.58738 19.1971 7.49428 19.2147C7.49428 19.2429 7.4802 19.2429 7.46611 19.2288C7.37285 19.213 7.27761 19.213 7.18436 19.2288C7.13012 19.2479 7.07194 19.2527 7.01531 19.2429C6.95896 19.2429 6.9167 19.2288 6.9167 19.2147L6.87443 19.2288C6.84626 19.2571 6.84626 19.2571 6.81808 19.2288C6.81808 19.2147 6.804 19.2006 6.77582 19.2288H6.71947C6.71947 19.2147 6.71947 19.2147 6.71947 19.2288C6.74765 19.2571 6.74765 19.2571 6.71947 19.2712H6.67721L6.66312 19.2853L6.62086 19.2994L6.59269 19.3276H6.62086C6.66312 19.3276 6.64903 19.3276 6.60677 19.3559L6.55042 19.3982H6.47999C6.38137 19.3982 6.0151 19.3982 6.00101 19.4547L6.14189 19.5253H6.19824C6.25459 19.5253 6.25459 19.5253 6.2405 19.5394L6.21232 19.5535H6.2405L6.26867 19.5817H6.25459C7.06748 19.7273 7.9012 19.7086 8.70678 19.5268C9.51237 19.345 10.2736 19.0037 10.9457 18.523L10.9175 18.5089ZM5.81787 17.9019L5.77561 17.8878C5.74744 17.8737 5.74744 17.8737 5.77561 17.8878C5.81787 17.9161 5.84605 17.9302 5.81787 17.9019ZM5.74744 19.4265C5.73556 19.4142 5.72602 19.3998 5.71926 19.3841C5.71926 19.3559 5.62065 19.3135 5.5643 19.3276L5.52204 19.3559C5.52204 19.3841 5.50795 19.3841 5.46569 19.3841H5.4516C5.54959 19.4102 5.64824 19.4337 5.74744 19.4547C5.77561 19.4547 5.77561 19.4547 5.74744 19.4265ZM5.4516 9.60185H5.47977L5.49386 9.63008V9.6442L5.53612 9.67243L5.60656 9.60185C5.62684 9.57193 5.64118 9.53839 5.64882 9.50304L5.70517 9.44658C5.76152 9.41835 5.77561 9.39012 5.74744 9.376H5.76152C5.77561 9.36189 5.7897 9.36189 5.77561 9.33365C5.77561 9.30542 5.77561 9.30542 5.83196 9.29131C5.86014 9.29131 5.9024 9.26307 5.91649 9.23484C5.94466 9.20661 5.94466 9.20661 5.91649 9.23484C5.91649 9.27719 5.91649 9.27719 5.93057 9.26307L6.0151 9.22073C6.05145 9.20881 6.08501 9.1896 6.11371 9.16426C6.14189 9.13603 5.94466 9.12192 5.94466 9.12192L6.19824 9.07957C6.19824 9.05134 6.19824 9.05134 6.21232 9.07957C6.2405 9.1078 6.38137 9.07957 6.50816 9.00899C6.59269 8.96664 6.59269 8.96664 6.5786 8.95253C6.55602 8.94408 6.53224 8.93931 6.50816 8.93841C6.47999 8.93841 6.4659 8.93841 6.47999 8.9243C6.50816 8.9243 6.50816 8.89606 6.50816 8.88195C6.50816 8.85372 6.50816 8.85372 6.53634 8.86783L6.56451 8.89606C6.56451 8.9243 6.66312 8.93841 6.66312 8.91018C6.66312 8.88195 6.63495 8.82548 6.59269 8.81137C6.56451 8.79725 6.53634 8.74079 6.56451 8.74079C6.5786 8.74079 6.59269 8.74079 6.5786 8.75491C6.5786 8.76902 6.63495 8.81137 6.64904 8.79725C6.67721 8.79725 6.66312 8.75491 6.63495 8.74079L6.5786 8.68433L6.62086 8.69844C6.66312 8.72667 6.73356 8.69844 6.73356 8.67021C6.73356 8.67021 6.74765 8.64198 6.77582 8.64198H6.804L6.77582 8.62786C6.73356 8.62786 6.73356 8.58552 6.77582 8.58552H6.804C6.804 8.54317 6.77582 8.50082 6.76173 8.50082C6.6913 8.50082 6.70539 8.47259 6.76173 8.47259H6.77582L6.83217 8.48671C6.83217 8.50082 6.83217 8.50082 6.83217 8.48671C6.87443 8.44436 6.86035 8.43024 6.83217 8.43024L6.78991 8.41613C6.78991 8.40201 6.78991 8.38789 6.76173 8.40201H6.73356L6.76173 8.37378L6.81808 8.33143L6.84626 8.3032L6.87443 8.27497L6.9167 8.26085C6.95767 8.22366 7.00554 8.19488 7.05757 8.17616L7.12801 8.16204L7.07166 8.13381H6.94487C6.92383 8.14845 6.89974 8.1581 6.87443 8.16204H6.78991L6.73356 8.19027L6.77582 8.14793C6.804 8.11969 6.804 8.11969 6.74765 8.13381H6.6913L6.74765 8.10558L6.804 8.09146C6.804 8.07735 6.804 8.06323 6.76173 8.06323H6.6913C6.57116 8.03563 6.44692 8.03084 6.32502 8.04912C6.28276 8.04912 6.25459 8.06323 6.25459 8.07735H6.11371L6.02919 8.10558C6.05736 8.10558 6.07145 8.13381 6.04327 8.14793C6.04327 8.17616 6.04327 8.17616 5.94466 8.14793C5.86014 8.13381 5.84605 8.14793 5.84605 8.17616C5.84605 8.20439 5.84605 8.20439 5.80379 8.17616L5.76152 8.19027H5.73335C5.73335 8.16204 5.49386 8.2185 5.47977 8.26085L5.43751 8.28908C5.38116 8.28908 5.29664 8.33143 5.25438 8.35966H5.28255L5.31073 8.38789L5.19803 8.44436L5.01489 8.51494C5.01489 8.52905 5.09941 8.55728 5.12759 8.52905C5.12759 8.55728 5.09941 8.55728 5.07124 8.5714C5.02898 8.5714 5.02898 8.5714 5.04306 8.58552L5.07124 8.61375H5.19803C5.31073 8.58552 5.39525 8.59963 5.39525 8.64198L5.40934 8.65609L5.43751 8.72667L5.42343 8.82548C5.38116 8.86783 5.38116 8.88195 5.42343 8.86783L5.50795 8.88195V8.93841H5.4516C5.43751 8.93841 5.42343 8.93841 5.43751 8.91018C5.40934 8.91018 5.40934 8.92429 5.40934 8.93841L5.39525 8.95253L5.36708 8.98076C5.36708 9.00899 5.38116 9.03722 5.42343 9.00899H5.4516V8.98076C5.42343 8.95253 5.42343 8.95253 5.4516 8.96664C5.47977 8.96664 5.49386 8.98076 5.47977 8.99487H5.50795V9.00899L5.43751 9.06545L5.36708 9.1078C5.3389 9.15015 5.32481 9.16426 5.3389 9.17838L5.32481 9.20661V9.26307C5.33078 9.28622 5.33078 9.31051 5.32481 9.33365C5.31073 9.36189 5.31073 9.36189 5.35299 9.33365C5.39525 9.31954 5.39525 9.31954 5.35299 9.36189C5.32481 9.40423 5.32481 9.40423 5.35299 9.48893C5.36708 9.58774 5.39525 9.60185 5.43751 9.58774L5.4516 9.60185ZM5.25438 19.3135C5.24029 19.2853 5.21211 19.2853 5.21211 19.2994L5.25438 19.3135ZM5.05715 18.5795V18.5936H5.08533L5.02898 18.5654L5.05715 18.5795ZM5.15576 19.003L5.1135 18.9747L5.08533 18.9465L5.07124 18.9042C5.07124 18.8759 5.05715 18.8618 5.02898 18.8618L5.01489 18.8336L4.90219 18.7348L4.87401 18.7065C4.86784 18.698 4.86308 18.6884 4.85993 18.6783L4.91628 18.636H4.93036C4.93036 18.6077 4.97263 18.5795 5.01489 18.5795H5.02898L5.05715 18.5654H5.08533L5.02898 18.5372H5.0008H4.97263C4.92779 18.5419 4.88452 18.5563 4.84584 18.5795L4.80358 18.6077L4.7754 18.6501H4.78949L4.81766 18.6924C4.81766 18.7348 4.81766 18.7348 4.80358 18.7207C4.76131 18.7207 4.76131 18.7207 4.84584 18.8195L4.87401 18.8759C4.8881 18.8901 4.85993 18.9042 4.76131 18.8759C4.67679 18.8759 4.67679 18.8759 4.64861 18.8477C4.64861 18.8195 4.63453 18.8195 4.62044 18.8195V18.8477H4.60635C4.56007 18.8272 4.51308 18.8084 4.46548 18.7912H4.38095C4.35524 18.7754 4.33158 18.7564 4.31051 18.7348C4.29726 18.7279 4.283 18.7231 4.26825 18.7207C4.24758 18.7156 4.22832 18.706 4.2119 18.6924H4.18373C4.04504 18.6546 3.91228 18.5976 3.78928 18.523L3.84563 18.5654L3.88789 18.5936H3.85972L3.83154 18.5795L3.85972 18.6077H3.88789L3.90198 18.636C4.11963 18.7679 4.34549 18.8858 4.57818 18.9889C4.6627 19.0453 4.7754 19.0736 4.7754 19.0736L4.73314 19.0453L4.59226 18.9465L4.67679 18.9747C4.76131 19.0171 4.83175 19.0453 4.87401 19.0453C4.91156 19.0437 4.94917 19.0437 4.98671 19.0453H5.05715C5.05715 19.0312 5.05715 19.0312 5.05715 19.0453C5.07124 19.0453 5.08533 19.0453 5.09941 19.0171V18.9889L5.07124 18.9747H5.14168L5.15576 19.003ZM4.93036 19.1583H4.8881L4.93036 19.1865H4.97263C5.0008 19.1865 4.97263 19.1583 4.93036 19.1583ZM3.8738 18.5654L3.83154 18.5372L3.85972 18.5654L3.8738 18.5795C3.88789 18.5795 3.91607 18.5795 3.94424 18.6077C4.01468 18.6219 3.95833 18.5936 3.8738 18.5654ZM3.88789 17.1115V17.1538C3.90198 17.1538 3.91607 17.1538 3.90198 17.1397V17.1115H3.88789ZM4.14147 18.6783H4.12738V18.6924C4.14147 18.6924 4.14147 18.6924 4.12738 18.6924L4.14147 18.6783ZM4.22599 17.6761L4.2119 17.6902C4.2119 17.7184 4.2119 17.7184 4.22599 17.7043C4.25417 17.6902 4.25417 17.6761 4.22599 17.6761ZM4.29643 17.6761L4.25417 17.7043C4.25417 17.7326 4.25416 17.7326 4.28234 17.7184C4.3246 17.7184 4.3246 17.6902 4.28234 17.6902L4.29643 17.6761ZM4.52183 18.8054H4.50774L4.53591 18.8195L4.52183 18.8054ZM4.74723 18.6642V18.6501C4.74723 18.636 4.74723 18.6219 4.73314 18.6501C4.73314 18.6642 4.73314 18.6783 4.74723 18.6642ZM4.56409 18.7207H4.57818C4.56409 18.7207 4.56409 18.7207 4.57818 18.7207H4.56409ZM4.56409 18.7489L4.59226 18.763C4.63453 18.763 4.64861 18.763 4.59226 18.763H4.56409V18.7489ZM4.71905 18.8618L4.76131 18.8759C4.85993 18.9042 4.85993 18.8759 4.76131 18.763C4.70496 18.7065 4.69088 18.6924 4.6627 18.7065V18.7348L4.67679 18.763L4.69088 18.7912C4.73314 18.7912 4.73314 18.8054 4.69088 18.7912H4.63453H4.60635V18.8054L4.6627 18.8195L4.71905 18.8336V18.8618ZM3.15534 12.8344C3.15534 12.8485 3.26804 12.8767 3.29622 12.8626H3.35257L3.40892 12.8485L3.38074 12.792C3.35257 12.7356 3.23987 12.7214 3.23987 12.7638C3.23987 12.8061 3.22578 12.8485 3.1976 12.8344H3.15534ZM3.15534 12.3827L3.18352 12.3686V12.3403L3.16943 12.3686V12.3827H3.15534ZM3.05673 12.8485C3.04264 12.8203 2.98629 12.8061 2.98629 12.8485L3.02855 12.8626L3.05673 12.8485ZM3.0849 12.6932C3.07082 12.7073 3.0849 12.7214 3.12717 12.7214C3.18352 12.7214 3.22578 12.6932 3.1976 12.665L3.14125 12.6085C3.02855 12.4674 3.00038 12.4532 2.92994 12.4674C2.90243 12.4805 2.87832 12.4998 2.85951 12.5238V12.5379L2.91586 12.5097H2.9722L2.98629 12.5379L3.01447 12.5662L3.04264 12.5944L3.05673 12.6226L3.07082 12.6509C3.09899 12.6509 3.09899 12.665 3.07082 12.6932H3.0849ZM3.49344 12.8626L3.45118 12.8767C3.45118 12.8908 3.45118 12.905 3.47935 12.905L3.52162 12.8908L3.49344 12.8626ZM3.54979 13.4555L3.5357 13.4837V13.4978L3.56388 13.4837V13.4555H3.54979ZM4.4373 10.7876C4.42662 10.7796 4.41714 10.7701 4.40913 10.7593V10.7735C4.40913 10.7876 4.40913 10.8017 4.4373 10.8017V10.7876ZM4.56409 10.5758C4.55 10.5335 4.50774 10.5194 4.50774 10.5617L4.53591 10.59L4.56409 10.5758ZM4.8881 10.5758C4.85993 10.5758 4.84584 10.5758 4.83175 10.5476C4.83175 10.5335 4.83175 10.5194 4.81766 10.5335C4.78949 10.5335 4.81766 10.5053 4.87401 10.4488C4.93036 10.3923 4.87401 10.4065 4.80358 10.4629C4.77693 10.4935 4.75334 10.5266 4.73314 10.5617C4.73314 10.59 4.70496 10.6041 4.70496 10.6041L4.67679 10.6323L4.64861 10.6605L4.63453 10.6888H4.71905C4.78949 10.6888 4.80358 10.6888 4.78949 10.717C4.74723 10.7735 4.78949 10.7452 4.84584 10.6888L4.90219 10.6323C4.87401 10.6464 4.87401 10.6323 4.90219 10.6041C4.93036 10.5617 4.93036 10.5617 4.8881 10.5617V10.5758ZM4.8881 10.6888C4.91628 10.6464 4.8881 10.6605 4.85993 10.7029C4.83175 10.7452 4.83175 10.7452 4.84584 10.7593H4.87401L4.8881 10.717V10.6605V10.6888ZM3.97242 10.3076L3.95833 10.3218V10.3359H3.97242V10.3076ZM4.15555 10.0959H4.12738C4.12738 10.0959 4.12738 10.11 4.12738 10.0959H4.15555V10.0818V10.0959ZM4.26825 9.67243H4.22599V9.70066L4.28234 9.67243H4.26825ZM4.35278 9.68655C4.35278 9.68655 4.3246 9.68655 4.3246 9.71478H4.35278V9.67243V9.68655ZM4.36686 9.60185V9.57362H4.35278C4.35278 9.54539 4.3246 9.51716 4.29643 9.50304V9.48893V9.4607V9.47481C4.26825 9.47481 4.25417 9.50304 4.22599 9.53127C4.21 9.56128 4.19113 9.58964 4.16964 9.61597C4.14147 9.6442 4.14147 9.6442 4.16964 9.61597L4.19782 9.63008H4.24008C4.28234 9.58774 4.29643 9.58774 4.31051 9.60185H4.36686ZM4.45139 9.60185L4.4373 9.61597H4.45139V9.60185ZM4.63453 9.22073L4.60635 9.24896L4.63453 9.22073C4.67679 9.1925 4.67679 9.1925 4.63453 9.22073ZM4.71905 9.30542H4.74723H4.71905ZM4.71905 9.26307L4.67679 9.27719C4.63453 9.30542 4.59226 9.36189 4.63453 9.36189C4.6627 9.36189 4.69088 9.33365 4.70496 9.29131L4.71905 9.26307ZM2.49323 10.5194C2.49323 10.5194 2.49323 10.4911 2.52141 10.477V10.4347L2.50732 10.4488L2.49323 10.5194ZM2.36644 10.2794V10.2371V10.2512L2.32418 10.2794C2.29601 10.3076 2.28192 10.3218 2.31009 10.3076L2.35236 10.2653L2.36644 10.2512V10.2794ZM3.77519 17.6902L3.78928 17.6479C3.81745 17.6479 3.81745 17.6479 3.80337 17.6761L3.81745 17.7043C3.84563 17.7043 3.84563 17.7043 3.83154 17.7326L3.81745 17.7467L3.80337 17.7608L3.83154 17.7749C3.85972 17.7749 3.8738 17.789 3.8738 17.8031L3.90198 17.8173C3.91607 17.8173 3.93015 17.8173 3.90198 17.8173C3.90198 17.789 3.90198 17.789 3.93015 17.8173L4.00059 17.8314C4.04285 17.8314 4.07103 17.8173 4.01468 17.8031C3.96001 17.7829 3.91148 17.7489 3.8738 17.7043C3.8738 17.6902 3.8738 17.6761 3.84563 17.662C3.81745 17.6479 3.81745 17.6479 3.84563 17.6479L3.83154 17.6055C3.80337 17.5491 3.80337 17.5349 3.83154 17.5349V17.5067C3.83154 17.4785 3.85972 17.4644 3.8738 17.4502C3.90198 17.4361 3.90198 17.3797 3.8738 17.3797C3.80337 17.3655 3.77519 17.2667 3.83154 17.2667L3.85972 17.2385V17.1397V17.1256V17.1115L3.81745 17.055C3.80337 17.0268 3.80337 17.0127 3.85972 17.0409C3.91607 17.055 3.91607 17.055 3.91607 17.0126V16.9562C3.91607 16.9421 3.91607 16.928 3.94424 16.9421C4.04285 16.9421 4.08512 16.9421 4.11329 16.8997V16.815L4.08512 16.7727C4.07663 16.7502 4.06198 16.7307 4.04285 16.7162L4.01468 16.6739H4.02877C4.05747 16.6992 4.09102 16.7184 4.12738 16.7303C4.19781 16.7444 4.2119 16.7303 4.24008 16.7021C4.26104 16.6726 4.27545 16.6389 4.28234 16.6033C4.28234 16.5186 4.31051 16.4621 4.3246 16.4904V16.5045L4.38095 16.4198C4.39707 16.3741 4.39707 16.3243 4.38095 16.2786L4.39504 16.1657C4.42321 16.1234 4.57818 16.0387 4.63453 16.0528C4.67679 16.0528 4.73314 16.0104 4.73314 15.9822L4.74723 15.8975L4.7754 15.8128V15.7422V15.4035C4.84584 15.3046 4.91628 15.2058 4.95854 15.0929C4.95854 15.0506 4.95854 14.9941 4.93036 14.9517C4.90219 14.8812 4.90219 14.8529 4.85993 14.8529C4.8065 14.8304 4.75848 14.7967 4.71905 14.7541C4.64861 14.6694 4.60635 14.6553 4.55 14.6412C4.51556 14.6386 4.482 14.629 4.45139 14.613C4.42321 14.5988 4.39504 14.5847 4.38095 14.613C4.35278 14.613 4.33869 14.613 4.33869 14.5706C4.33869 14.5424 4.31051 14.5142 4.24008 14.4718C4.20744 14.4526 4.17456 14.4338 4.14147 14.4153L4.11329 14.4718C4.0992 14.5142 4.08512 14.5283 4.07103 14.5142L4.08512 14.4577C4.12738 14.4153 4.11329 14.3871 4.05694 14.3589C4.02877 14.3589 4.00059 14.3589 3.9865 14.4012C3.97242 14.4436 3.97242 14.4577 3.95833 14.4012C3.95833 14.4012 3.95833 14.3448 3.9865 14.3024C4.02877 14.246 4.02877 14.246 3.9865 14.2177C3.96746 14.1871 3.95321 14.1538 3.94424 14.1189C3.94424 14.0766 3.90198 14.006 3.8738 13.9636C3.84563 13.8931 3.83154 13.8789 3.73293 13.8648C3.6484 13.8366 3.6484 13.8366 3.60614 13.7237C3.57797 13.6672 3.56388 13.639 3.5357 13.6249C3.50753 13.6249 3.50753 13.6249 3.52162 13.5825V13.526C3.49344 13.526 3.47935 13.4978 3.47935 13.4696C3.47935 13.4414 3.47935 13.4414 3.40892 13.4696H3.33848L3.28213 13.4414C3.25395 13.4414 3.23987 13.4414 3.22578 13.399C3.22578 13.3708 3.21169 13.3567 3.1976 13.3567L3.18352 13.3284V13.3425L3.15534 13.3708L3.11308 13.3849C3.07082 13.4272 3.07082 13.3849 3.11308 13.3425C3.15534 13.2861 3.14125 13.272 3.0849 13.3143L3.01447 13.3567H2.98629L2.95812 13.3849H2.92994L2.91586 13.4131L2.85951 13.4978C2.80316 13.5684 2.80316 13.5684 2.78907 13.526C2.77498 13.4555 2.74681 13.4414 2.69046 13.4696C2.64819 13.4978 2.63411 13.4978 2.62002 13.4696C2.61056 13.4424 2.6058 13.4137 2.60593 13.3849C2.60593 13.3284 2.60593 13.3143 2.66228 13.1873C2.70454 13.0743 2.71863 13.0461 2.70454 13.0179C2.70454 12.9896 2.69046 12.9755 2.63411 12.9755C2.52141 12.9755 2.52141 12.9755 2.54958 12.9332L2.60593 12.8344C2.60593 12.792 2.63411 12.7638 2.63411 12.7779L2.66228 12.7356C2.6791 12.7015 2.69791 12.6685 2.71863 12.6368C2.76089 12.5662 2.76089 12.5662 2.70454 12.5662C2.63411 12.5662 2.60593 12.6085 2.57776 12.665C2.56367 12.7214 2.50732 12.7779 2.49323 12.7638H2.45097C2.39462 12.792 2.36644 12.7638 2.38053 12.6226C2.38533 12.549 2.40448 12.4771 2.43688 12.4109L2.50732 12.2697L2.53549 12.1992C2.56367 12.1286 2.62002 12.0439 2.64819 12.058L2.69046 12.0157C2.73272 11.9733 2.80316 11.9733 2.85951 12.0157C2.88768 12.0157 2.88768 12.0157 2.90177 11.9733C2.91586 11.931 2.92994 11.931 2.98629 11.931C3.01447 11.931 3.04264 11.9451 3.05673 11.9733H3.0849C3.12717 11.9451 3.14125 12.0298 3.11308 12.0862L3.0849 12.1709V12.3121L3.12717 12.2697C3.16255 12.1888 3.18627 12.1033 3.1976 12.0157L3.22578 11.9168C3.22578 11.8745 3.29622 11.7898 3.3103 11.8039L3.36665 11.7475L3.43709 11.691C3.43709 11.691 3.46527 11.691 3.47935 11.6628L3.52162 11.6345C3.52162 11.6345 3.54979 11.6345 3.54979 11.6063V11.5781H3.57797V11.5498L3.60614 11.5075L3.62023 11.4651C3.62023 11.4369 3.6484 11.3381 3.67658 11.324V11.3522C3.6484 11.4087 3.6484 11.4228 3.67658 11.3804C3.68841 11.3629 3.69788 11.344 3.70475 11.324C3.70475 11.2957 3.71884 11.2957 3.73293 11.2957L3.78928 11.2393L3.84563 11.1828L3.8738 11.1687C3.8738 11.1687 3.8738 11.1405 3.93015 11.1405C3.9865 11.1264 4.00059 11.1122 3.9865 11.0981C3.9865 11.0417 4.05694 10.957 4.12738 10.9429L4.2119 10.8864C4.22511 10.8757 4.23926 10.8663 4.25417 10.8582H4.31051C4.35278 10.8299 4.35278 10.8299 4.31051 10.8582C4.29961 10.8751 4.2852 10.8896 4.26825 10.9005C4.25417 10.9005 4.22599 10.957 4.24008 10.9711L4.29643 10.9429C4.31793 10.9257 4.34161 10.9114 4.36686 10.9005C4.40913 10.9005 4.49365 10.844 4.50774 10.8158C4.50774 10.7876 4.50774 10.7876 4.50774 10.8158H4.53591C4.56409 10.8017 4.56409 10.7876 4.55 10.7876V10.7593C4.55 10.7311 4.55 10.7311 4.52183 10.7593C4.47956 10.8158 4.46548 10.8299 4.4373 10.8158C4.38095 10.8158 4.36686 10.7593 4.38095 10.7029V10.6605C4.35278 10.6605 4.36686 10.6605 4.38095 10.6605L4.45139 10.6041C4.45139 10.59 4.45139 10.5758 4.39504 10.5758C4.33869 10.5758 4.26825 10.6182 4.18373 10.7029L4.2119 10.6747C4.2687 10.6085 4.3352 10.5514 4.40913 10.5053C4.4373 10.4911 4.46548 10.477 4.55 10.4911C4.64861 10.4911 4.6627 10.4911 4.71905 10.4629C4.75392 10.4353 4.79171 10.4117 4.83175 10.3923C4.8881 10.3782 4.8881 10.3641 4.91628 10.3218V10.2371L4.8881 10.1947L4.90219 10.1665L4.87401 10.1524H4.84584L4.81766 10.1241V10.0253C4.82555 9.97861 4.82555 9.93089 4.81766 9.88417V9.77124L4.76131 9.82771C4.69088 9.9124 4.62044 9.94063 4.62044 9.89829H4.60635C4.57818 9.89829 4.57818 9.88417 4.60635 9.82771C4.64861 9.75713 4.64861 9.74301 4.60635 9.74301L4.59226 9.71478C4.59226 9.68655 4.56409 9.65832 4.53591 9.65832H4.40913L4.36686 9.75713C4.35427 9.80468 4.33006 9.84833 4.29643 9.88417C4.26825 9.9124 4.26825 9.92652 4.28234 9.94063C4.28234 9.96886 4.28234 10.0253 4.24008 10.0818L4.15555 10.1524L4.08512 10.1947L4.07103 10.2653C4.02877 10.3782 4.02877 10.3923 3.9865 10.4065C3.94424 10.4347 3.94424 10.4347 3.94424 10.3782V10.2935C4.01468 10.1665 4.01468 10.1524 3.94424 10.1665L3.90198 10.1524V10.1383L3.84563 10.0959C3.84563 10.0677 3.80337 10.0536 3.77519 10.0677C3.73293 10.0677 3.73293 10.0677 3.74702 10.0112V9.95475C3.71884 9.95475 3.74702 9.9124 3.80337 9.81359C3.8738 9.75713 3.94424 9.67243 3.9865 9.67243L4.01468 9.65832C4.01468 9.63008 4.07103 9.60185 4.0992 9.58774C4.12738 9.58774 4.28234 9.44658 4.26825 9.43246H4.29643L4.3246 9.44658C4.3246 9.4607 4.3246 9.4607 4.3246 9.44658L4.36686 9.41835C4.39504 9.41835 4.42321 9.39012 4.4373 9.376L4.46548 9.36189V9.33365L4.47956 9.27719L4.50774 9.26307V9.22073L4.46548 9.20661L4.53591 9.1925C4.60635 9.1925 4.63453 9.17838 4.63453 9.16426C4.64861 9.12192 4.64861 9.13603 4.67679 9.16426V9.1925H4.69088C4.70496 9.1925 4.71905 9.1925 4.70496 9.20661C4.70496 9.20661 4.70496 9.23484 4.73314 9.23484C4.78949 9.27719 4.76131 9.33365 4.67679 9.376L4.64861 9.41835C4.64861 9.44658 4.64861 9.44658 4.60635 9.4607H4.55L4.46548 9.51716H4.53591L4.63453 9.53127L4.64861 9.55951C4.64861 9.60185 4.64861 9.6442 4.67679 9.61597H4.70496L4.73314 9.65832L4.7754 9.67243C4.80358 9.68655 4.80358 9.6442 4.7754 9.60185C4.74723 9.55951 4.7754 9.54539 4.80358 9.58774C4.84584 9.61597 4.84584 9.61597 4.87401 9.58774C4.90219 9.55951 4.90219 9.54539 4.90219 9.50304L4.8881 9.4607L4.85993 9.43246L4.8881 9.376C4.91628 9.34777 4.93036 9.36189 4.94445 9.41835C4.94445 9.4607 4.98671 9.4607 5.0008 9.41835H5.02898L5.08533 9.376L5.14168 9.33365L5.09941 9.31954C5.07124 9.31954 5.05715 9.30542 5.05715 9.29131C5.05715 9.29131 5.05715 9.26307 5.02898 9.26307C4.95854 9.26307 4.94445 9.1925 5.0008 9.17838C5.01489 9.17838 5.01489 9.17838 5.0008 9.17838V9.15015C5.01489 9.15015 5.02898 9.15015 5.02898 9.12192H5.0008C5.0008 9.12192 4.98671 9.12192 5.0008 9.12192C5.0008 9.09368 5.0008 9.09369 4.97263 9.09369H4.95854C4.95854 9.06545 4.91628 9.03722 4.90219 9.06545C4.8881 9.06545 4.87401 9.06545 4.85993 9.03722C4.85993 9.00899 4.84584 8.99487 4.83175 8.99487C4.83175 8.99487 4.81766 8.99487 4.83175 8.99487C4.84584 8.95253 4.80358 8.93841 4.76131 8.93841L4.70496 8.96664C4.70496 8.98076 4.70496 8.98076 4.70496 8.96664H4.64861C4.57818 8.99487 4.53591 9.00899 4.52183 9.05134V9.09369C4.50774 9.12192 4.50774 9.12192 4.49365 9.1078V9.06545L4.52183 9.02311L4.55 8.99487C4.59226 8.96664 4.59226 8.96664 4.55 8.98076C4.49365 8.98076 4.45139 9.00899 4.40913 9.06545C4.35278 9.12192 4.35278 9.12192 4.35278 9.15015C4.35278 9.17838 4.36686 9.1925 4.40913 9.1925C4.4373 9.1925 4.46548 9.1925 4.45139 9.20661C4.42321 9.22073 4.40913 9.24896 4.42321 9.24896L4.39504 9.29131L4.33869 9.31954L4.31051 9.34777C4.31051 9.376 4.28234 9.39012 4.28234 9.36189L4.29643 9.31954V9.27719L4.26825 9.29131C4.22599 9.33365 4.2119 9.33365 4.24008 9.29131V9.26307C4.2119 9.26307 4.2119 9.24896 4.24008 9.22073V9.13603L4.26825 9.09369L4.3246 9.06545C4.3246 9.06545 4.42321 9.00899 4.4373 8.98076L4.28234 9.02311C4.2618 9.03607 4.24675 9.05618 4.24008 9.07957C4.24008 9.12192 4.2119 9.13603 4.18373 9.16426C4.15991 9.17726 4.14035 9.19686 4.12738 9.22073C4.0992 9.24896 4.12738 9.27719 4.15555 9.27719V9.29131L4.14147 9.30542C4.15555 9.30542 4.14147 9.34777 4.08512 9.36189C4.06635 9.37037 4.05132 9.38543 4.04285 9.40423C4.04285 9.43246 4.02877 9.43246 4.01468 9.43246V9.39012L4.02877 9.34777V9.33365H4.07103V9.30542C4.07103 9.26307 4.05694 9.26307 4.01468 9.30542L3.9865 9.31954C4.01468 9.31954 4.01468 9.33365 3.9865 9.36189C3.93015 9.40423 3.80337 9.41835 3.78928 9.39012C3.78928 9.36189 3.70475 9.39012 3.70475 9.40423H3.73293L3.77519 9.39012L3.74702 9.40423C3.73422 9.4092 3.7226 9.41678 3.7129 9.42651C3.70319 9.43623 3.69562 9.44787 3.69067 9.4607L3.66249 9.50304V9.48893C3.67658 9.44658 3.6484 9.44658 3.56388 9.47481H3.50753L3.5357 9.44658C3.57797 9.44658 3.5357 9.41835 3.50753 9.43246C3.48443 9.43844 3.46019 9.43844 3.43709 9.43246H3.33848C3.3103 9.4607 3.29622 9.4607 3.29622 9.43246C3.29622 9.41835 3.29622 9.41835 3.29622 9.43246C3.26804 9.43246 3.23987 9.4607 3.22578 9.47481C3.17078 9.49013 3.1185 9.51394 3.07082 9.54539L3.01447 9.57362C2.97221 9.55951 3.01447 9.53127 2.91586 9.55951H2.88768H2.84542H2.83133L2.80316 9.58774L2.76089 9.61597C2.67315 9.70712 2.58858 9.80129 2.50732 9.89829L2.43688 9.96886L2.46506 9.95475C2.47914 9.94063 2.47914 9.94063 2.46506 9.95475L2.45097 9.9971L2.39462 10.0394C2.34638 10.1139 2.29942 10.1892 2.25374 10.2653H2.26783L2.29601 10.2512C2.32418 10.2512 2.32418 10.2512 2.29601 10.2794C2.27028 10.31 2.242 10.3383 2.21148 10.3641C2.18234 10.3864 2.15414 10.41 2.12696 10.4347L2.09878 10.4629L2.12696 10.4347C2.15513 10.4347 2.18331 10.4065 2.19739 10.3782C2.21547 10.3675 2.23431 10.358 2.25374 10.35V10.3218L2.31009 10.2935C2.3395 10.2666 2.3677 10.2383 2.39462 10.2088C2.38053 10.2088 2.39462 10.1806 2.42279 10.1665L2.45097 10.1383C2.4772 10.1205 2.50561 10.1063 2.53549 10.0959L2.45097 10.1806C2.40871 10.2229 2.45097 10.2088 2.47914 10.1806C2.49161 10.1649 2.50578 10.1507 2.52141 10.1383L2.54958 10.0959C2.56367 10.0677 2.57776 10.0677 2.57776 10.0959H2.59184V10.1665C2.59184 10.1947 2.59184 10.1947 2.62002 10.1665C2.63411 10.1524 2.62002 10.1665 2.62002 10.1665L2.56367 10.2935L2.62002 10.1947V10.1806L2.64819 10.1524L2.63411 10.1947L2.60593 10.2229V10.2371L2.63411 10.2088L2.64819 10.1947L2.60593 10.2512L2.59184 10.2794V10.3076L2.56367 10.3641L2.57776 10.35L2.59184 10.3218V10.3076C2.59184 10.2794 2.60593 10.2653 2.62002 10.2653C2.62002 10.2935 2.59184 10.3641 2.62002 10.35L2.59184 10.4065C2.54958 10.4629 2.54958 10.477 2.59184 10.4347V10.4488L2.56367 10.4911V10.5053L2.54958 10.5476C2.53549 10.5758 2.52141 10.59 2.54958 10.59V10.6041H2.49323C2.47914 10.6323 2.49323 10.7452 2.52141 10.7452V10.6888L2.54958 10.6182V10.7452C2.52141 10.7735 2.52141 10.7735 2.49323 10.7452L2.46506 10.7876C2.44237 10.8422 2.41404 10.8942 2.38053 10.9429C2.31009 11.0558 2.23966 11.1687 2.19739 11.2816V11.324L2.16922 11.4087V11.4228L2.12696 11.5357L2.11287 11.6204V11.6486C2.14104 11.6628 2.14104 11.7051 2.11287 11.8322C2.09805 11.8876 2.08861 11.9443 2.08469 12.0015C2.08469 12.0439 2.08469 12.0439 2.05652 12.0721C2.02834 12.0862 2.02834 12.0721 2.05652 12.185C2.06031 12.2037 2.06031 12.2229 2.05652 12.2415C2.02834 12.2839 2.04243 12.425 2.05652 12.3968V12.3262L2.07061 12.2415C2.09114 12.182 2.1053 12.1205 2.11287 12.058V11.9451L2.14104 11.8745C2.16922 11.8039 2.16922 11.8039 2.18331 11.8322V11.9168C2.15513 11.9592 2.15513 12.0298 2.15513 12.0862V12.3121C2.15513 12.425 2.14104 12.5097 2.11287 12.5662L2.08469 12.6226C2.08469 12.6509 2.09878 12.7356 2.12696 12.7638L2.15513 12.792L2.21148 12.8908C2.25374 12.9473 2.25374 12.9473 2.29601 12.9191C2.33827 12.8908 2.35236 12.905 2.36644 13.0038C2.36644 13.0602 2.43688 13.1308 2.49323 13.1449L2.50732 13.2296V13.3849C2.53549 13.399 2.54958 13.4414 2.53549 13.4696C2.53549 13.4978 2.53549 13.4978 2.56367 13.5119L2.60593 13.5543C2.62002 13.5966 2.64819 13.5966 2.64819 13.5543C2.64819 13.526 2.71863 13.4696 2.73272 13.4837V13.5825C2.73272 13.6813 2.70454 13.9495 2.66228 13.9636V14.006C2.66228 14.0483 2.64819 14.0624 2.63411 14.0624C2.62002 14.0624 2.59184 14.2318 2.60593 14.2883C2.60593 14.3165 2.62002 14.3306 2.63411 14.3306C2.66228 14.3306 2.66228 14.3871 2.63411 14.4153C2.60593 14.4577 2.63411 14.5847 2.67637 14.6553L2.77498 14.8388C2.81536 14.9636 2.86239 15.0861 2.91586 15.2058C2.91586 15.2341 3.00038 15.3329 3.0849 15.4035C3.13468 15.437 3.17675 15.4808 3.20833 15.5319C3.23991 15.583 3.26026 15.6403 3.26804 15.6999C3.29622 15.841 3.32439 16.0104 3.32439 16.1657L3.33848 16.2786V16.3069L3.35257 16.3916C3.38074 16.4621 3.39483 16.5327 3.38074 16.6739L3.39483 16.815C3.39483 16.8433 3.423 16.8715 3.40892 16.8856V16.9562L3.43709 17.055V17.0832C3.45118 17.0832 3.46527 17.055 3.45118 17.0268V16.9985C3.47935 16.9985 3.49344 17.0409 3.50753 17.1397V17.2385H3.45118V17.2667C3.50753 17.2667 3.52162 17.295 3.5357 17.3938L3.50753 17.3655L3.47935 17.3373V17.3655C3.50753 17.3655 3.52162 17.3938 3.52162 17.422C3.52162 17.4644 3.52162 17.4644 3.5357 17.4502L3.54979 17.422V17.5067H3.57797L3.63432 17.5914L3.67658 17.662V17.6761L3.71884 17.6902H3.73293L3.74702 17.7184C3.7611 17.7184 3.77519 17.7043 3.7611 17.6761L3.77519 17.6902ZM2.22557 14.133V14.1048V14.133ZM1.38032 12.5379V12.5803V12.5379ZM3.29622 9.29131H3.3103C3.33848 9.30542 3.39483 9.29131 3.40892 9.26307L3.50753 9.1925L3.5357 9.16426L3.49344 9.20661L3.45118 9.24896H3.46527C3.49344 9.24896 3.50753 9.24896 3.46527 9.26307L3.43709 9.29131H3.50753L3.57797 9.27719L3.5357 9.29131L3.46527 9.31954C3.45118 9.31954 3.43709 9.31954 3.423 9.34777C3.423 9.36189 3.45118 9.376 3.46527 9.36189L3.47935 9.376C3.47935 9.40423 3.62023 9.34777 3.66249 9.31954C3.67658 9.30542 3.69067 9.29131 3.70475 9.30542C3.74702 9.31954 3.84563 9.29131 3.81745 9.26307L3.84563 9.24896L3.8738 9.23484L3.85972 9.22073L3.83154 9.20661V9.15015C3.84563 9.09368 3.84563 9.07957 3.8738 9.06545L3.90198 9.03722L3.84563 9.05134L3.80337 9.07957L3.77519 9.12192C3.74702 9.16426 3.73293 9.17838 3.74702 9.13603C3.74702 9.1078 3.74702 9.1078 3.70475 9.13603H3.67658H3.59205C3.62023 9.1078 3.59205 9.09369 3.56388 9.1078H3.50753C3.48263 9.11316 3.45881 9.1227 3.43709 9.13603L3.40892 9.16426L3.35257 9.23484L3.29622 9.27719V9.29131ZM3.52162 9.03722H3.54979L3.62023 8.99487L3.6484 8.96664C3.67658 8.95253 3.69067 8.93841 3.67658 8.96664L3.74702 8.91018C3.77519 8.88195 3.69067 8.91018 3.60614 8.96664L3.5357 9.02311L3.52162 9.03722ZM3.63432 9.00899C3.63432 9.00899 3.6484 9.00899 3.63432 9.00899L3.62023 8.99487C3.60614 9.02311 3.62023 9.00899 3.6484 8.99487L3.63432 9.00899ZM3.74702 8.95253C3.70475 8.95253 3.69067 8.96664 3.66249 9.00899L3.62023 9.02311H3.66249C3.67658 9.02311 3.69067 9.02311 3.70475 8.99487H3.71884V9.00899C3.69067 9.00899 3.69067 9.02311 3.69067 9.03722L3.7611 9.00899C3.79205 8.99073 3.82518 8.9765 3.85972 8.96664C3.90198 8.96664 3.94424 8.9243 3.95833 8.89606H3.90198C3.90198 8.85372 3.90198 8.85372 3.8738 8.89606L3.85972 8.9243L3.83154 8.95253H3.78928C3.78928 8.93841 3.7611 8.92429 3.74702 8.93841V8.95253ZM3.78928 8.86783H3.80337H3.78928ZM3.85972 8.86783L3.90198 8.8396C3.88112 8.84411 3.86174 8.85382 3.84563 8.86783H3.8738H3.85972ZM3.90198 8.81137C3.94424 8.81137 3.95833 8.79725 3.94424 8.78314C3.94424 8.78314 3.91607 8.78314 3.90198 8.81137C3.85972 8.81137 3.85972 8.82548 3.90198 8.81137ZM3.97242 8.95253C3.9865 8.9243 4.00059 8.9243 3.97242 8.9243V8.93841V8.95253ZM4.00059 9.02311V9.05134H3.95833H3.93015V9.07957L3.97242 9.1078C3.97242 9.13603 3.9865 9.13603 4.00059 9.1078L4.04285 9.09369C4.07103 9.09369 4.0992 9.03722 4.08512 9.03722C4.05694 9.03722 4.05694 9.02311 4.08512 8.99487L4.11329 8.96664L4.02877 8.99487C4.00059 8.99487 3.97242 9.03722 4.00059 9.02311ZM4.00059 8.88195H4.02877C4.02877 8.91018 4.04285 8.89606 4.07103 8.88195C4.0992 8.88195 4.11329 8.88195 4.08512 8.89606V8.9243C4.10713 8.91914 4.12758 8.90876 4.14474 8.89401C4.16191 8.87927 4.17528 8.86061 4.18373 8.8396C4.19782 8.81137 4.18373 8.81137 4.15555 8.81137L4.12738 8.8396C4.12738 8.86783 4.0992 8.86783 4.0992 8.8396L4.08512 8.85372C4.07103 8.88195 4.05694 8.88195 4.05694 8.85372L4.01468 8.86783L4.00059 8.88195ZM4.02877 8.82548V8.81137C4.02877 8.79725 4.02877 8.81137 4.02877 8.81137V8.82548ZM4.0992 8.72667C4.12738 8.72667 4.12738 8.72667 4.0992 8.74079H4.16964C4.16964 8.76902 4.19782 8.75491 4.2119 8.74079C4.22599 8.68433 4.2119 8.68433 4.18373 8.68433H4.12738L4.08512 8.69844L4.0992 8.71256V8.72667ZM4.26825 8.85372C4.26825 8.82548 4.26825 8.8396 4.2119 8.85372C4.2119 8.86783 4.2119 8.88195 4.18373 8.88195H4.19782C4.22599 8.91018 4.28234 8.88195 4.26825 8.85372ZM4.29643 8.79725L4.33869 8.81137V8.8396L4.31051 8.85372H4.47956C4.54675 8.84039 4.61272 8.8215 4.67679 8.79725L4.70496 8.78314L4.69088 8.75491L4.55 8.78314C4.4373 8.81137 4.40913 8.81137 4.40913 8.78314L4.35278 8.76902H4.28234H4.25417C4.24008 8.79725 4.25416 8.81137 4.29643 8.79725ZM4.29643 8.72667H4.33869V8.68433V8.65609H4.29643L4.26825 8.68433C4.25417 8.71256 4.26825 8.72667 4.28234 8.72667H4.29643ZM4.26825 8.64198H4.28234V8.62786H4.26825V8.64198ZM4.4373 8.74079H4.42321H4.4373ZM4.4373 8.71256H4.45139C4.45139 8.68433 4.4373 8.68433 4.42321 8.71256H4.4373ZM4.42321 8.61375C4.45139 8.61375 4.46548 8.61375 4.42321 8.61375C4.39504 8.64198 4.39504 8.65609 4.42321 8.65609C4.45139 8.65609 4.47956 8.65609 4.56409 8.61375H4.57818C4.56409 8.62786 4.56409 8.64198 4.60635 8.62786H4.62044V8.65609H4.57818C4.53591 8.65609 4.52183 8.67021 4.53591 8.68433H4.49365C4.40913 8.72667 4.4373 8.72667 4.60635 8.68433C4.78949 8.65609 4.81766 8.64198 4.78949 8.62786C4.76131 8.62786 4.7754 8.62786 4.78949 8.61375L4.83175 8.5714L4.87401 8.55728L4.93036 8.51494L4.94445 8.50082C4.91628 8.50082 4.94445 8.47259 4.95854 8.45847C5.0008 8.45847 5.09941 8.41613 5.18394 8.37378C5.22038 8.35279 5.25801 8.33393 5.29664 8.31732L5.3389 8.28908L5.40934 8.24674C5.4516 8.24674 5.49386 8.2185 5.49386 8.20439C5.35299 8.14793 5.09941 8.23262 4.97263 8.27497C4.92778 8.28733 4.88504 8.30636 4.84584 8.33143C4.83326 8.33984 4.81867 8.34471 4.80358 8.34555L4.74723 8.35966C4.72078 8.37701 4.69242 8.39122 4.6627 8.40201C4.60635 8.41613 4.57818 8.43024 4.59226 8.45847H4.67679L4.70496 8.43024V8.44436C4.67679 8.45847 4.67679 8.45847 4.70496 8.44436H4.83175L4.73314 8.45847L4.64861 8.50082H4.63453H4.60635H4.59226L4.50774 8.47259C4.45139 8.4867 4.4373 8.50082 4.4373 8.51494L4.40913 8.52905L4.38095 8.55728C4.35278 8.58552 4.38095 8.59963 4.42321 8.58552V8.61375ZM5.88831 8.07735H5.93057H5.87422H5.88831ZM7.1421 9.31954C7.1421 9.30542 7.05757 9.20661 7.0294 9.20661V9.23484L6.94487 9.26307C6.91055 9.26636 6.87713 9.27593 6.84626 9.29131C6.84626 9.29131 6.81808 9.29131 6.81808 9.26307C6.804 9.24896 6.78991 9.23484 6.76173 9.26307C6.70539 9.26307 6.70538 9.30542 6.74765 9.30542C6.77582 9.30542 6.77582 9.30542 6.76173 9.33365V9.36189C6.78991 9.36189 6.78991 9.39012 6.76173 9.40423L6.83217 9.43246C6.93079 9.43246 7.11392 9.40423 7.1421 9.31954ZM6.49407 9.85594L6.50816 9.84182V9.81359L6.49407 9.84182V9.85594ZM6.4659 10.1665L6.47999 10.1241C6.49407 10.1241 6.50816 10.0959 6.49407 10.0818C6.49407 10.0253 6.39546 10.0394 6.38137 10.0818L6.33911 10.0959C6.31094 10.0959 6.29685 10.11 6.29685 10.1383V10.2371C6.25459 10.2653 6.25459 10.2794 6.26867 10.2935H6.32502L6.39546 10.2653C6.43772 10.2653 6.47999 10.1947 6.4659 10.1524V10.1665ZM6.804 10.2794C6.84626 10.2512 6.83217 10.2088 6.804 10.2088C6.78991 10.2088 6.76173 10.1806 6.76173 10.1524L6.73356 10.0959L6.70539 10.0394L6.67721 9.98298C6.64904 9.98298 6.64904 9.98298 6.67721 9.94063C6.71947 9.87005 6.71947 9.84182 6.66312 9.85594C6.60677 9.85594 6.60677 9.85594 6.64904 9.81359C6.66312 9.79948 6.66312 9.79948 6.63495 9.78536L6.5786 9.81359L6.53634 9.89829L6.52225 9.95475V10.0112C6.55042 9.95475 6.56451 9.98298 6.55042 10.0394C6.52225 10.0818 6.53634 10.0959 6.56451 10.0818H6.60677V10.1524C6.60677 10.1806 6.59269 10.1947 6.56451 10.1947C6.53634 10.1947 6.53634 10.1947 6.55042 10.2229L6.53634 10.2653C6.50816 10.2653 6.49407 10.2935 6.49407 10.3076H6.56451C6.59269 10.3218 6.60677 10.3359 6.56451 10.3359C6.53791 10.344 6.51372 10.3585 6.49407 10.3782C6.4659 10.4206 6.4659 10.4206 6.49407 10.4206L6.59269 10.3923L6.71947 10.3641H6.77582V10.3359L6.804 10.2794ZM7.17027 8.2185L7.18436 8.24674V8.26085C7.18436 8.28908 7.26888 8.31732 7.29706 8.28908H7.35341L7.31115 8.31732C7.26888 8.31732 7.2548 8.33143 7.28297 8.34555C7.31115 8.34555 7.31115 8.35966 7.29706 8.35966L7.32523 8.40201C7.38158 8.43024 7.38158 8.43024 7.39567 8.40201C7.39567 8.38789 7.40976 8.35966 7.42385 8.37378L7.45202 8.33143C7.45202 8.3032 7.4802 8.28908 7.49428 8.28908C7.52246 8.28908 7.55063 8.33143 7.55063 8.35966C7.55063 8.38789 7.63516 8.38789 7.66333 8.35966V8.34555L7.5929 8.31732C7.56224 8.29485 7.52916 8.27591 7.49428 8.26085L7.45202 8.23262H7.42385L7.40976 8.2185C7.40976 8.19027 7.35341 8.17616 7.35341 8.20439V8.23262H7.33932C7.31115 8.20439 7.15618 8.20439 7.17027 8.23262V8.2185ZM7.52246 8.2185L7.60698 8.24674C7.63516 8.26085 7.76195 8.23262 7.74786 8.20439L7.60698 8.17616H7.50837C7.40976 8.17616 7.42385 8.20439 7.50837 8.2185H7.52246ZM8.67763 8.33143C8.67763 8.35966 8.67763 8.35966 8.73398 8.34555L8.79033 8.33143H8.67763ZM8.87486 9.09369V9.12192C8.90303 9.13603 8.93121 9.12192 8.93121 9.09369C8.93121 9.07957 8.87486 9.06545 8.87486 9.09369ZM8.98756 8.95253C9.01573 8.95253 9.02982 8.98076 9.04391 8.99487L9.12843 9.02311H9.18478C9.1662 9.00872 9.14742 8.9946 9.12843 8.98076C9.10624 8.96569 9.08712 8.94653 9.07208 8.9243C9.07208 8.89606 9.1566 8.76902 9.18478 8.78314L9.19887 8.75491C9.19887 8.75491 9.25522 8.72667 9.382 8.71256C9.42427 8.71256 9.45244 8.69844 9.43835 8.68433C9.43835 8.67021 9.36792 8.65609 9.33974 8.67021H9.26931C9.18478 8.67021 9.07208 8.69844 9.05799 8.75491C9.04391 8.76902 9.02982 8.79725 9.01573 8.78314V8.81137L9.00164 8.8396L8.97347 8.88195C8.97347 8.89606 8.97347 8.91018 8.94529 8.91018C8.91712 8.91018 8.95938 8.95253 8.98756 8.96664V8.95253ZM8.98756 8.38789C8.98756 8.41613 9.00164 8.41613 9.01573 8.38789V8.37378L8.98756 8.38789ZM9.05799 8.38789H9.14252L9.08617 8.37378H9.05799V8.38789ZM9.18478 8.38789H9.21295C9.22704 8.38789 9.22704 8.38789 9.21295 8.38789H9.18478C9.17069 8.38789 9.17069 8.38789 9.18478 8.38789ZM10.1005 8.64198H10.1427C10.1427 8.67021 10.185 8.69844 10.2554 8.72667C10.3259 8.75491 10.3259 8.75491 10.3118 8.72667C10.3118 8.68433 10.2977 8.68433 10.2695 8.67021C10.2413 8.67021 10.2273 8.64198 10.2273 8.64198C10.2132 8.59963 10.0864 8.55728 10.0864 8.58552V8.61375C10.0582 8.62786 10.0723 8.62786 10.1005 8.64198ZM10.34 8.78314L10.4245 8.81137C10.4479 8.81432 10.4715 8.81432 10.4949 8.81137L10.4527 8.76902L10.4104 8.75491C10.4104 8.72667 10.3681 8.74079 10.354 8.75491V8.79725L10.34 8.78314ZM10.8189 9.1078C10.8048 9.1078 10.8048 9.1078 10.8189 9.1078V9.13603H10.833L10.8189 9.1078ZM11.4247 9.29131C11.4529 9.31954 11.5656 9.34777 11.5656 9.33365L11.481 9.27719C11.457 9.26917 11.4335 9.25974 11.4106 9.24896L11.3965 9.23484L11.4247 9.29131ZM11.5233 9.39012L11.5515 9.41835C11.5797 9.44658 11.5937 9.44658 11.5797 9.41835L11.5233 9.39012ZM11.6078 9.36189L11.6501 9.39012L11.6219 9.36189H11.6078C11.5797 9.34777 11.5797 9.34777 11.6078 9.36189ZM12.4249 10.8582V10.844V10.8582ZM12.4249 11.2252L12.3826 11.1828C12.3404 11.1122 12.3263 11.1122 12.3545 11.1546L12.3826 11.2534C12.3685 11.2534 12.3826 11.3099 12.3826 11.3522H12.3967V11.3381V11.324C12.3967 11.2957 12.3967 11.3099 12.4249 11.324H12.439L12.4531 11.2957C12.4812 11.2957 12.4531 11.2393 12.4249 11.2252ZM12.4953 11.5498C12.4805 11.4857 12.4568 11.4239 12.4249 11.3663V11.3946C12.4249 11.3946 12.4249 11.4087 12.4249 11.3946L12.439 11.4793C12.4531 11.5357 12.4672 11.6204 12.4531 11.6486H12.439V11.6345C12.439 11.7192 12.439 11.7333 12.4108 11.7333C12.3826 11.7333 12.3685 11.7616 12.3685 11.8463V11.9027L12.3967 11.9451C12.4249 12.0298 12.439 12.0298 12.4249 11.9451C12.4249 11.8886 12.4249 11.8886 12.3967 11.8604C12.3826 11.8463 12.3685 11.818 12.3967 11.8322V11.7898C12.4249 11.7898 12.439 11.8039 12.4249 11.8322V11.8745C12.4249 11.9027 12.4249 11.9027 12.439 11.8745V11.8604C12.4672 11.8745 12.4531 11.8322 12.439 11.8039V11.7757L12.4672 11.8039C12.4672 11.8604 12.4953 11.8604 12.4812 11.8039C12.4812 11.7757 12.4812 11.7757 12.5094 11.7757L12.5235 11.7616C12.5235 11.7333 12.5235 11.7333 12.5376 11.7616V11.691C12.5193 11.6405 12.5052 11.5885 12.4953 11.5357V11.5498ZM12.5235 13.1026C12.4953 13.1026 12.4672 13.032 12.4672 12.9755V12.8908L12.4249 12.8344L12.4108 12.8626V12.9191L12.4249 12.9614L12.439 13.032L12.4672 13.0602V13.0885L12.4953 13.1167H12.5235C12.5235 13.1449 12.5235 13.1308 12.5235 13.1167L12.5517 13.1308C12.5799 13.1732 12.5799 13.1732 12.5658 13.1308L12.5235 13.0885V13.1026ZM12.5658 13.2155L12.5799 13.2296C12.5799 13.2014 12.5658 13.2014 12.5658 13.2155ZM12.608 13.2296V13.272L12.6221 13.3143C12.6362 13.3425 12.6503 13.3425 12.6362 13.3143C12.6362 13.2296 12.6221 13.2014 12.608 13.2014V13.2296ZM12.4531 14.4718H12.4672C12.5094 14.4718 12.5094 14.4436 12.4812 14.4577H12.4531V14.4718ZM12.608 13.3425C12.608 13.3425 12.608 13.3567 12.608 13.3425L12.6221 13.3708H12.6362L12.6221 13.3425C12.608 13.3143 12.608 13.3143 12.608 13.3425ZM12.608 13.3708C12.608 13.3002 12.5799 13.2578 12.5658 13.2578V13.3143C12.5939 13.2861 12.5939 13.2861 12.5939 13.3284V13.3567L12.608 13.3708ZM12.5094 13.2014C12.5235 13.2437 12.5235 13.2296 12.5094 13.2014C12.5137 13.1828 12.5137 13.1635 12.5094 13.1449H12.4812L12.5094 13.2014ZM12.5094 13.399V13.3143L12.4812 13.3849C12.4812 13.4837 12.4812 13.4837 12.4953 13.3849L12.5094 13.399ZM12.2981 12.3827V12.4532L12.3122 12.5521L12.3404 12.5944V12.5521C12.3328 12.4942 12.3186 12.4373 12.2981 12.3827ZM12.1431 10.6182C12.1431 10.6182 12.1572 10.7029 12.1854 10.717L12.2558 10.9146L12.3263 11.0558H12.3404V11.0275C12.3252 11.0095 12.3111 10.9907 12.2981 10.9711C12.2699 10.9287 12.2699 10.8864 12.284 10.8864L12.2699 10.844C12.2202 10.7682 12.1778 10.6879 12.1431 10.6041C12.1291 10.5617 12.115 10.5617 12.1431 10.5758V10.6182ZM12.284 14.4295H12.3122L12.2981 14.4153L12.284 14.4295ZM12.2136 14.1895V14.2036V14.1895ZM12.1713 14.1895V14.1471C12.1713 14.1048 12.1713 14.1048 12.1572 14.1189V14.1895H12.1713ZM12.1572 14.4718H12.2136C12.2558 14.5 12.3545 14.4718 12.3545 14.4718L12.3263 14.4436C12.3122 14.4436 12.2981 14.4436 12.2981 14.4153H12.2136L12.1431 14.4012C12.1431 14.373 12.0868 14.3871 12.0727 14.4012C12.0727 14.4436 12.0868 14.4718 12.1291 14.4718H12.1572ZM11.9459 13.9919V13.9778V13.9919ZM11.9459 14.1613L11.96 14.1471V14.1189V14.1613H11.9459ZM11.9882 13.9778V14.0483L12.0164 14.1613C12.0164 14.2318 12.0727 14.3871 12.0868 14.373L12.1291 14.2883C12.1572 14.2036 12.1572 14.2036 12.1291 14.1471C12.1207 14.1147 12.1207 14.0807 12.1291 14.0483L12.115 13.9919C12.0999 13.9738 12.0858 13.9549 12.0727 13.9354L12.0445 13.9072L12.0023 13.8084C11.9882 13.766 11.9177 13.7237 11.9177 13.7237H11.8755C11.8755 13.7096 11.8614 13.7237 11.8755 13.7237L11.9318 13.8648L11.9741 13.9778H11.9882ZM12.3826 14.4577L12.3685 14.4859V14.4577H12.3826ZM12.4672 14.0907L12.4812 14.0483L12.5094 13.9636L12.5517 13.9213C12.5517 13.9072 12.5799 13.8789 12.5517 13.8789V13.8084V13.7519V13.7378L12.5658 13.7096V13.6813V13.6531C12.5939 13.6531 12.5939 13.6531 12.5658 13.639C12.5553 13.6207 12.5459 13.6018 12.5376 13.5825C12.5094 13.5402 12.5094 13.5543 12.4953 13.6249L12.4812 13.6954L12.4672 13.7378C12.4516 13.7637 12.4327 13.7875 12.4108 13.8084C12.3922 13.8233 12.3776 13.8427 12.3685 13.8648C12.3685 13.8931 12.3685 13.8931 12.3404 13.8931C12.3263 13.8931 12.3122 13.8931 12.2981 13.9213V14.1754H12.3545C12.3826 14.1754 12.3967 14.1754 12.3967 14.2036H12.4108C12.4393 14.1717 12.4588 14.1327 12.4672 14.0907ZM12.4249 14.4436L12.4108 14.4718L12.3826 14.4859C12.3826 14.5142 12.3826 14.5142 12.3826 14.4859H12.4249V14.4436ZM12.4249 14.5142L12.439 14.5283C12.439 14.5565 12.4672 14.5565 12.4672 14.5283C12.4672 14.5142 12.4672 14.5 12.439 14.5142H12.4249ZM12.6221 14.4153C12.5867 14.4412 12.5577 14.4751 12.5376 14.5142C12.5376 14.5424 12.5376 14.5424 12.5799 14.4859C12.5911 14.4651 12.6053 14.4461 12.6221 14.4295L12.6362 14.4153C12.6362 14.3871 12.6362 14.3871 12.6221 14.4153ZM12.6926 13.8507C12.6926 13.8789 12.6362 13.8931 12.6221 13.8648L12.5658 13.9636V14.006C12.5401 14.0589 12.5257 14.1166 12.5235 14.1754L12.5094 14.246V14.2883L12.5376 14.1895C12.5376 14.1471 12.5658 14.1189 12.5658 14.1189V14.2036C12.5939 14.1754 12.608 14.1754 12.5799 14.2036V14.2601L12.5939 14.1754V14.1048V14.0483L12.6221 14.006L12.6503 13.9778C12.6503 13.9778 12.6221 13.9778 12.608 14.006H12.5799V13.9495C12.5799 13.9213 12.608 13.9072 12.6362 13.9213C12.6785 13.9213 12.6785 13.9072 12.6926 13.8789C12.7207 13.8366 12.7207 13.8225 12.6926 13.8648V13.8507ZM12.6926 14.5283V14.5565C12.6644 14.5565 12.6644 14.5565 12.6926 14.5565V14.5283ZM12.7066 14.1048L12.6785 14.1189H12.7066V14.1048ZM12.6503 13.4414H12.6362V13.5119C12.6362 13.5119 12.6362 13.526 12.6362 13.5119L12.6503 13.4837L12.6785 13.526C12.6785 13.5684 12.7066 13.5825 12.7207 13.5825V13.5402V13.526V13.5119L12.6785 13.3708V13.4131C12.6644 13.4555 12.6503 13.4696 12.6503 13.4414ZM12.7489 14.3165V14.3024V14.3165ZM12.7348 14.0907H12.7771C12.7771 14.1048 12.7771 14.1048 12.7771 14.0907C12.7771 14.0766 12.7771 14.0624 12.763 14.0766L12.7348 14.0907ZM12.7489 13.9495C12.7657 13.9129 12.7798 13.8752 12.7912 13.8366C12.7912 13.7942 12.7912 13.7942 12.7771 13.8225L12.7489 13.9495ZM13.242 14.1754C13.242 14.1613 13.242 14.1613 13.242 14.1754V14.1754ZM13.8336 13.6249C13.8281 14.4757 13.6554 15.3172 13.3253 16.1011C12.9952 16.8851 12.5143 17.5962 11.9099 18.1939C11.3055 18.7917 10.5896 19.2642 9.80296 19.5847C9.01632 19.9052 8.17439 20.0672 7.32523 20.0617C6.4749 20.0691 5.63145 19.9084 4.84319 19.5888C4.05492 19.2692 3.33731 18.7969 2.73145 18.199C2.12559 17.6011 1.64337 16.8893 1.31242 16.1044C0.981459 15.3195 0.80826 14.4769 0.802734 13.6249C0.817622 11.9089 1.51125 10.269 2.73142 9.06489C3.95158 7.86079 5.59863 7.19089 7.31115 7.20217C9.02366 7.19089 10.6707 7.86079 11.8909 9.06489C13.111 10.269 13.8047 11.9089 13.8196 13.6249H13.8336ZM11.4529 11.5216V11.5357L11.467 11.564V11.5357L11.4529 11.5216ZM11.2697 10.2794V10.3359C11.2697 10.4065 11.2556 10.5053 11.2275 10.5194V10.5476L11.2697 10.5053L11.2979 10.477V10.3359C11.29 10.3163 11.2806 10.2975 11.2697 10.2794ZM10.4667 10.8017C10.4667 10.8017 10.4527 10.8017 10.4667 10.8017V10.8017ZM10.509 9.03722C10.5231 9.05134 10.5231 9.05134 10.509 9.03722C10.509 9.00899 10.4667 8.98076 10.4667 8.99487L10.509 9.03722ZM10.3822 10.7593L10.354 10.7735C10.3118 10.7876 10.2977 10.8158 10.3118 10.844C10.3259 10.8864 10.34 10.8864 10.34 10.844C10.34 10.8158 10.354 10.8017 10.3681 10.8017L10.3963 10.7876V10.7593H10.3822ZM10.5231 11.0699C10.5231 11.0699 10.4949 11.0699 10.509 11.0981L10.5231 11.1122L10.5513 11.0981C10.5513 11.084 10.5513 11.0699 10.5231 11.0699ZM10.03 9.09369V9.12192L10.0582 9.15015V9.12192C10.0441 9.06545 10.03 9.05134 10.03 9.09369ZM10.5654 8.99487V9.00899L10.5935 9.02311L10.5654 8.99487ZM10.6217 10.6888L10.664 10.717V10.7029C10.6358 10.7029 10.6217 10.6747 10.6217 10.6747V10.6888ZM4.91628 8.40201C4.93036 8.37378 4.91628 8.37378 4.8881 8.40201L4.85993 8.41613H4.87401L4.91628 8.40201ZM3.74702 10.9852C3.77519 10.9852 3.81745 10.9852 3.83154 10.957C3.84563 10.9287 3.85972 10.9005 3.83154 10.9146L3.77519 10.9429C3.69067 10.957 3.67658 10.9852 3.74702 10.9852ZM3.28213 9.61597C3.25395 9.61597 3.25395 9.6442 3.22578 9.65832L3.18352 9.70066C3.21169 9.70066 3.22578 9.68655 3.22578 9.67243L3.25395 9.65832V9.67243C3.23987 9.68655 3.25395 9.68655 3.25395 9.67243C3.2752 9.65097 3.29884 9.63203 3.32439 9.61597C3.38074 9.61597 3.38074 9.57362 3.33848 9.58774C3.3103 9.58774 3.3103 9.58774 3.33848 9.58774C3.36665 9.55951 3.32439 9.57362 3.23987 9.61597L3.16943 9.6442L3.22578 9.63008L3.28213 9.61597ZM3.38074 10.5758C3.36665 10.6041 3.35257 10.6041 3.38074 10.6041L3.39483 10.5758L3.40892 10.5476L3.38074 10.5758ZM3.32439 10.4347V10.4488V10.4347ZM3.46527 10.2653L3.43709 10.2794L3.40892 10.3076C3.38074 10.3359 3.38074 10.3923 3.39483 10.4065L3.38074 10.477V10.4911C3.40596 10.452 3.42496 10.4091 3.43709 10.3641L3.45118 10.2653H3.46527ZM3.36665 10.3076L3.33848 10.3641V10.3923C3.32439 10.3923 3.3103 10.4065 3.32439 10.4206L3.33848 10.3782L3.38074 10.3076C3.39483 10.2653 3.39483 10.2653 3.36665 10.3076ZM3.43709 10.0959L3.40892 10.1241V10.1524L3.49344 10.0536C3.49344 10.0253 3.49344 10.0394 3.45118 10.0536L3.43709 10.0959ZM3.29622 9.81359H3.28213C3.28213 9.84182 3.26804 9.85594 3.22578 9.88417C3.21142 9.89801 3.19733 9.91213 3.18352 9.92652H3.22578L3.28213 9.89829L3.35257 9.84182C3.36968 9.82561 3.38859 9.8114 3.40892 9.79947L3.43709 9.78536C3.45118 9.75713 3.423 9.77124 3.38074 9.79947C3.33848 9.82771 3.3103 9.84182 3.29622 9.81359ZM3.33848 9.96886C3.31608 9.97736 3.29654 9.99205 3.28213 10.0112C3.23987 10.0394 3.23987 10.0394 3.3103 10.0112C3.36665 9.96886 3.36665 9.96886 3.33848 9.96886ZM3.71884 9.68655L3.69067 9.70066V9.7289L3.71884 9.70066V9.68655ZM3.49344 10.844C3.43248 10.9305 3.38498 11.0256 3.35257 11.1264C3.35257 11.1546 3.40892 11.084 3.45118 10.9993C3.47289 10.9493 3.5068 10.9057 3.54979 10.8723C3.60614 10.8158 3.60614 10.8158 3.62023 10.8723L3.59205 10.9287C3.58088 10.9416 3.57141 10.9558 3.56388 10.9711C3.59205 10.9429 3.59205 10.957 3.59205 10.9852V11.0417L3.62023 10.9711C3.6412 10.9395 3.66003 10.9064 3.67658 10.8723V10.8864C3.70475 10.9429 3.73293 10.8864 3.71884 10.844C3.71884 10.8017 3.69067 10.7876 3.67658 10.8299C3.66249 10.8299 3.66249 10.8299 3.67658 10.8299C3.67658 10.7876 3.5357 10.8017 3.47935 10.844H3.49344ZM3.49344 10.7452L3.52162 10.7311C3.52162 10.7593 3.52162 10.7735 3.59205 10.7735H3.62023L3.63432 10.717V10.6747V10.6605C3.62023 10.6041 3.57797 10.6182 3.49344 10.6888C3.45519 10.7112 3.41761 10.7347 3.38074 10.7593C3.35257 10.7876 3.43709 10.7593 3.47935 10.7452H3.49344ZM3.63432 10.5476C3.63432 10.5335 3.63432 10.5053 3.62023 10.5335C3.59205 10.5476 3.57797 10.5758 3.59205 10.5758C3.60614 10.5758 3.62023 10.5758 3.62023 10.5476H3.63432ZM3.56388 11.084C3.52162 11.084 3.49344 11.1264 3.5357 11.1264C3.56388 11.1264 3.67658 11.0699 3.69067 11.0417C3.71884 11.0134 3.69067 11.0275 3.54979 11.084H3.56388ZM4.78949 10.2512L4.81766 10.2371C4.84584 10.2088 4.84584 10.2088 4.80358 10.2371L4.78949 10.2512ZM4.36686 10.4488L4.38095 10.4206V10.3782C4.35278 10.4065 4.35278 10.4347 4.36686 10.4347V10.4488ZM4.64861 10.2371V10.2088L4.63453 10.2371V10.2512L4.64861 10.2371ZM4.78949 8.48671C4.78949 8.48671 4.7754 8.48671 4.78949 8.48671C4.78949 8.50082 4.78949 8.48671 4.78949 8.48671ZM3.9865 9.40423V9.39012V9.40423ZM4.25417 16.6315V16.5892L4.22599 16.6315H4.25417ZM4.64861 8.58552C4.67679 8.5714 4.70496 8.54317 4.69088 8.52905H4.67679L4.63453 8.5714C4.62044 8.5714 4.62044 8.5714 4.63453 8.5714L4.64861 8.58552ZM4.19782 10.4206L4.15555 10.4488C4.12738 10.4911 4.14147 10.4911 4.18373 10.4488C4.2119 10.4347 4.2119 10.4347 4.18373 10.4347L4.19782 10.4206ZM4.16964 9.51716C4.18373 9.48893 4.16964 9.47481 4.15555 9.48893V9.50304L4.16964 9.51716ZM4.40913 9.15015H4.38095H4.40913ZM4.69088 9.03722L4.74723 9.02311L4.7754 8.99487H4.71905H4.70496L4.67679 9.02311C4.67679 9.03722 4.67679 9.05134 4.70496 9.03722H4.69088ZM4.91628 9.09369L4.94445 9.07957H4.8881V9.09369H4.91628ZM4.7754 9.39012H4.83175V9.36189C4.81766 9.34777 4.80358 9.34777 4.78949 9.376V9.39012H4.7754ZM8.05778 9.03722V9.07957L8.07187 9.05134V9.03722H8.05778ZM8.73398 14.4859L8.80442 14.4718L8.81851 14.4577C8.81851 14.4577 8.81851 14.4012 8.84668 14.373C8.88894 14.3024 8.88894 14.3024 8.86077 14.2883H8.73398L8.70581 14.4012C8.70581 14.4859 8.70581 14.4859 8.73398 14.4859ZM8.17048 9.50304V9.53127L8.14231 9.54539C8.14231 9.57362 8.12822 9.57362 8.11413 9.57362H8.10004V9.60185C8.14231 9.60185 8.19866 9.55951 8.18457 9.53127V9.50304H8.17048ZM2.39462 10.1806L2.35236 10.2088H2.38053V10.1806H2.39462ZM7.42385 9.74301C7.41317 9.75104 7.40368 9.76054 7.39567 9.77124C7.39567 9.78536 7.45202 9.77124 7.46611 9.74301C7.46611 9.71478 7.45202 9.71478 7.42385 9.74301ZM12.1431 11.1264V11.084V11.1264ZM7.98734 9.53127L8.00143 9.57362V9.54539C8.00143 9.51716 8.00143 9.50304 8.00143 9.54539L7.98734 9.53127ZM8.83259 15.0223V14.9659C8.83259 14.9659 8.80442 15.0082 8.80442 15.0647V15.1917L8.81851 15.2482C8.84668 15.2764 8.84668 15.2623 8.84668 15.1776V15.0788V15.0223H8.83259ZM9.01573 13.9778C9.01573 14.006 9.01573 14.0483 9.04391 14.0624C9.05799 14.0907 9.07208 14.0907 9.04391 14.0624C9.03493 14.0351 9.03018 14.0065 9.02982 13.9778L9.01573 13.9213V13.9778ZM9.04391 13.3567V13.3425V13.3284C9.02982 13.3284 9.01573 13.3284 9.01573 13.3567H9.04391ZM6.38137 13.6672H6.3532L6.38137 13.6954C6.39546 13.7096 6.40955 13.7237 6.40955 13.6954L6.38137 13.6672ZM6.38137 13.766V13.7942L6.40955 13.766L6.38137 13.7942V13.766ZM7.40976 13.2296C7.35341 13.2014 7.35341 13.2014 7.38158 13.272C7.39567 13.3002 7.46611 13.3002 7.46611 13.272L7.40976 13.2296ZM9.87507 9.05134L9.88915 9.07957V9.06545L9.87507 9.05134ZM3.67658 17.5632V17.5491V17.5632ZM3.54979 17.3232L3.57797 17.3514V17.3373L3.54979 17.3232ZM3.23987 15.3752L3.28213 15.4035V15.3893C3.25395 15.347 3.22578 15.3329 3.23987 15.3752ZM3.05673 13.4272V13.5119L3.07082 13.4978C3.09899 13.4555 3.07082 13.399 3.07082 13.4272H3.05673ZM2.56367 11.1969V11.1687L2.54958 11.2111L2.56367 11.1969ZM2.56367 13.2437C2.53549 13.2437 2.53549 13.2437 2.53549 13.272C2.53549 13.3143 2.56367 13.3143 2.56367 13.272V13.2437ZM3.71884 17.662H3.7611C3.7611 17.6337 3.74702 17.6337 3.71884 17.662ZM5.4516 9.1078H5.43751H5.4516ZM5.73335 19.3841C5.71926 19.3841 5.71926 19.3841 5.73335 19.3841V19.3982V19.3841ZM5.16985 8.54317V8.55728H5.19803V8.52905L5.16985 8.54317ZM6.84626 8.27497H6.86035C6.86035 8.24674 6.83217 8.26085 6.83217 8.27497H6.84626ZM12.0727 13.2155V13.1732L12.0868 13.2014L12.0727 13.2155ZM6.39546 8.9243L6.40955 8.89606C6.40955 8.86783 6.40955 8.86783 6.39546 8.89606V8.9243ZM24.6387 13.6249C24.6387 21.3462 18.4402 27.0349 10.5654 27.0349H2.42279V21.6709H10.5654C15.0733 21.6709 18.6797 18.0713 18.6797 13.6249C18.6797 9.17838 15.0733 5.57885 10.5654 5.57885H2.42279V0.214844H10.5654C18.4402 0.214844 24.6528 5.90351 24.6528 13.6249H24.6387Z" fill="#575757"/>
</svg>
