<svg width="144" height="27" viewBox="0 0 144 27" fill="none" xmlns="http://www.w3.org/2000/svg">
<path fill-rule="evenodd" clip-rule="evenodd" d="M38.224 21.6096C41.4324 24.4872 46.2364 26.0474 51.4045 26.0474C56.6073 26.0474 61.4979 24.5046 64.6196 21.6096C65.731 20.5548 66.6174 19.2862 67.2254 17.88C67.8334 16.4739 68.1504 14.9593 68.1575 13.4274C68.1575 10.4111 66.9955 7.44675 64.6196 5.27985C61.2724 2.24619 56.8847 0.859375 51.4045 0.859375C46.4618 0.859375 41.207 2.55822 38.224 5.27985C37.0942 6.31471 36.1929 7.57387 35.5777 8.97682C34.9625 10.3798 34.6471 11.8956 34.6515 13.4274C34.6515 16.4784 35.8134 19.4254 38.224 21.6096ZM51.5779 22.7191C48.9544 22.7691 46.4153 21.7924 44.5021 19.9974C43.6608 19.1256 42.9996 18.0966 42.5562 16.9693C42.1129 15.842 41.896 14.6385 41.918 13.4274C41.8918 12.2132 42.1067 11.0058 42.5502 9.87508C42.9938 8.74439 43.6572 7.71281 44.5021 6.84002C46.42 5.05451 48.9575 4.0847 51.5779 4.13573C54.3007 4.13573 56.9021 5.1065 58.6537 6.84002C60.3533 8.52153 61.2551 10.8965 61.2551 13.4274C61.2551 16.0797 60.4226 18.2466 58.6537 20.0148C56.7459 21.8163 54.2015 22.7887 51.5779 22.7191ZM5.01286 2.59289C7.68363 1.39677 10.84 0.87671 13.5975 0.87671C18.4881 0.87671 22.4596 2.47155 23.8817 3.21696C24.4366 3.529 24.7488 3.14762 24.7488 2.87026V1.95149H27.8705V9.63099H25.061C24.8217 8.4852 24.2123 7.44976 23.3267 6.684C22.7891 6.26796 22.1127 5.90392 21.5404 5.64389C19.1871 4.6519 16.6542 4.15617 14.1004 4.18773C11.4643 4.18773 8.9323 4.67312 7.68363 5.4532C6.88586 5.95592 6.48698 6.56265 6.48698 7.29073C6.48698 8.31351 7.35412 8.72956 7.78768 8.8509C8.98433 9.23228 11.6551 9.4923 13.6842 9.70033L14.7941 9.80434C16.7365 10.0124 20.7947 10.5498 22.5983 11.0005C23.5175 11.2258 24.6621 11.6245 25.3731 11.9712C26.5914 12.4572 27.6342 13.2999 28.3646 14.3889C29.095 15.4779 29.479 16.7622 29.466 18.0732C29.466 20.6908 27.9052 22.147 27.2115 22.7017C25.8934 23.7418 24.2806 24.4352 22.9799 24.7819L22.8585 24.834C21.471 25.2327 19.494 25.8047 15.8867 25.8047C14.1918 25.808 12.5028 25.6042 10.8573 25.198L10.5972 25.1287C8.84801 24.747 7.14032 24.1954 5.49845 23.4818C4.9088 23.2218 4.73538 23.7765 4.73538 23.9152V25.094H1.26684V16.305H4.38852C4.38852 17.3451 4.89146 18.4026 5.20363 18.784C6.22129 20.0297 7.58505 20.9465 9.12307 21.4189C10.2503 21.8176 13.32 22.5804 15.8867 22.5804C19.1471 22.5804 21.0548 21.8003 21.4884 21.6096L21.5578 21.5923L21.6098 21.5749C22.0087 21.4016 23.4481 20.8642 23.4481 19.252C23.4481 17.5878 22.0433 17.2411 21.1242 16.9984L21.0201 16.9811C19.9275 16.7037 17.3608 16.4264 14.6727 16.149L14.2045 16.097C11.8194 15.8609 9.4467 15.5138 7.09398 15.0569C4.12838 14.3808 2.96642 13.3234 2.23803 12.6473L2.186 12.5953C2.22069 12.6473 0.538452 11.0871 0.538452 8.43486C0.538452 5.4532 2.5502 3.66768 5.01286 2.55822V2.59289ZM82.5692 2.26353L97.9175 16.1317L97.7614 6.80535C97.7614 5.57455 97.5186 5.07183 96.2006 5.07183H93.3217V2.24619H106.45V5.05449H103.623C102.27 5.05449 102.201 5.47054 102.184 6.78801L102.409 24.6433H97.9175L80.228 8.83357V20.0494C80.2626 21.2629 80.3147 21.8523 81.5634 21.8523H84.7197V24.6259H71.8341V21.8523H74.8344C75.927 21.8523 75.927 20.8469 75.927 20.0668V6.92669C75.927 6.07727 75.8056 5.08916 74.0366 5.08916H71.5913V2.24619H82.5692V2.26353ZM122.215 21.835L121.451 21.8696H118.711V24.6779H134.025V21.835H131.146C131.025 21.835 130.487 21.835 130.383 21.783C130.25 21.7453 130.127 21.6794 130.022 21.5896C129.918 21.4998 129.833 21.3883 129.776 21.2629C129.733 21.0634 129.71 20.8602 129.707 20.6562V16.253V16.2184C129.707 16.1143 129.707 15.9583 129.811 15.837L132.065 13.254L138.309 6.12928C139.072 5.26252 139.488 5.07183 140.511 5.07183H143.338V2.24619H130.712V5.05449H132.62C133.158 5.05449 133.314 5.60922 133.071 5.92125C133.036 5.95592 127.799 12.1446 127.729 12.1966C127.66 12.2659 127.625 12.2486 127.573 12.1793L122.336 5.90392C121.989 5.4532 122.267 5.03716 122.683 5.03716H124.556V2.28086H109.156V5.05449H111.878C113.075 5.05449 113.855 5.81724 114.306 6.30263C114.653 6.70134 122.509 15.5943 122.7 15.8543C122.874 16.097 122.874 16.149 122.874 16.253V20.6735C122.874 20.7602 122.874 21.1936 122.822 21.2802C122.763 21.405 122.679 21.5159 122.574 21.6056C122.469 21.6953 122.347 21.7616 122.215 21.8003V21.835Z" fill="#575757"/>
</svg>
