<svg width="130" height="55" viewBox="0 0 130 55" fill="none" xmlns="http://www.w3.org/2000/svg">
<path fill-rule="evenodd" clip-rule="evenodd" d="M111.835 24.0251C109.662 24.5295 103.923 24.8097 103.923 24.8097L103.217 27.089C103.217 27.089 106.059 26.8461 108.139 27.0517C108.139 27.0517 108.808 26.9956 108.882 27.799C108.919 28.621 108.826 29.4804 108.826 29.4804C108.826 29.4804 108.771 29.9848 108.083 30.1156C107.285 30.2464 101.898 30.4893 101.898 30.4893L101.025 33.4411C101.025 33.4411 100.71 34.1137 101.434 33.9269C102.103 33.74 107.749 32.6565 108.492 32.8059C109.272 32.9927 110.164 34.0763 109.904 35.0478C109.606 36.2248 103.96 39.8493 100.543 39.6064C100.543 39.6064 98.741 39.7185 97.2365 37.2711C95.7878 34.9357 97.738 30.5453 97.738 30.5453C97.738 30.5453 96.865 28.4902 97.5151 27.7429C97.5151 27.7429 97.8866 27.4253 99.001 27.3319L100.394 24.4548C100.394 24.4548 98.8153 24.5482 97.8866 23.3899C97.0322 22.2689 96.9579 21.7832 97.6266 21.4842C98.3324 21.1106 104.87 19.9336 109.365 20.083C109.365 20.083 110.944 19.8962 112.337 22.6426C112.337 22.6426 112.968 23.7635 111.854 24.0251M94.8963 35.0852C94.3391 36.449 92.7975 37.8876 90.9401 37.0095C89.0456 36.1127 86.0553 29.9848 86.0553 29.9848C86.0553 29.9848 84.9409 27.7055 84.718 27.7803C84.718 27.7803 84.4766 27.3319 84.3466 29.8354C84.1608 32.3202 84.3837 37.159 83.3622 37.925C82.4335 38.6723 81.3191 38.3547 80.6876 37.4766C80.1675 36.5985 79.9447 34.4874 80.2418 30.8069C80.5762 27.1264 81.412 23.203 82.4706 21.9887C83.585 20.7556 84.4766 21.6524 84.8109 21.9887C84.8109 21.9887 86.241 23.2964 88.6556 27.1638L89.0642 27.8737C89.0642 27.8737 91.2559 31.5542 91.4788 31.5355C91.4788 31.5355 91.6645 31.7223 91.8131 31.5729C92.036 31.5168 91.9617 30.3211 91.9617 30.3211C91.9617 30.3211 91.553 26.3417 89.51 19.616C89.51 19.616 89.2128 18.7566 89.4171 17.9345C89.6028 17.1872 90.4015 17.5609 90.4015 17.5609C90.4015 17.5609 93.4847 19.0555 94.9891 24.0998C96.475 29.1441 95.472 33.7214 94.9148 35.0852M79.7775 22.1381C79.4803 22.6612 79.3503 23.3899 78.0687 23.5954C78.0687 23.5954 65.6245 24.4735 65.0116 25.3515C65.0116 25.3515 64.603 25.8747 65.2717 26.0054C65.9774 26.1549 68.8006 26.5285 70.1379 26.6033C71.5866 26.6033 76.4529 26.6406 78.2359 28.8452C78.2359 28.8452 79.2574 29.8914 79.2203 32.2641C79.1831 34.6929 78.756 35.5523 77.8087 36.4303C76.8243 37.2524 68.392 41.0636 62.95 35.2347C62.95 35.2347 60.4611 32.4323 63.8229 30.3024C63.8229 30.3024 66.2375 28.8078 72.4224 30.5453C72.4224 30.5453 74.2798 31.2179 74.2055 31.9091C74.094 32.6565 72.6639 33.4038 70.5836 33.3664C68.5777 33.3103 67.0918 32.3388 67.389 32.507C67.6676 32.6004 65.2159 31.3113 64.4544 32.1894C63.7115 33.0114 63.8972 33.4972 64.6402 34.0016C66.4975 35.0852 73.7969 34.6929 75.9699 32.2454C75.9699 32.2454 76.8429 31.2553 75.5242 30.4519C74.224 29.7046 70.4351 29.2375 68.9678 29.1815C67.5748 29.1067 62.3556 29.1815 61.5755 27.8176C61.5755 27.8176 60.8326 26.8461 61.6498 24.1932C62.5042 21.3908 68.5777 20.3072 71.2151 20.083C71.2151 20.083 78.4588 19.7841 79.8146 21.2787C79.8146 21.2787 80.0004 21.615 79.7775 22.1194M59.2353 38.5602C58.3623 39.2141 56.505 38.9338 55.9664 38.1865C55.4463 37.5326 55.2606 34.9544 55.3534 30.9003C55.4835 26.7527 55.5392 21.6711 56.4678 20.849C57.3965 20.0457 57.9537 20.7556 58.3252 21.2974C58.6967 21.8579 59.1796 22.4744 59.2539 23.7635C59.3653 25.0713 59.681 31.797 59.681 31.797C59.681 31.797 60.0897 37.925 59.2539 38.5602M61.0926 16.7015C58.5295 17.5796 56.7836 17.2993 55.2977 16.6454C54.6476 17.8224 54.2576 18.1774 53.7747 18.2521C53.0318 18.3269 52.3817 17.1312 52.2888 16.7575C52.1402 16.4773 51.7873 15.9729 52.2145 14.8332C50.7658 13.5254 50.6544 11.7693 50.9144 10.5923C51.2487 9.20974 53.7004 4.01596 61.1298 3.39943C61.1298 3.39943 64.7702 3.13788 65.4017 5.08087H65.5131C65.5131 5.08087 69.0421 5.08087 68.9678 8.25692C68.9678 11.433 65.0673 15.3937 61.0926 16.7575M64.3987 7.65908C62.0584 8.03273 58.4552 11.1714 56.7279 13.7683C59.3839 14.254 64.0272 14.0672 66.1075 9.84495C66.1075 9.84495 67.0918 7.19201 64.3987 7.65908ZM54.1276 9.71417C53.3847 10.9285 53.3475 11.6572 53.7004 12.1429C54.5734 10.8351 56.115 8.78004 58.4366 7.17333C56.6536 7.36015 55.1491 8.10746 54.1276 9.71417ZM117.407 38.4294C115.699 42.6517 114.25 46.93 113.414 53.3381C113.414 53.3381 113.228 54.5899 112.207 54.1789C111.185 53.8052 109.514 52.1238 109.142 49.7511C108.771 46.6497 110.145 41.4186 112.95 35.4028C112.132 34.095 111.557 32.152 112.021 29.4244C112.021 29.4244 112.764 24.38 117.779 19.8215C117.779 19.8215 118.373 19.317 118.707 19.4852C119.116 19.672 118.949 21.2787 118.615 22.1008C118.317 22.8854 116.089 26.7714 116.089 26.7714C116.089 26.7714 114.696 29.4244 115.086 31.4981C117.723 27.4253 123.722 19.1676 127.437 21.7832C129.796 23.4646 129.796 28.8826 128.031 32.0212C126.638 34.506 122.701 39.6438 117.444 38.4481M125.171 25.7439C123.797 27.2385 121.345 30.0782 119.413 33.9269C121.456 33.7027 123.444 32.563 124.057 31.9839C125.041 31.1058 127.307 28.7331 126.954 25.5944C126.954 25.5944 126.731 23.9503 125.171 25.7439ZM41.962 40.6339C35.387 42.6517 29.1835 41.7175 25.8031 40.8208C25.7103 42.2033 25.5617 42.7824 25.3388 43.0066C25.0788 43.3056 22.9242 44.5386 21.7355 42.7824C21.2155 41.9417 20.9555 40.4284 20.8069 39.0459C13.1918 35.5709 9.66281 30.4519 9.55137 30.2651C9.36564 30.0782 7.63831 28.266 9.36564 26.0241C10.9815 24.0064 16.3307 21.97 21.1226 21.1666C21.3084 17.0564 21.7541 13.8804 22.3299 12.4792C23.0171 10.7978 23.8901 12.2924 24.6701 13.4133C25.3016 14.254 25.6917 17.8598 25.7288 20.7369C28.8492 20.5875 30.7437 20.8117 34.2169 21.4842C38.7859 22.2689 41.832 24.6229 41.5905 27.2759C41.3676 29.8914 38.9903 30.975 38.0616 31.0497C37.1329 31.1245 35.647 30.4332 35.647 30.4332C34.6069 29.9475 35.5542 29.4991 36.7614 28.976C38.0987 28.3221 37.8016 27.6682 37.8016 27.6682C37.3186 26.1736 31.3937 25.1834 25.5059 25.1834C25.5059 28.4529 25.636 33.8708 25.7288 37.0282C29.8521 37.8129 32.9353 37.6447 32.9353 37.6447C32.9353 37.6447 47.9798 37.215 48.407 27.5561C48.8713 17.8785 33.3625 8.61189 21.9398 5.6974C10.5358 2.68949 4.07221 4.81931 3.51501 5.09955C2.90209 5.39848 3.45929 5.51057 3.45929 5.51057C3.45929 5.51057 4.07221 5.60399 5.18662 5.97764C6.30102 6.35129 5.4095 6.91177 5.4095 6.91177C3.45929 7.58435 1.2862 7.19201 0.859009 6.29524C0.43182 5.41716 1.13761 4.61381 1.97341 3.4368C2.7535 2.22243 3.64502 2.25979 3.64502 2.25979C17.7608 -2.69111 34.997 6.18315 34.997 6.18315C51.1187 14.3661 53.8676 23.9877 53.5704 27.7242C53.3104 31.4047 51.8988 37.626 41.962 40.6526M10.9444 27.2759C9.34706 28.0232 10.4615 29.2188 10.4615 29.2188C13.4704 32.4509 17.1479 34.4874 20.6769 35.7578C21.0855 30.153 21.0483 28.1539 21.0483 25.3329C15.5877 25.7065 12.4303 26.6033 10.9444 27.2759Z" fill="#575757"/>
</svg>
