<svg width="45" height="45" viewBox="0 0 45 45" fill="none" xmlns="http://www.w3.org/2000/svg">
<circle cx="22.5" cy="22.5" r="22.5" fill="#272C33"/>
<path d="M20.7044 28.3064C20.6122 28.3069 20.5209 28.2893 20.4355 28.2544C20.3502 28.2195 20.2726 28.1682 20.2072 28.1033C20.1415 28.0382 20.0894 27.9607 20.0539 27.8754C20.0183 27.79 20 27.6985 20 27.606C20 27.5136 20.0183 27.422 20.0539 27.3367C20.0894 27.2514 20.1415 27.1739 20.2072 27.1088L25.3197 22.0033L20.2072 16.8977C20.0753 16.7658 20.0012 16.587 20.0012 16.4005C20.0012 16.3081 20.0194 16.2167 20.0547 16.1314C20.0901 16.0461 20.1419 15.9685 20.2072 15.9032C20.2725 15.8379 20.35 15.7861 20.4353 15.7508C20.5206 15.7155 20.6121 15.6973 20.7044 15.6973C20.8909 15.6973 21.0698 15.7714 21.2017 15.9032L26.8044 21.506C26.8701 21.5711 26.9222 21.6486 26.9577 21.7339C26.9933 21.8193 27.0116 21.9108 27.0116 22.0033C27.0116 22.0957 26.9933 22.1873 26.9577 22.2726C26.9222 22.3579 26.8701 22.4354 26.8044 22.5005L21.2017 28.1033C21.1362 28.1682 21.0586 28.2195 20.9733 28.2544C20.8879 28.2893 20.7966 28.3069 20.7044 28.3064Z" fill="white"/>
</svg>
