<svg width="45" height="45" viewBox="0 0 45 45" fill="none" xmlns="http://www.w3.org/2000/svg">
<circle cx="22.5" cy="22.5" r="22.5" transform="rotate(180 22.5 22.5)" fill="#272C33"/>
<path d="M24.2956 16.6936C24.3878 16.6931 24.4791 16.7107 24.5645 16.7456C24.6498 16.7805 24.7274 16.8318 24.7928 16.8967C24.8585 16.9618 24.9106 17.0393 24.9461 17.1246C24.9817 17.21 25 17.3015 25 17.394C25 17.4864 24.9817 17.578 24.9461 17.6633C24.9106 17.7486 24.8585 17.8261 24.7928 17.8912L19.6803 22.9967L24.7928 28.1023C24.9247 28.2342 24.9988 28.413 24.9988 28.5995C24.9988 28.6919 24.9806 28.7833 24.9453 28.8686C24.9099 28.9539 24.8581 29.0315 24.7928 29.0968C24.7275 29.1621 24.65 29.2139 24.5647 29.2492C24.4794 29.2845 24.3879 29.3027 24.2956 29.3027C24.1091 29.3027 23.9302 29.2286 23.7983 29.0968L18.1956 23.494C18.1299 23.4289 18.0778 23.3514 18.0423 23.2661C18.0067 23.1807 17.9884 23.0892 17.9884 22.9967C17.9884 22.9043 18.0067 22.8127 18.0423 22.7274C18.0778 22.6421 18.1299 22.5646 18.1956 22.4995L23.7983 16.8967C23.8638 16.8318 23.9414 16.7805 24.0267 16.7456C24.1121 16.7107 24.2034 16.6931 24.2956 16.6936Z" fill="white"/>
</svg>
