<svg width="60" height="60" viewBox="0 0 60 60" fill="none" xmlns="http://www.w3.org/2000/svg">
<path d="M58.535 51.465L45.8425 38.7725C48.465 34.82 50 30.0875 50 25C50 11.215 38.785 0 25 0C11.215 0 0 11.215 0 25C0 38.785 11.215 50 25 50C30.0875 50 34.82 48.465 38.7725 45.8425L51.465 58.535C53.415 60.4875 56.585 60.4875 58.535 58.535C60.4875 56.5825 60.4875 53.4175 58.535 51.465ZM7.5 25C7.5 15.35 15.35 7.5 25 7.5C34.65 7.5 42.5 15.35 42.5 25C42.5 34.65 34.65 42.5 25 42.5C15.35 42.5 7.5 34.65 7.5 25Z" fill="#4C4C4C"/>
</svg>
