<svg width="40" height="30" viewBox="0 0 40 30" fill="none" xmlns="http://www.w3.org/2000/svg">
<path d="M36.376 4.768C32.216 6.368 30.136 8.896 30.136 12.352C30.136 14.08 30.488 15.168 31.192 15.616C31.896 16.064 32.952 16.288 34.36 16.288C36.472 16.352 37.912 16.992 38.68 18.208C39.512 19.424 39.928 20.768 39.928 22.24C39.928 24.288 39.288 26.016 38.008 27.424C36.728 28.768 34.808 29.44 32.248 29.44C29.112 29.44 26.936 28.576 25.72 26.848C24.568 25.056 23.992 22.88 23.992 20.32V16.384C23.992 7.936 28.12 2.688 36.376 0.639997V4.768ZM12.76 4.86399C8.6 6.592 6.52 9.152 6.52 12.544C6.52 14.272 6.872 15.36 7.576 15.808C8.28 16.192 9.336 16.416 10.744 16.48C12.856 16.544 14.296 17.184 15.064 18.4C15.896 19.616 16.312 20.928 16.312 22.336C16.312 24.448 15.672 26.176 14.392 27.52C13.112 28.864 11.192 29.536 8.632 29.536C5.56 29.536 3.416 28.672 2.2 26.944C0.984 25.152 0.376 23.008 0.376 20.512V16.576C0.376 12.16 1.464 8.672 3.64 6.112C5.88 3.488 8.92 1.696 12.76 0.735996V4.86399Z" fill="white" fill-opacity="0.2"/>
</svg>
