<svg width="50" height="50" viewBox="0 0 50 50" fill="none" xmlns="http://www.w3.org/2000/svg">
<g clip-path="url(#clip0_344_3074)">
<path d="M24.9014 49.8028C38.6541 49.8028 49.8028 38.6541 49.8028 24.9014C49.8028 11.1487 38.6541 0 24.9014 0C11.1487 0 0 11.1487 0 24.9014C0 38.6541 11.1487 49.8028 24.9014 49.8028Z" fill="#159051"/>
<path d="M10.1978 29.3937H8.41405C8.62097 29.272 8.72442 29.1606 8.72442 29.0596C8.72442 28.9951 8.67574 28.8381 8.57715 28.5898L8.07204 27.3088H5.89397L5.40711 28.5898C5.34831 28.7263 5.31451 28.8722 5.30731 29.0207C5.30731 29.1631 5.41077 29.2874 5.61768 29.3937H4.0354C4.20414 29.2971 4.35121 29.1668 4.46748 29.0109C4.55918 28.8775 4.68089 28.6284 4.83263 28.2636L6.34979 24.5757C6.4037 24.4555 6.43604 24.3267 6.44533 24.1953C6.44533 24.061 6.35892 23.9523 6.18608 23.8691H7.55841L9.36586 28.2636C9.46352 28.5207 9.59032 28.7657 9.74378 28.9939C9.86667 29.1564 10.0211 29.2923 10.1978 29.3937ZM7.85052 26.7696L6.97905 24.5787L6.09906 26.7696H7.85052Z" fill="white"/>
<path d="M15.5684 28.3035L15.1345 29.2821C14.708 29.449 14.2536 29.5332 13.7956 29.5304C12.8134 29.5304 12.0243 29.2667 11.4283 28.7392C10.8323 28.2118 10.5345 27.5132 10.5349 26.6433C10.5349 25.8072 10.8228 25.1134 11.3985 24.562C11.9742 24.0107 12.7032 23.7348 13.5857 23.7344C14.0153 23.7344 14.5316 23.8056 15.1345 23.948V24.9107C14.5847 24.6028 14.0632 24.4488 13.5698 24.4488C12.9613 24.4488 12.4649 24.6397 12.0807 25.0215C11.6965 25.4033 11.5054 25.897 11.5074 26.5028C11.5074 27.1576 11.7178 27.712 12.1385 28.166C12.3321 28.384 12.5704 28.5577 12.8373 28.6752C13.1042 28.7926 13.3933 28.851 13.6849 28.8464C14.2322 28.8464 14.86 28.6654 15.5684 28.3035Z" fill="white"/>
<path d="M21.9085 29.3937H20.1254C20.3323 29.272 20.4357 29.1606 20.4357 29.0596C20.4357 28.9951 20.3864 28.8381 20.2884 28.5898L19.7827 27.3088H17.6065L17.1166 28.5898C17.0579 28.7263 17.0243 28.8723 17.0174 29.0207C17.0174 29.1631 17.1208 29.2874 17.3278 29.3937H15.7455C15.9141 29.2969 16.0611 29.1667 16.1776 29.0109C16.2689 28.8775 16.3916 28.6284 16.5458 28.2636L18.0623 24.5757C18.1165 24.4556 18.1489 24.3268 18.1578 24.1953C18.1578 24.061 18.0716 23.9523 17.8992 23.8691H19.2685L21.0759 28.2636C21.1738 28.5207 21.3008 28.7658 21.4545 28.9939C21.5773 29.1564 21.7317 29.2924 21.9085 29.3937ZM19.56 26.769L18.6879 24.5781L17.8085 26.769H19.56Z" fill="white"/>
<path d="M27.6546 26.5724C27.658 27.1125 27.5022 27.6416 27.2067 28.0938C26.9202 28.5472 26.5031 28.9033 26.0103 29.115C25.5863 29.3012 24.8276 29.3943 23.7342 29.3943H22.3479C22.5232 29.2417 22.6266 29.1174 22.6583 29.0212C22.7063 28.8715 22.7301 28.6238 22.7301 28.28V24.9414C22.7369 24.739 22.7263 24.5364 22.6984 24.3359C22.6797 24.2365 22.6384 24.1429 22.5776 24.0621C22.5168 23.9814 22.4382 23.9157 22.3479 23.8703H23.2121C23.4291 23.8703 23.6208 23.8677 23.7872 23.8624C23.9527 23.8569 24.1766 23.8545 24.4566 23.8545C25.3772 23.8545 26.1231 24.0849 26.6943 24.5458C27.3349 25.0631 27.655 25.7386 27.6546 26.5724ZM26.7113 26.6576C26.7113 26.0084 26.5115 25.4727 26.1119 25.0503C25.7123 24.628 25.1396 24.417 24.3939 24.4174C24.1247 24.4216 23.8566 24.4542 23.5943 24.5148V28.7139C23.8044 28.7507 24.0174 28.7688 24.2308 28.7681C24.9526 28.7681 25.5021 28.6336 25.8794 28.3646C26.434 27.9589 26.7113 27.3893 26.7113 26.6557V26.6576Z" fill="white"/>
<path d="M32.388 28.2984L31.99 29.3938H28.4031C28.4937 29.3478 28.5725 29.2814 28.6333 29.1999C28.6941 29.1184 28.7353 29.024 28.7536 28.924C28.7812 28.7208 28.7917 28.5156 28.7853 28.3106V24.9409C28.7916 24.7386 28.781 24.536 28.7536 24.3354C28.7349 24.2361 28.6936 24.1424 28.6328 24.0617C28.572 23.9809 28.4934 23.9153 28.4031 23.8698H31.2633C31.3744 23.8719 31.4849 23.8548 31.5902 23.8193V24.7973C31.4553 24.6663 31.2895 24.5714 31.1082 24.5216C30.9221 24.4762 30.7306 24.4568 30.5392 24.4638C30.2409 24.4596 29.9428 24.4789 29.6476 24.5216V26.0863H30.7978C30.8987 26.089 30.999 26.0706 31.0923 26.0321V26.9212C30.9731 26.7687 30.7475 26.6922 30.4156 26.6918H29.6494V28.6873C30.0009 28.7433 30.3561 28.772 30.712 28.7731C31.3968 28.7731 31.9555 28.6149 32.388 28.2984Z" fill="white"/>
<path d="M40.4218 29.3938H38.7579C38.9965 29.2928 39.116 29.0804 39.1164 28.7567C39.1119 28.5994 39.0985 28.4426 39.0762 28.2869L38.6186 24.6963L36.6876 29.504C36.528 29.3795 36.3814 29.2392 36.25 29.0853C36.1384 28.9286 36.046 28.759 35.975 28.5802L34.291 24.6945L33.7853 28.3976C33.7614 28.5428 33.7468 28.6894 33.7415 28.8364C33.7415 29.049 33.8557 29.2342 34.0841 29.392H32.6747C32.9141 29.1693 33.0694 28.8003 33.1408 28.285L33.638 24.7553C33.6701 24.5225 33.6861 24.3788 33.6861 24.3245C33.6861 24.1561 33.5847 24.0033 33.3818 23.8662H34.8905C34.8985 23.9678 34.9268 24.0667 34.9739 24.1571L36.6261 27.9503L38.0197 24.4681C38.1281 24.1987 38.1824 23.9981 38.1828 23.8662H39.6787C39.501 23.9474 39.4122 24.122 39.4122 24.3902C39.4133 24.492 39.4213 24.5937 39.4359 24.6945L39.9653 28.3976C39.9874 28.6126 40.0341 28.8244 40.1047 29.0287C40.1777 29.1753 40.2868 29.301 40.4218 29.3938Z" fill="white"/>
<path d="M45.8124 23.8696L43.6983 26.9734V28.4077C43.6983 28.6617 43.7208 28.8443 43.7658 28.9555C43.8194 29.0897 43.9411 29.236 44.131 29.3942H42.4684C42.5529 29.3406 42.6259 29.2708 42.6832 29.1888C42.7406 29.1068 42.7811 29.0143 42.8025 28.9165C42.8309 28.7199 42.8417 28.5211 42.8347 28.3225V26.9752L41.3535 24.6468C41.2488 24.4759 41.1281 24.3154 40.9932 24.1672C40.87 24.0518 40.7331 23.9521 40.5854 23.8703L41.5646 23.835C41.6943 23.835 41.7843 23.8538 41.833 23.8916C41.8817 23.9293 41.9663 24.0437 42.0862 24.2348L43.38 26.3003L44.4669 24.6973C44.5752 24.5366 44.63 24.4009 44.63 24.2896C44.63 24.1212 44.5265 23.9814 44.3196 23.8703L45.8124 23.8696Z" fill="white"/>
<path d="M20.384 18.3961L20.8203 19.4897H20.8051H19.0311H19.0037L19.9148 17.1753L20.5714 15.481L20.5386 15.3867H19.2527L16.6571 22.1181H17.971L18.5345 20.7379H18.5479H21.2822H21.2895L21.7873 22.1181H23.139L21.0412 16.7012L20.384 18.3961Z" fill="white"/>
<path d="M27.2979 18.4245C27.51 18.2701 27.6821 18.0673 27.8 17.8329C27.9251 17.6246 27.9902 17.3858 27.9881 17.1428C27.9996 16.7654 27.8668 16.3978 27.6168 16.1149C27.3575 15.8244 27.0191 15.6157 26.6431 15.5143C26.5485 15.4873 26.4518 15.4683 26.354 15.4577C26.2323 15.4427 26.094 15.4295 25.939 15.4181C25.784 15.4068 25.6236 15.3989 25.4576 15.3944C25.2903 15.3895 25.1284 15.3877 24.9708 15.3877H23.9088V22.1185H26.1429C26.6817 22.1185 27.1089 22.0448 27.4245 21.8976C27.7284 21.7203 27.9861 21.4738 28.1767 21.1782C28.3728 20.8695 28.4724 20.5093 28.4627 20.1437C28.4619 19.37 28.0737 18.7969 27.2979 18.4245ZM25.1905 17.9315V16.614H25.8599C26.1439 16.614 26.3628 16.6764 26.5165 16.8014C26.661 16.9081 26.733 17.074 26.7326 17.2992C26.7368 17.3986 26.7198 17.4978 26.6825 17.5901C26.6452 17.6824 26.5887 17.7656 26.5165 17.8341C26.4563 17.8824 26.3895 17.922 26.3181 17.9516C26.1537 18.0206 25.9767 18.0541 25.7984 18.0502H25.1899L25.1905 17.9315ZM26.9224 20.7054C26.7285 20.8307 26.3634 20.8934 25.827 20.8934H25.1905V19.1754H25.799C25.973 19.1741 26.1468 19.1867 26.3187 19.2132C26.5237 19.2388 26.72 19.311 26.8926 19.4243C26.9936 19.5082 27.0743 19.6137 27.1288 19.7331C27.1833 19.8525 27.2101 19.9826 27.2073 20.1138C27.211 20.2281 27.1871 20.3416 27.1375 20.4446C27.0879 20.5476 27.0141 20.6371 26.9224 20.7054Z" fill="white"/>
<path d="M30.3585 16.6404H33.1464V15.3867H29.1049V22.1181H33.1464V20.8644H30.3585V19.5773V19.3625H31.9889H33.1464V18.1423H30.3585V17.9159V16.6404Z" fill="white"/>
<path d="M7.02173 31.1377V31.658H23.6667L24.9015 32.8928L26.1369 31.658H42.7818V31.1377H7.02173Z" fill="white"/>
</g>
<defs>
<clipPath id="clip0_344_3074">
<rect width="49.8035" height="49.8035" fill="white"/>
</clipPath>
</defs>
</svg>
