<svg width="20" height="20" viewBox="0 0 20 20" fill="none" xmlns="http://www.w3.org/2000/svg">
<path d="M9.7838 6.92308C10.3148 6.92308 10.7453 6.49258 10.7453 5.96154C10.7453 5.4305 10.3148 5 9.7838 5C9.25276 5 8.82227 5.4305 8.82227 5.96154C8.82227 6.49258 9.25276 6.92308 9.7838 6.92308Z" fill="white"/>
<path d="M10.7686 14.231V8.07715H8.46094V8.46176H9.23017V14.231H8.46094V14.6156H11.5379V14.231H10.7686Z" fill="white"/>
<path d="M10 0C4.47596 0 0 4.47596 0 10C0 15.524 4.47596 20 10 20C15.524 20 20 15.524 20 10C20 4.47596 15.524 0 10 0ZM10 19.1683C4.94712 19.1683 0.831731 15.0577 0.831731 10C0.831731 4.94712 4.94231 0.831731 10 0.831731C15.0529 0.831731 19.1683 4.94231 19.1683 10C19.1683 15.0529 15.0529 19.1683 10 19.1683Z" fill="white"/>
</svg>
