<svg width="23" height="23" viewBox="0 0 23 23" fill="none" xmlns="http://www.w3.org/2000/svg">
<path d="M2.21887 19.9722H19.9698V14.3344H22.1887V21.0997C22.1887 21.3988 22.0718 21.6856 21.8637 21.897C21.6557 22.1085 21.3735 22.2273 21.0793 22.2273H1.10943C0.815194 22.2273 0.533005 22.1085 0.324946 21.897C0.116886 21.6856 0 21.3988 0 21.0997V14.3344H2.21887V19.9722ZM11.0943 9.82416H7.76604C6.71548 9.82341 5.6797 10.0757 4.74362 10.5604C3.80754 11.0451 2.99782 11.7484 2.38085 12.6126C2.77467 10.5576 3.85931 8.70572 5.44897 7.37417C7.03862 6.04263 9.03437 5.3143 11.0943 5.31393V0.803711L19.9698 7.56905L11.0943 14.3344V9.82416Z" fill="white"/>
</svg>
