<svg width="26" height="26" viewBox="0 0 26 26" fill="none" xmlns="http://www.w3.org/2000/svg">
<path d="M13 0.853566C6.302 0.853566 0.853566 6.30273 0.853566 13.0004C0.853566 19.6981 6.302 25.1464 13 25.1464C19.6977 25.1464 25.1464 19.6981 25.1464 13.0004C25.1464 6.30273 19.6977 0.853566 13 0.853566ZM13 23.2305C7.35872 23.2305 2.76945 18.6413 2.76945 13.0003C2.76945 7.35872 7.35872 2.76945 13 2.76945C18.6413 2.76945 23.2305 7.35872 23.2305 13.0003C23.2305 18.6413 18.6413 23.2305 13 23.2305Z" fill="white"/>
<path d="M11.0793 10.6198C11.0793 9.85135 12.2032 9.72013 13.1781 9.72013C14.097 9.72013 15.3525 10.1508 16.4023 10.695L16.6081 8.57701C16.083 8.27686 14.8651 7.92065 13.6279 7.84621L13.9278 5.6906H11.9222L12.2224 7.84621C9.63613 8.08952 8.7925 9.58884 8.7925 10.8447C8.7925 14.0121 14.6959 13.3381 14.6959 15.2865C14.6959 16.0181 14.003 16.2799 12.7844 16.2799C11.1354 16.2799 9.8979 15.6995 9.26113 15.0992L8.94218 17.4798C9.54249 17.836 10.7601 18.1545 12.2224 18.2298L11.9222 20.3102H13.9278L13.6279 18.2106C16.6642 17.9481 17.2076 16.336 17.2076 15.2681C17.2077 11.5011 11.0793 12.4377 11.0793 10.6198Z" fill="white"/>
</svg>
