<svg width="25" height="22" viewBox="0 0 25 22" fill="none" xmlns="http://www.w3.org/2000/svg">
<path d="M24.7627 3.3535C24.5728 3.1289 24.2939 3 24 3H5.5664L4.9663 0.7432C4.8501 0.3047 4.4531 0 4 0H1C0.4478 0 0 0.4473 0 1C0 1.5527 0.4478 2 1 2H3.231L7.0337 16.3047C7.0483 16.3604 7.0796 16.4063 7.103 16.457C7.125 16.5049 7.1396 16.5576 7.1689 16.6015C7.2021 16.6513 7.248 16.6894 7.289 16.7324C7.3232 16.7676 7.3515 16.8095 7.3906 16.8398C7.438 16.875 7.4931 16.8964 7.5459 16.9238C7.5898 16.9472 7.6289 16.9765 7.6758 16.9931C7.7783 17.0283 8 17.0234 8 17.0234V17H22C22.4893 17 22.9063 16.6699 22.9863 16.1875L24.9863 4.1523C25.0347 3.8623 24.9526 3.5771 24.7627 3.3535ZM21.1523 15H8.7817L7.7739 11H21.8242L21.1523 15ZM22.1563 9H7.2759L6.2798 5H22.8203L22.1563 9ZM12 20C12 21.1045 11.1045 22 10 22C8.8955 22 8 21.1045 8 20C8 18.8955 8.8955 18 10 18C11.1045 18 12 18.8955 12 20ZM22 20C22 21.1045 21.1045 22 20 22C18.8955 22 18 21.1045 18 20C18 18.8955 18.8955 18 20 18C21.1045 18 22 18.8955 22 20Z" fill="white"/>
</svg>
