<svg width="20" height="21" viewBox="0 0 20 21" fill="none" xmlns="http://www.w3.org/2000/svg">
<path d="M17.1429 0.4375H2.85714C1.27902 0.4375 0 1.72451 0 3.3125V17.6875C0 19.2755 1.27902 20.5625 2.85714 20.5625H17.1429C18.721 20.5625 20 19.2755 20 17.6875V3.3125C20 1.72451 18.7188 0.4375 17.1429 0.4375ZM17.8571 17.6875C17.8571 18.0844 17.5373 18.4062 17.1429 18.4062H2.85714C2.46268 18.4062 2.14286 18.0844 2.14286 17.6875V3.3125C2.14286 2.91548 2.46268 2.59375 2.85714 2.59375H17.1429C17.5373 2.59375 17.8571 2.91548 17.8571 3.3125V17.6875ZM13.5268 6.86133L8.57143 11.8521L6.43304 9.73633C6.01451 9.31519 5.33661 9.31519 4.91786 9.73633C4.49911 10.1575 4.49933 10.8396 4.91786 11.261L7.775 14.136C8.02232 14.3498 8.29464 14.4531 8.57143 14.4531C8.84822 14.4531 9.11964 14.3478 9.32902 14.1373L15.0433 8.38728C15.4618 7.96614 15.4618 7.284 15.0433 6.86263C14.6248 6.44126 13.9464 6.44355 13.5268 6.86133Z" fill="white"/>
</svg>
