<svg width="33" height="33" viewBox="0 0 33 33" fill="none" xmlns="http://www.w3.org/2000/svg">
<path d="M24.3954 8.13173C19.9043 3.64064 12.623 3.64064 8.13194 8.13173C3.64086 12.6228 3.64086 19.9041 8.13194 24.3952C12.623 28.8863 19.9043 28.8863 24.3954 24.3952C28.8865 19.9041 28.8865 12.6228 24.3954 8.13173ZM9.48723 23.0399C5.74461 19.2973 5.7446 13.2296 9.48723 9.48702C13.2299 5.74439 19.2975 5.74439 23.0401 9.48702C26.7827 13.2296 26.7827 19.2973 23.0401 23.0399C19.2975 26.7825 13.2299 26.7825 9.48723 23.0399Z" fill="black"/>
<path d="M20.669 19.3134L17.6196 16.264L20.6684 13.2152L19.3131 11.8599L16.2644 14.9087L13.215 11.8593L11.8597 13.2146L14.9091 16.264L11.8603 19.3127L13.2156 20.668L16.2644 17.6192L19.3137 20.6686L20.669 19.3134Z" fill="black"/>
</svg>
