<svg width="17" height="22" viewBox="0 0 17 22" fill="none" xmlns="http://www.w3.org/2000/svg">
<path d="M15.7065 22C15.5631 22 15.4223 21.9622 15.2982 21.8905L8.26368 17.8567L1.22915 21.8905C1.10438 21.9621 0.963005 21.9996 0.819185 21.9993C0.675364 21.999 0.534146 21.9609 0.409672 21.8888C0.285197 21.8168 0.181836 21.7133 0.109938 21.5887C0.0380398 21.4642 0.000128381 21.3229 0 21.1791V0.820896C0 0.603181 0.0864868 0.394383 0.240435 0.240435C0.394382 0.086487 0.603181 0 0.820896 0H15.7065C15.9242 0 16.133 0.086487 16.2869 0.240435C16.4409 0.394383 16.5274 0.603181 16.5274 0.820896V21.1791C16.5274 21.3968 16.4409 21.6056 16.2869 21.7596C16.133 21.9135 15.9242 22 15.7065 22ZM8.26368 16.0896C8.40702 16.0896 8.54782 16.1273 8.67194 16.199L14.8856 19.7617V1.64179H1.64179V19.7617L7.85542 16.199C7.97954 16.1273 8.12035 16.0896 8.26368 16.0896Z" fill="white"/>
</svg>
