<svg width="33" height="33" viewBox="0 0 33 33" fill="none" xmlns="http://www.w3.org/2000/svg">
<path d="M16.5002 30.8129C24.4049 30.8129 30.8129 24.4049 30.8129 16.5002C30.8129 8.59552 24.4049 2.1875 16.5002 2.1875C8.59552 2.1875 2.1875 8.59552 2.1875 16.5002C2.1875 24.4049 8.59552 30.8129 16.5002 30.8129Z" fill="#F9BF44"/>
<path d="M16.4973 23.2883C15.2757 23.2936 14.0775 22.9537 13.0405 22.308C12.0035 21.6623 11.1699 20.7368 10.6357 19.6382C10.6055 19.5774 10.5877 19.5113 10.5832 19.4435C10.5787 19.3758 10.5875 19.3079 10.6093 19.2436C10.6311 19.1793 10.6654 19.12 10.7102 19.069C10.7549 19.018 10.8094 18.9763 10.8703 18.9464C10.9312 18.9165 10.9974 18.8989 11.0651 18.8946C11.1329 18.8903 11.2008 18.8994 11.265 18.9215C11.3292 18.9435 11.3884 18.978 11.4392 19.0229C11.4901 19.0679 11.5315 19.1224 11.5612 19.1834C12.0146 20.1058 12.7174 20.8827 13.5899 21.426C14.4623 21.9693 15.4695 22.2573 16.4973 22.2573C17.5251 22.2573 18.5323 21.9693 19.4048 21.426C20.2772 20.8827 20.98 20.1058 21.4334 19.1834C21.4631 19.1224 21.5046 19.0679 21.5554 19.0229C21.6063 18.978 21.6655 18.9435 21.7297 18.9215C21.7939 18.8994 21.8618 18.8903 21.9295 18.8946C21.9972 18.8989 22.0635 18.9165 22.1244 18.9464C22.1853 18.9763 22.2397 19.018 22.2845 19.069C22.3292 19.12 22.3635 19.1793 22.3853 19.2436C22.4071 19.3079 22.416 19.3758 22.4115 19.4435C22.4069 19.5113 22.3891 19.5774 22.3589 19.6382C21.8247 20.7368 20.9911 21.6623 19.9541 22.308C18.9172 22.9537 17.7189 23.2936 16.4973 23.2883Z" fill="#382A12"/>
<path d="M10.8281 16.8171C11.5401 16.8171 12.1172 16.1546 12.1172 15.3373C12.1172 14.52 11.5401 13.8574 10.8281 13.8574C10.1162 13.8574 9.53906 14.52 9.53906 15.3373C9.53906 16.1546 10.1162 16.8171 10.8281 16.8171Z" fill="#382A12"/>
<path d="M22.168 16.8171C22.8799 16.8171 23.457 16.1546 23.457 15.3373C23.457 14.52 22.8799 13.8574 22.168 13.8574C21.456 13.8574 20.8789 14.52 20.8789 15.3373C20.8789 16.1546 21.456 16.8171 22.168 16.8171Z" fill="#382A12"/>
</svg>
