<svg width="27" height="27" viewBox="0 0 27 27" fill="none" xmlns="http://www.w3.org/2000/svg">
<path d="M13.5 25.5C20.1274 25.5 25.5 20.1274 25.5 13.5C25.5 6.87258 20.1274 1.5 13.5 1.5C6.87258 1.5 1.5 6.87258 1.5 13.5C1.5 20.1274 6.87258 25.5 13.5 25.5Z" stroke="white" stroke-width="2" stroke-miterlimit="10" stroke-linecap="round"/>
<path d="M15.9665 18.7638C15.8935 17.9578 15.9215 17.3953 15.9215 16.6588C16.2865 16.4673 16.9405 15.2463 17.051 14.2148C17.338 14.1913 17.7905 13.9113 17.923 12.8058C17.9945 12.2123 17.7105 11.8783 17.5375 11.7733C18.0045 10.3688 18.9745 6.02381 15.7435 5.57481C15.411 4.99081 14.5595 4.69531 13.453 4.69531C9.026 4.77681 8.492 8.03831 9.4625 11.7733C9.29 11.8783 9.006 12.2123 9.077 12.8058C9.21 13.9113 9.662 14.1913 9.949 14.2148C10.059 15.2458 10.739 16.4673 11.105 16.6588C11.105 17.3953 11.1325 17.9578 11.0595 18.7638C10.429 20.4588 7.191 20.5913 5.323 22.2258C7.276 24.1923 10.441 25.5988 13.781 25.5988C17.121 25.5988 21.047 22.9618 21.7005 22.2423C19.844 20.5928 16.5985 20.4648 15.9665 18.7638Z" fill="white"/>
</svg>
