<svg width="20" height="20" viewBox="0 0 20 20" fill="none" xmlns="http://www.w3.org/2000/svg">
<path d="M2 17.2777H18V12.196H20V18.294C20 18.5636 19.8946 18.8221 19.7071 19.0127C19.5196 19.2033 19.2652 19.3103 19 19.3103H1C0.734784 19.3103 0.48043 19.2033 0.292893 19.0127C0.105357 18.8221 0 18.5636 0 18.294V12.196H2V17.2777ZM10 8.13067H7C6.05306 8.13 5.11945 8.35743 4.27571 8.79432C3.43197 9.23121 2.70212 9.86511 2.146 10.6441C2.50098 8.79177 3.47863 7.12255 4.91148 5.92235C6.34433 4.72215 8.14322 4.06566 10 4.06534V0L18 6.098L10 12.196V8.13067Z" fill="white"/>
</svg>
