<svg width="27" height="27" viewBox="0 0 27 27" fill="none" xmlns="http://www.w3.org/2000/svg">
<path d="M13.5 25.5C20.1274 25.5 25.5 20.1274 25.5 13.5C25.5 6.87258 20.1274 1.5 13.5 1.5C6.87258 1.5 1.5 6.87258 1.5 13.5C1.5 20.1274 6.87258 25.5 13.5 25.5Z" stroke="white" stroke-width="2" stroke-miterlimit="10" stroke-linecap="round"/>
<path d="M15.9658 18.7638C15.8928 17.9578 15.9208 17.3953 15.9208 16.6588C16.2858 16.4673 16.9398 15.2463 17.0503 14.2148C17.3373 14.1913 17.7898 13.9113 17.9223 12.8058C17.9938 12.2123 17.7098 11.8783 17.5368 11.7733C18.0038 10.3688 18.9738 6.02381 15.7428 5.57481C15.4103 4.99081 14.5588 4.69531 13.4523 4.69531C9.02527 4.77681 8.49127 8.03831 9.46177 11.7733C9.28927 11.8783 9.00527 12.2123 9.07627 12.8058C9.20927 13.9113 9.66127 14.1913 9.94827 14.2148C10.0583 15.2458 10.7383 16.4673 11.1043 16.6588C11.1043 17.3953 11.1318 17.9578 11.0588 18.7638C10.4283 20.4588 7.19027 20.5913 5.32227 22.2258C7.27527 24.1923 10.4403 25.5988 13.7803 25.5988C17.1203 25.5988 21.0463 22.9618 21.6998 22.2423C19.8433 20.5928 16.5978 20.4648 15.9658 18.7638Z" fill="white"/>
</svg>
