<svg width="24" height="21" viewBox="0 0 24 21" fill="none" xmlns="http://www.w3.org/2000/svg">
<path fill-rule="evenodd" clip-rule="evenodd" d="M23 20.219H1C0.7235 20.219 0.5 19.9955 0.5 19.719C0.5 19.4425 0.7235 19.219 1 19.219H23C23.2765 19.219 23.5 19.4425 23.5 19.719C23.5 19.9955 23.2765 20.219 23 20.219ZM8 15.219C8.2765 15.219 8.5 15.4425 8.5 15.719C8.5 15.9955 8.2765 16.219 8 16.219H4C3.7235 16.219 3.5 15.9955 3.5 15.719C3.5 15.4425 3.7235 15.219 4 15.219H4.5V8.719H4C3.7235 8.719 3.5 8.4955 3.5 8.219C3.5 7.943 3.7235 7.719 4 7.719H8C8.2765 7.719 8.5 7.943 8.5 8.219C8.5 8.4955 8.2765 8.719 8 8.719H7.5V15.219H8ZM6.5 8.719H5.5V15.219H6.5V8.719ZM14 15.219C14.2765 15.219 14.5 15.4425 14.5 15.719C14.5 15.9955 14.2765 16.219 14 16.219H10C9.7235 16.219 9.5 15.9955 9.5 15.719C9.5 15.4425 9.7235 15.219 10 15.219H10.5V8.719H10C9.7235 8.719 9.5 8.4955 9.5 8.219C9.5 7.943 9.7235 7.719 10 7.719H14C14.2765 7.719 14.5 7.943 14.5 8.219C14.5 8.4955 14.2765 8.719 14 8.719H13.5V15.219H14ZM12.5 8.719H11.5V15.219H12.5V8.719ZM22 17.719C22 17.9955 21.7765 18.219 21.5 18.219H2.5C2.2235 18.219 2 17.9955 2 17.719C2 17.4425 2.2235 17.219 2.5 17.219H21.5C21.7765 17.219 22 17.4425 22 17.719ZM20 15.219C20.2765 15.219 20.5 15.4425 20.5 15.719C20.5 15.9955 20.2765 16.219 20 16.219H16C15.7235 16.219 15.5 15.9955 15.5 15.719C15.5 15.4425 15.7235 15.219 16 15.219H16.5V8.719H16C15.7235 8.719 15.5 8.4955 15.5 8.219C15.5 7.943 15.7235 7.719 16 7.719H20C20.2765 7.719 20.5 7.943 20.5 8.219C20.5 8.4955 20.2765 8.719 20 8.719H19.5V15.219H20ZM18.5 8.719H17.5V15.219H18.5V8.719ZM1.5 5.719L12 0L22.5 5.719V6.719H1.5V5.719ZM20.2705 5.719L12 1.443L3.698 5.719H20.2705Z" fill="black"/>
</svg>
