<svg width="30" height="30" viewBox="0 0 30 30" fill="none" xmlns="http://www.w3.org/2000/svg">
<circle cx="15" cy="15" r="15" fill="#222326"/>
<path d="M14.8406 11.7695C13.174 11.7695 11.7932 13.1266 11.7932 14.8169C11.7932 16.5072 13.1502 17.8642 14.8406 17.8642C16.5309 17.8642 17.8879 16.4834 17.8879 14.8169C17.8879 13.1504 16.5071 11.7695 14.8406 11.7695ZM14.8406 16.7691C13.7692 16.7691 12.8884 15.8882 12.8884 14.8169C12.8884 13.7456 13.7692 12.8647 14.8406 12.8647C15.9119 12.8647 16.7928 13.7456 16.7928 14.8169C16.7928 15.8882 15.9119 16.7691 14.8406 16.7691Z" fill="white"/>
<path d="M18.0068 12.3886C18.3881 12.3886 18.6972 12.0795 18.6972 11.6982C18.6972 11.3169 18.3881 11.0078 18.0068 11.0078C17.6255 11.0078 17.3164 11.3169 17.3164 11.6982C17.3164 12.0795 17.6255 12.3886 18.0068 12.3886Z" fill="white"/>
<path d="M19.7925 9.91165C19.1735 9.26885 18.2926 8.93555 17.2927 8.93555H12.3884C10.3171 8.93555 8.93628 10.3164 8.93628 12.3876V17.2682C8.93628 18.2919 9.26958 19.1728 9.93619 19.8156C10.579 20.4346 11.4361 20.7441 12.4122 20.7441H17.2689C18.2926 20.7441 19.1497 20.4108 19.7687 19.8156C20.4115 19.1966 20.7448 18.3157 20.7448 17.292V12.3876C20.7448 11.3877 20.4115 10.5306 19.7925 9.91165ZM19.6973 17.292C19.6973 18.03 19.4354 18.6252 19.0068 19.0299C18.5783 19.4346 17.9831 19.6489 17.2689 19.6489H12.4122C11.6979 19.6489 11.1028 19.4346 10.6742 19.0299C10.2457 18.6014 10.0314 18.0062 10.0314 17.2682V12.3876C10.0314 11.6734 10.2457 11.0782 10.6742 10.6497C11.079 10.245 11.6979 10.0307 12.4122 10.0307H17.3165C18.0307 10.0307 18.6259 10.245 19.0545 10.6735C19.4592 11.102 19.6973 11.6972 19.6973 12.3876V17.292Z" fill="white"/>
</svg>
