<svg width="23" height="23" viewBox="0 0 23 23" fill="none" xmlns="http://www.w3.org/2000/svg">
<path d="M11.5 0C5.14865 0 0 5.14865 0 11.5C0 17.8514 5.14865 23 11.5 23C17.8514 23 23 17.8514 23 11.5C23 5.14865 17.8514 0 11.5 0ZM11.5 21.0833C6.20713 21.0833 1.91667 16.7929 1.91667 11.5C1.91667 6.20713 6.20713 1.91667 11.5 1.91667C16.7929 1.91667 21.0833 6.20713 21.0833 11.5C21.0833 16.7929 16.7929 21.0833 11.5 21.0833Z" fill="white"/>
<path d="M16.7712 10.542H12.4587V6.23047H10.542V10.542H6.22949V12.4587H10.542V16.7702H12.4587V12.4587H16.7712V10.542Z" fill="white"/>
</svg>
