<svg width="25" height="25" viewBox="0 0 25 25" fill="none" xmlns="http://www.w3.org/2000/svg">
<path d="M24.5025 12.8002C24.5025 11.956 24.4208 11.0846 24.2846 10.2676H12.4929V15.0877H19.2466C18.9743 16.64 18.0756 18.0016 16.7412 18.8731L20.7716 22.0048C23.1409 19.799 24.5025 16.5855 24.5025 12.8002Z" fill="#4280EF"/>
<path d="M12.493 24.9999C15.8698 24.9999 18.702 23.8834 20.7717 21.9771L16.7413 18.8726C15.6248 19.6351 14.1814 20.0708 12.493 20.0708C9.22509 20.0708 6.4746 17.8649 5.46699 14.9238L1.32764 18.11C3.45178 22.3311 7.75453 24.9999 12.493 24.9999Z" fill="#159051"/>
<path d="M5.46694 14.897C4.94952 13.3448 4.94952 11.6563 5.46694 10.1041L1.32759 6.89062C-0.44253 10.4309 -0.44253 14.5974 1.32759 18.1105L5.46694 14.897Z" fill="#F6B704"/>
<path d="M12.493 4.95681C14.2631 4.92958 16.006 5.61039 17.2859 6.83586L20.8534 3.24115C18.5931 1.11701 15.5975 -0.0267573 12.493 0.000475287C7.75453 0.000475287 3.45178 2.66927 1.32764 6.89032L5.46699 10.1038C6.4746 7.13542 9.22509 4.95681 12.493 4.95681Z" fill="#E54335"/>
</svg>
