<svg width="201" height="45" viewBox="0 0 201 45" fill="none" xmlns="http://www.w3.org/2000/svg">
<g clip-path="url(#clip0_301_4929)">
<path d="M23.5277 45.0004C23.009 44.743 22.5164 44.436 22.0568 44.0837C18.2804 40.499 14.5314 36.887 10.7687 33.2886L1.10195 24.0464L0.848828 23.807C-0.314192 22.6509 -0.314192 22.2541 0.848828 21.1117L21.7832 0.951282L21.9405 0.807606C23.1241 -0.273269 23.7261 -0.280113 24.937 0.869173C28.2209 3.97954 31.4933 7.10589 34.7543 10.2482C38.517 13.8465 42.2752 17.4494 46.0288 21.0569C46.2507 21.2714 46.4586 21.4999 46.6513 21.741C46.7432 21.8297 46.8162 21.936 46.8661 22.0535C46.916 22.1711 46.9418 22.2974 46.9418 22.4251C46.9418 22.5528 46.916 22.6792 46.8661 22.7967C46.8162 22.9142 46.7432 23.0205 46.6513 23.1092C46.1793 23.6291 45.6935 24.1354 45.1873 24.6279C38.4691 31.1041 31.7464 37.5802 25.0191 44.0563C24.5509 44.4145 24.0518 44.7304 23.5277 45.0004ZM23.4046 1.90217L2.12815 22.4593L23.5277 42.907L44.811 22.3841L23.4046 1.90217Z" fill="white"/>
<path d="M17.6985 15.8165V21.4671C18.3074 21.5424 18.6426 21.2961 18.7247 20.7488C18.8273 20.0647 18.9095 19.3806 18.9642 18.6555C18.9545 18.5633 18.9656 18.47 18.9965 18.3826C19.0275 18.2952 19.0776 18.2159 19.1431 18.1503C19.2087 18.0847 19.2881 18.0347 19.3755 18.0037C19.4629 17.9727 19.5561 17.9617 19.6483 17.9714C20.1477 17.9714 20.3325 18.2382 20.3325 18.6555C20.3325 21.5332 20.3325 24.4156 20.3325 27.3025C20.3325 27.795 20.1135 28.0276 19.6004 28.0208C19.0873 28.0139 19.0052 27.7061 18.9915 27.2751C18.9915 26.591 18.9231 25.9069 18.8616 25.1749C18.8 24.4429 18.4579 24.1419 17.6712 24.1488C17.6712 25.1476 17.6712 26.1463 17.6712 27.1451C17.6712 27.9934 17.6712 28.8349 17.6712 29.6763C17.6712 30.2509 17.808 30.723 18.5537 30.6272C18.6223 30.6027 18.6972 30.6027 18.7658 30.6272C19.4978 31.065 19.0463 31.7697 19.1147 32.3511C19.1557 32.7 19.0394 33.0694 18.5468 33.0694C17.2812 33.0694 16.0087 33.0694 14.7431 33.0215C14.6173 32.9942 14.5003 32.9362 14.4024 32.8526C14.3046 32.7691 14.2289 32.6626 14.1821 32.5427C14.1138 32.0319 14.1138 31.5143 14.1821 31.0035C14.2184 30.907 14.279 30.8217 14.3582 30.7557C14.4373 30.6898 14.5323 30.6455 14.6336 30.6272C15.3178 30.6272 15.4683 30.2167 15.4957 29.6695C15.4957 29.389 15.4957 29.1085 15.4957 28.828C15.4957 24.8466 15.4957 20.8583 15.4957 16.8768C15.4957 16.2406 15.4273 15.878 14.6063 15.6865C13.7853 15.4949 14.3395 14.4825 14.1889 13.8531C14.1068 13.5111 14.2984 13.2716 14.6952 13.2785C17.1376 13.2785 19.5799 13.2785 22.0222 13.3127C22.7064 13.3127 22.6653 13.8121 22.6653 14.2704L22.5832 20.0989C22.5832 20.3862 22.5832 20.6667 22.5832 20.9472C22.5832 21.3645 22.5832 21.7613 22.0017 21.7887C21.4202 21.816 21.3176 21.4192 21.3176 20.9609C21.2629 19.9826 21.215 18.9975 21.1397 18.0193C21.0097 16.3022 20.4077 15.7686 18.6768 15.7617L17.6985 15.8165Z" fill="white"/>
<path d="M28.0359 27.1103C28.2959 25.6395 28.5832 24.1756 28.8226 22.7047C29.1373 20.7687 29.411 18.8259 29.7052 16.8831C29.8009 16.281 29.7052 15.8843 28.9321 15.8843C28.7405 15.8843 28.549 15.5149 28.3574 15.3165C28.3574 15.3165 28.3574 15.2686 28.3574 15.2481C28.1316 13.5515 28.1932 13.4899 29.9035 13.4899C30.6561 13.4899 31.4086 13.4899 32.1543 13.4899C32.3381 13.4753 32.5214 13.5236 32.6743 13.6268C33.0642 13.9757 32.7495 15.6791 32.3459 15.9937C32.022 16.2235 31.7819 16.5525 31.6618 16.9309C30.8271 21.5349 30.0335 26.1389 29.2331 30.7429C29.1615 31.3688 29.0542 31.99 28.9116 32.6036C28.8598 32.7448 28.7761 32.872 28.6669 32.9753C28.5576 33.0785 28.426 33.1551 28.2822 33.1988C26.9139 33.4109 26.7702 33.3083 26.5513 31.9743C25.9014 27.986 25.2857 23.9909 24.6426 19.9957C24.4716 18.908 24.3074 17.8271 24.0679 16.7531C24.0294 16.5894 23.9572 16.4355 23.8559 16.3012C23.7546 16.1669 23.6264 16.0552 23.4796 15.9732C23.2785 15.9126 23.1079 15.7778 23.0025 15.5962C22.8971 15.4146 22.8646 15.1996 22.9117 14.995C23.0007 13.3189 22.7476 13.3668 24.6015 13.3736C25.402 13.3736 26.1956 13.3736 26.996 13.3736C27.5707 13.3736 27.8991 13.5583 27.8238 14.1946C27.7952 14.4217 27.7952 14.6515 27.8238 14.8787C27.9059 15.5628 27.7075 15.9458 26.9208 15.9253C26.3803 15.9253 26.3803 16.3495 26.435 16.7394C26.7725 19.1474 27.1169 21.5532 27.4681 23.9566C27.6254 24.9965 27.8033 26.0089 27.9675 27.0624L28.0359 27.1103Z" fill="white"/>
<path d="M57.9175 27.8565V16.7057C57.974 15.786 57.8886 14.863 57.6644 13.9693C57.5202 13.7335 57.3259 13.5323 57.0954 13.3798C56.8649 13.2273 56.6037 13.1273 56.3303 13.0868C55.8871 13.0026 55.4869 12.7668 55.1985 12.4197C54.9102 12.0727 54.7516 11.6362 54.75 11.185C54.75 9.86698 55.612 9.20795 57.336 9.20795L59.4226 9.29004C60.5309 9.29004 62.1751 9.18289 64.3552 8.96854C66.5444 8.74962 68.1863 8.64701 69.2878 8.64701C70.5029 8.59775 71.7154 8.79613 72.8515 9.23008C73.9876 9.66404 75.0236 10.3245 75.8964 11.1713C76.7417 12.0332 77.4026 13.0581 77.839 14.1837C78.2753 15.3092 78.478 16.5118 78.4346 17.7181C78.488 18.974 78.2925 20.228 77.8592 21.4079C77.426 22.5879 76.7636 23.6705 75.9101 24.5933C75.0659 25.4687 74.0462 26.1558 72.918 26.6097C71.7897 27.0636 70.5782 27.274 69.363 27.2271C68.8318 27.2152 68.3018 27.1718 67.7758 27.0971C67.2747 27.025 66.7699 26.9816 66.2639 26.9672C65.8808 26.9672 65.6892 27.1998 65.6892 27.6513C65.6892 28.1028 65.6892 28.739 65.7645 29.7036C65.8397 30.6681 65.8329 31.1949 65.8329 31.277C65.7967 31.7973 65.8957 32.3181 66.1202 32.7888C66.4225 33.2055 66.8186 33.5453 67.2764 33.7808C67.5747 33.9243 67.8306 34.1429 68.0189 34.4151C68.2072 34.6874 68.3215 35.0039 68.3505 35.3337C68.3505 37.2264 66.143 38.175 61.7281 38.1795C60.1277 38.254 58.5277 38.0218 57.0145 37.4954C55.9335 37.0371 55.3931 36.3735 55.3931 35.5116C55.3886 35.1814 55.4824 34.8574 55.6627 34.5809C55.8431 34.3043 56.1017 34.0877 56.4056 33.9587C56.9252 33.6843 57.3551 33.2664 57.6439 32.7546C57.8537 32.1743 57.9467 31.5582 57.9175 30.9418V27.8565ZM65.8329 14.024V21.2139C65.8095 21.4001 65.8261 21.5892 65.8815 21.7685C65.937 21.9478 66.03 22.1132 66.1544 22.2537C66.5148 22.4614 66.9307 22.5522 67.3448 22.5137C69.4565 22.5137 70.5123 21.0109 70.5123 18.0055C70.5778 16.7754 70.2573 15.5556 69.5956 14.5166C69.3248 14.1149 68.9573 13.7878 68.5269 13.5654C68.0965 13.3431 67.617 13.2326 67.1327 13.2442C66.2639 13.2168 65.8329 13.4904 65.8329 13.9966V14.024Z" fill="white"/>
<path d="M89.3055 30.3325V31.3655C89.2999 31.922 89.3411 32.4781 89.4287 33.0278C89.4954 33.461 89.6747 33.8691 89.9486 34.2113C89.9486 34.2113 90.0991 34.4371 90.3317 34.7928C90.5332 35.0788 90.6516 35.415 90.6738 35.7642C90.6738 37.3741 88.9452 38.1791 85.4881 38.1791C81.4563 38.1791 79.4403 37.3445 79.4403 35.6753C79.4303 35.3881 79.5065 35.1046 79.6593 34.8612C79.9469 34.5101 80.2577 34.1787 80.5897 33.8693C81.081 33.249 81.3764 32.4964 81.438 31.7075C81.6738 30.1686 81.7767 28.6122 81.7459 27.0556C81.7459 26.2484 81.7459 25.4685 81.7459 24.7023C81.7459 23.9362 81.7459 23.2042 81.8006 22.4859C81.8444 20.4569 81.7851 18.4271 81.6227 16.4042C81.5956 16.0604 81.4865 15.7282 81.3043 15.4353C81.1222 15.1425 80.8724 14.8976 80.576 14.7213C80.2769 14.5568 80.0221 14.322 79.8338 14.0372C79.6455 13.7524 79.5293 13.4261 79.4951 13.0863C79.4951 11.8504 80.779 10.8015 83.3467 9.93949C84.9999 9.33591 86.7391 9.00102 88.4982 8.94754C88.6369 8.93004 88.7777 8.94497 88.9096 8.99113C89.0415 9.03728 89.1609 9.11342 89.2584 9.21355C89.3559 9.31368 89.4288 9.43508 89.4714 9.56817C89.514 9.70126 89.5251 9.84241 89.5039 9.98053L89.2918 18.8738C89.2918 19.9136 89.5792 20.4267 90.1538 20.4267C90.8126 19.5225 91.5598 18.6861 92.3841 17.9298C93.2227 17.1422 94.3328 16.7084 95.4832 16.7189C96.3422 16.7206 97.1902 16.9122 97.9666 17.2799C98.7266 17.6296 99.3977 18.1464 99.93 18.7917C100.451 19.4322 100.818 20.1833 101.004 20.9877C101.24 22.1374 101.343 23.3103 101.312 24.4834L101.456 32.1522C101.531 33.192 101.729 33.8556 102.071 34.1634C102.368 34.4239 102.638 34.7126 102.879 35.0254C103.081 35.2904 103.19 35.6154 103.186 35.9489C103.186 37.4494 101.289 38.1973 97.4945 38.1927C94.042 38.1927 92.3157 37.5086 92.3157 36.1405C92.3326 35.8262 92.4317 35.522 92.603 35.258L93.034 34.5055C93.3276 33.8804 93.5105 33.2092 93.5745 32.5216C93.7097 31.2905 93.7691 30.0522 93.7524 28.8138C93.8354 27.2684 93.6408 25.7207 93.1777 24.244C93.044 23.8374 92.7827 23.4847 92.4327 23.2382C92.0828 22.9918 91.6626 22.8647 91.2347 22.8758C90.9383 22.8583 90.6429 22.924 90.3818 23.0654C90.1207 23.2069 89.9043 23.4184 89.757 23.6762C89.3843 24.5063 89.2244 25.4162 89.2918 26.3237L89.3055 30.3325Z" fill="white"/>
<path d="M121.843 24.6688V27.5078C121.809 28.7664 121.886 30.0256 122.076 31.2703C122.233 32.0023 122.466 32.3991 122.76 32.4538C123.025 32.4994 123.284 32.5727 123.533 32.6727C123.738 32.7548 123.841 33.0148 123.841 33.4458C123.832 34.1292 123.669 34.8018 123.363 35.4131C123.057 36.0245 122.617 36.5587 122.076 36.9757C121.169 37.8306 119.977 38.3182 118.73 38.3439C118.275 38.3419 117.825 38.2448 117.409 38.0586C116.993 37.8725 116.62 37.6015 116.315 37.263C115.631 36.5447 115.2 36.189 115.057 36.189C114.289 36.7478 113.482 37.2508 112.642 37.694C111.882 38.1156 111.028 38.3391 110.158 38.3439C109.402 38.3653 108.65 38.2353 107.945 37.9616C107.24 37.6878 106.597 37.2759 106.054 36.75C105.514 36.2152 105.092 35.5742 104.814 34.8675C104.536 34.1609 104.409 33.4041 104.439 32.6454C104.394 31.586 104.635 30.534 105.139 29.6008C105.642 28.6675 106.388 27.8876 107.299 27.3436C108.976 26.3523 110.9 25.8588 112.847 25.9207C113.3 25.9761 113.76 25.8951 114.167 25.6881C114.352 25.5307 114.441 25.1203 114.441 24.4636C114.441 21.7272 113.885 20.359 112.772 20.359C112.192 20.359 111.419 21.0841 110.452 22.5344C109.481 23.9847 108.516 24.7098 107.545 24.7098C107.274 24.721 107.004 24.6756 106.752 24.5767C106.5 24.4777 106.272 24.3274 106.081 24.1352C105.893 23.9387 105.746 23.707 105.649 23.4533C105.551 23.1996 105.505 22.9292 105.513 22.6575C105.513 20.8857 106.656 19.3944 108.934 18.1972C110.602 17.2779 112.468 16.7757 114.373 16.7332C116.374 16.6282 118.338 17.3081 119.846 18.6282C120.574 19.2333 121.126 20.0222 121.446 20.9131C121.764 22.1384 121.898 23.4041 121.843 24.6688ZM111.547 31.5098C111.527 32.0723 111.677 32.6279 111.978 33.1037C112.083 33.3021 112.238 33.4697 112.427 33.5897C112.617 33.7097 112.835 33.778 113.059 33.7878C113.976 33.7878 114.427 32.8096 114.427 30.853C114.458 30.3223 114.398 29.7901 114.249 29.2796C114.182 29.1402 114.072 29.0256 113.936 28.952C113.8 28.8783 113.644 28.8493 113.49 28.8692C113.215 28.8759 112.946 28.9507 112.708 29.0868C112.469 29.2229 112.268 29.4161 112.122 29.649C111.727 30.1978 111.525 30.8616 111.547 31.5371V31.5098Z" fill="white"/>
<path d="M143.66 23.3484L139.144 33.952C138.662 35.1542 138.052 36.301 137.325 37.3725C137.157 37.6453 136.929 37.8753 136.657 38.044C136.385 38.2126 136.077 38.3153 135.758 38.3439C134.727 38.3439 133.649 37.0213 132.522 34.3761L127.514 22.9995C127.087 22.0997 126.362 21.3749 125.462 20.9473C125.134 20.8324 124.846 20.6242 124.635 20.3484C124.424 20.0725 124.297 19.741 124.271 19.3944C124.271 18.5324 124.826 17.8962 125.927 17.4994C127.634 17.0156 129.408 16.81 131.181 16.8906C135.067 16.8906 137.017 17.5747 137.017 18.9428C136.96 19.4591 136.731 19.9412 136.367 20.311C135.987 20.6743 135.746 21.1578 135.683 21.6792C135.747 22.5415 135.991 23.3806 136.401 24.142C136.887 25.1476 137.366 25.647 137.845 25.647C137.975 25.6434 138.103 25.613 138.22 25.5577C138.338 25.5024 138.443 25.4233 138.529 25.3255C138.839 24.9267 139.088 24.4841 139.268 24.012C139.439 23.581 139.623 23.1159 139.829 22.6438C140.015 22.2371 140.119 21.7978 140.136 21.3509C140.023 20.7882 139.761 20.2661 139.377 19.839C139.149 19.5555 139.01 19.21 138.98 18.8471C138.977 18.5166 139.077 18.1934 139.267 17.9233C139.458 17.6532 139.728 17.4498 140.041 17.3421C141.183 16.9591 142.388 16.7966 143.591 16.8632C144.571 16.8019 145.553 16.9487 146.471 17.2942C146.746 17.4242 146.976 17.6341 147.13 17.8965C147.283 18.1589 147.354 18.4616 147.333 18.765C147.347 19.0967 147.245 19.4229 147.046 19.6885C146.729 20.0126 146.333 20.2484 145.897 20.3726C145.438 20.5119 145.022 20.7635 144.686 21.1046C144.262 21.8123 143.918 22.5649 143.66 23.3484Z" fill="white"/>
<path d="M157.91 18.1699V30.4152C157.88 31.1221 157.965 31.8293 158.163 32.5086C158.364 32.9957 158.673 33.4308 159.066 33.781C159.336 34.0328 159.566 34.3233 159.751 34.643C159.888 34.8778 159.963 35.1439 159.969 35.416C159.969 37.2402 158.072 38.1524 154.278 38.1524C152.636 38.2284 150.993 38.0249 149.42 37.5504C148.387 37.1468 147.874 36.5106 147.874 35.6486C147.871 35.2283 148.008 34.8191 148.264 34.4856C148.387 34.3419 148.661 34.0683 149.092 33.6647C149.523 33.2522 149.798 32.7037 149.872 32.1118C150.049 31.0588 150.127 29.9915 150.104 28.9239L150.029 26.078C150.053 25.3449 150.023 24.6109 149.94 23.8821C149.864 23.5659 149.695 23.2799 149.454 23.0612C148.976 22.7191 148.627 22.4592 148.415 22.2813C148.227 22.1411 148.073 21.9596 147.967 21.7509C147.86 21.5421 147.803 21.3117 147.799 21.0773C147.806 20.7113 147.906 20.3532 148.089 20.0362C148.272 19.7192 148.532 19.4537 148.846 19.2644C150.118 18.5347 151.486 17.9845 152.909 17.6294L154.565 17.1984C155.339 17.0054 156.134 16.9089 156.932 16.9111C157.072 16.9041 157.212 16.9302 157.341 16.9873C157.469 17.0443 157.582 17.1307 157.671 17.2395C157.852 17.5143 157.936 17.8417 157.91 18.1699ZM154.312 8.9482C155.087 8.92731 155.854 9.10387 156.542 9.46128C156.919 9.65259 157.235 9.94695 157.451 10.3102C157.668 10.6735 157.777 11.0907 157.767 11.5136C157.767 12.6355 157.144 13.5659 155.899 14.3799C154.507 15.2089 152.907 15.6198 151.288 15.5634C150.48 15.6135 149.681 15.3707 149.037 14.8793C148.763 14.6522 148.544 14.3651 148.398 14.0401C148.252 13.7151 148.183 13.3609 148.196 13.0049C148.224 12.4207 148.401 11.8532 148.708 11.3555C149.016 10.8578 149.444 10.4462 149.954 10.1591C151.249 9.32139 152.77 8.89895 154.312 8.9482Z" fill="white"/>
<path d="M175.555 31.1059C175.794 30.9349 176.007 30.7912 176.198 30.6749C176.37 30.5655 176.569 30.5063 176.773 30.5039C177.005 30.5123 177.23 30.5796 177.429 30.6992C177.628 30.8189 177.793 30.9871 177.908 31.188C178.223 31.6815 178.38 32.2587 178.36 32.8435C178.36 34.287 177.566 35.5799 175.986 36.6813C174.361 37.8154 172.419 38.4047 170.438 38.3642C169.179 38.3729 167.934 38.0989 166.795 37.5626C165.656 37.0263 164.652 36.2412 163.856 35.2652C162.036 33.203 161.059 30.5311 161.12 27.7812C161.021 24.8882 162.04 22.0682 163.966 19.9072C164.858 18.8916 165.961 18.0835 167.199 17.5398C168.436 16.9962 169.777 16.7301 171.129 16.7604C173.139 16.7029 175.106 17.3489 176.691 18.5869C177.394 19.0964 177.968 19.7646 178.365 20.5371C178.762 21.3097 178.971 22.165 178.976 23.0336C179.016 24.0822 178.676 25.11 178.018 25.9273C177.728 26.2914 177.358 26.5839 176.937 26.782C176.516 26.9801 176.055 27.0786 175.589 27.0697C174.394 27.0697 173.411 25.9569 172.641 23.7313C172.251 22.6505 171.676 22.11 170.91 22.11C170.578 22.1175 170.253 22.2101 169.966 22.379C169.68 22.5479 169.442 22.7874 169.275 23.0746C168.799 23.8081 168.56 24.6703 168.591 25.5442C168.563 27.0791 169.044 28.5799 169.959 29.813C170.298 30.3554 170.766 30.8058 171.321 31.1244C171.876 31.443 172.501 31.6199 173.14 31.6395C173.977 31.662 174.806 31.4788 175.555 31.1059Z" fill="white"/>
<path d="M190.743 16.7466C192.012 16.7324 193.272 16.9726 194.447 17.4532C195.622 17.9338 196.689 18.6449 197.584 19.5446C198.606 20.5439 199.408 21.7448 199.941 23.0709C200.473 24.397 200.724 25.8193 200.677 27.2475C200.705 28.7153 200.428 30.1729 199.864 31.5282C199.3 32.8836 198.461 34.1071 197.4 35.1215C196.34 36.1795 195.076 37.0113 193.684 37.5664C192.293 38.1214 190.804 38.3881 189.306 38.3504C188.077 38.3836 186.855 38.1508 185.724 37.6679C184.592 37.185 183.579 36.4634 182.752 35.5525C181.017 33.6385 180.099 31.1221 180.194 28.5405C180.081 25.4518 181.133 22.4336 183.142 20.085C184.085 19.0027 185.255 18.1422 186.569 17.5651C187.883 16.9879 189.308 16.7084 190.743 16.7466ZM189.594 21.6995C189.357 21.6982 189.125 21.7611 188.921 21.8816C188.717 22.002 188.55 22.1756 188.438 22.3836C188.127 22.9331 187.978 23.5591 188.007 24.1896C188.035 25.3394 188.168 26.4843 188.403 27.6101C188.641 28.9052 188.966 30.1827 189.375 31.4342C189.71 32.5766 190.285 33.1513 191.106 33.1513C192.159 33.1513 192.686 32.2962 192.686 30.5722C192.676 29.3691 192.557 28.1693 192.33 26.9876C192.089 25.6983 191.75 24.4291 191.318 23.1908C191.192 22.7829 190.955 22.4182 190.634 22.1373C190.356 21.8639 189.984 21.7072 189.594 21.6995Z" fill="white"/>
</g>
<defs>
<clipPath id="clip0_301_4929">
<rect width="200.676" height="45" fill="white"/>
</clipPath>
</defs>
</svg>
