<svg width="145" height="33" viewBox="0 0 145 33" fill="none" xmlns="http://www.w3.org/2000/svg">
<g clip-path="url(#clip0_301_4947)">
<path d="M16.9995 32.721C16.6247 32.5351 16.2688 32.3133 15.9367 32.0587C13.2081 29.4685 10.4992 26.8586 7.78038 24.2586L0.795582 17.5806L0.612685 17.4076C-0.227666 16.5722 -0.227666 16.2855 0.612685 15.46L15.739 0.892977L15.8527 0.789163C16.7079 0.00816676 17.1429 0.00322197 18.0178 0.833648C20.3906 3.08107 22.7551 5.34004 25.1114 7.61053C27.8302 10.2106 30.5457 12.8139 33.2579 15.4205C33.4182 15.5755 33.5684 15.7406 33.7077 15.9148C33.774 15.9789 33.8268 16.0557 33.8629 16.1406C33.899 16.2255 33.9175 16.3168 33.9175 16.4091C33.9175 16.5014 33.899 16.5927 33.8629 16.6776C33.8268 16.7625 33.774 16.8393 33.7077 16.9034C33.3666 17.2791 33.0156 17.6448 32.6498 18.0007C27.7956 22.6801 22.938 27.3595 18.0772 32.0389C17.7388 32.2977 17.3782 32.526 16.9995 32.721ZM16.9106 1.58005L1.53707 16.4338L16.9995 31.2085L32.3779 16.3794L16.9106 1.58005Z" fill="#009247"/>
<path d="M12.7888 11.6347V15.7177C13.2287 15.772 13.471 15.5941 13.5303 15.1986C13.6044 14.7043 13.6638 14.21 13.7033 13.6861C13.6963 13.6195 13.7043 13.5521 13.7267 13.489C13.749 13.4258 13.7852 13.3685 13.8326 13.3211C13.88 13.2737 13.9373 13.2375 14.0005 13.2152C14.0636 13.1928 14.131 13.1848 14.1976 13.1918C14.5585 13.1918 14.692 13.3846 14.692 13.6861C14.692 15.7654 14.692 17.8481 14.692 19.9341C14.692 20.29 14.5338 20.458 14.163 20.4531C13.7923 20.4481 13.733 20.2257 13.7231 19.9143C13.7231 19.42 13.6736 18.9257 13.6291 18.3968C13.5847 17.8679 13.3375 17.6504 12.769 17.6553C12.769 18.377 12.769 19.0987 12.769 19.8204C12.769 20.4333 12.769 21.0413 12.769 21.6493C12.769 22.0645 12.8679 22.4056 13.4067 22.3364C13.4562 22.3186 13.5104 22.3186 13.5599 22.3364C14.0889 22.6527 13.7626 23.1619 13.812 23.582C13.8417 23.8341 13.7577 24.101 13.4017 24.101C12.4872 24.101 11.5678 24.101 10.6533 24.0664C10.5624 24.0467 10.4779 24.0047 10.4072 23.9444C10.3364 23.884 10.2818 23.8071 10.248 23.7204C10.1986 23.3513 10.1986 22.9773 10.248 22.6082C10.2742 22.5386 10.318 22.4769 10.3752 22.4292C10.4324 22.3816 10.501 22.3496 10.5742 22.3364C11.0686 22.3364 11.1773 22.0398 11.1971 21.6443C11.1971 21.4417 11.1971 21.239 11.1971 21.0364C11.1971 18.1595 11.1971 15.2778 11.1971 12.4009C11.1971 11.9412 11.1477 11.6792 10.5545 11.5408C9.96128 11.4024 10.3617 10.6709 10.2529 10.2161C10.1936 9.96895 10.332 9.79594 10.6187 9.80088C12.3835 9.80088 14.1482 9.80088 15.9129 9.82559C16.4072 9.82559 16.3776 10.1864 16.3776 10.5176L16.3183 14.7291C16.3183 14.9367 16.3183 15.1393 16.3183 15.342C16.3183 15.6435 16.3183 15.9302 15.8981 15.95C15.4779 15.9698 15.4038 15.6831 15.4038 15.3519C15.3642 14.645 15.3296 13.9332 15.2753 13.2264C15.1813 11.9857 14.7463 11.6001 13.4957 11.5952L12.7888 11.6347Z" fill="#009247"/>
<path d="M20.2568 19.7949C20.4447 18.7321 20.6523 17.6743 20.8253 16.6116C21.0527 15.2127 21.2504 13.8089 21.463 12.4051C21.5322 11.9701 21.463 11.6834 20.9044 11.6834C20.766 11.6834 20.6275 11.4165 20.4891 11.2731C20.4891 11.2731 20.4891 11.2385 20.4891 11.2237C20.326 9.99782 20.3705 9.95333 21.6063 9.95333C22.1501 9.95333 22.6938 9.95333 23.2326 9.95333C23.3654 9.94279 23.4979 9.97765 23.6083 10.0522C23.8901 10.3043 23.6627 11.5351 23.3711 11.7625C23.1371 11.9285 22.9635 12.1662 22.8767 12.4397C22.2737 15.7663 21.7002 19.093 21.1219 22.4196C21.0702 22.8718 20.9926 23.3207 20.8895 23.7641C20.8522 23.8661 20.7916 23.958 20.7127 24.0326C20.6338 24.1072 20.5387 24.1625 20.4348 24.1942C19.4461 24.3474 19.3423 24.2732 19.1841 23.3093C18.7145 20.4276 18.2696 17.5409 17.805 14.6541C17.6814 13.8682 17.5627 13.0872 17.3897 12.3111C17.3619 12.1928 17.3097 12.0816 17.2365 11.9846C17.1633 11.8876 17.0707 11.8069 16.9646 11.7476C16.8193 11.7039 16.6961 11.6065 16.6199 11.4752C16.5437 11.344 16.5203 11.1887 16.5543 11.0408C16.6186 9.82976 16.4357 9.86435 17.7753 9.86929C18.3537 9.86929 18.9271 9.86929 19.5054 9.86929C19.9207 9.86929 20.158 10.0028 20.1036 10.4625C20.0829 10.6266 20.0829 10.7926 20.1036 10.9568C20.1629 11.4511 20.0195 11.7279 19.4511 11.713C19.0606 11.713 19.0605 12.0195 19.1001 12.3013C19.344 14.0412 19.5928 15.7795 19.8465 17.5161C19.9602 18.2675 20.0887 18.999 20.2074 19.7603L20.2568 19.7949Z" fill="#009247"/>
<path d="M41.8493 20.3335V12.2764C41.8901 11.6119 41.8284 10.945 41.6664 10.2992C41.5622 10.1289 41.4218 9.98347 41.2553 9.87329C41.0887 9.76311 40.9 9.69084 40.7024 9.66157C40.3821 9.60074 40.093 9.43032 39.8846 9.17958C39.6763 8.92884 39.5617 8.61342 39.5605 8.28741C39.5605 7.33506 40.1834 6.85888 41.4291 6.85888L42.9368 6.91819C43.7376 6.91819 44.9256 6.84076 46.5008 6.68588C48.0827 6.52771 49.2691 6.45356 50.0649 6.45356C50.943 6.41797 51.819 6.56131 52.6399 6.87487C53.4608 7.18843 54.2094 7.66564 54.8401 8.27752C55.4508 8.90027 55.9284 9.64085 56.2437 10.4541C56.559 11.2674 56.7054 12.1363 56.674 13.008C56.7127 13.9154 56.5714 14.8215 56.2583 15.6741C55.9453 16.5267 55.4666 17.3089 54.85 17.9757C54.24 18.6082 53.5032 19.1047 52.688 19.4326C51.8727 19.7606 50.9974 19.9126 50.1193 19.8788C49.7355 19.8701 49.3525 19.8388 48.9725 19.7849C48.6104 19.7327 48.2456 19.7014 47.88 19.691C47.6032 19.691 47.4648 19.859 47.4648 20.1853C47.4648 20.5115 47.4648 20.9712 47.5191 21.6682C47.5735 22.3651 47.5686 22.7457 47.5686 22.805C47.5424 23.181 47.6139 23.5573 47.7762 23.8974C47.9946 24.1985 48.2808 24.4441 48.6116 24.6142C48.8272 24.7179 49.0121 24.8758 49.1481 25.0725C49.2842 25.2693 49.3668 25.498 49.3877 25.7363C49.3877 27.1038 47.7927 27.7893 44.6027 27.7925C43.4462 27.8464 42.2902 27.6786 41.1968 27.2982C40.4157 26.9671 40.0252 26.4876 40.0252 25.8648C40.0219 25.6262 40.0898 25.3921 40.2201 25.1923C40.3504 24.9925 40.5372 24.836 40.7568 24.7427C41.1323 24.5445 41.4429 24.2425 41.6515 23.8727C41.8032 23.4534 41.8704 23.0082 41.8493 22.5628V20.3335ZM47.5686 10.3388V15.5339C47.5517 15.6684 47.5637 15.805 47.6037 15.9346C47.6438 16.0641 47.711 16.1837 47.8009 16.2852C48.0613 16.4352 48.3618 16.5009 48.661 16.473C50.1868 16.473 50.9498 15.3872 50.9498 13.2156C50.9971 12.3268 50.7655 11.4454 50.2874 10.6947C50.0917 10.4044 49.8261 10.1681 49.5152 10.0074C49.2042 9.84674 48.8577 9.76691 48.5078 9.77527C47.88 9.7555 47.5686 9.9532 47.5686 10.319V10.3388Z" fill="#009247"/>
<path d="M64.5292 22.123V22.8694C64.5252 23.2716 64.5549 23.6734 64.6182 24.0706C64.6664 24.3836 64.7959 24.6785 64.9939 24.9257C64.9939 24.9257 65.1026 25.0888 65.2707 25.3459C65.4163 25.5525 65.5018 25.7955 65.5178 26.0478C65.5178 27.211 64.2688 27.7927 61.7709 27.7927C58.8577 27.7927 57.401 27.1896 57.401 25.9835C57.3937 25.776 57.4489 25.5711 57.5592 25.3953C57.767 25.1416 57.9916 24.9022 58.2315 24.6786C58.5865 24.2304 58.7999 23.6866 58.8445 23.1166C59.0148 22.0046 59.0892 20.88 59.0669 19.7553C59.0669 19.172 59.0669 18.6085 59.0669 18.0549C59.0669 17.5013 59.0669 16.9724 59.1065 16.4534C59.1381 14.9874 59.0952 13.5207 58.9779 12.059C58.9584 11.8106 58.8795 11.5706 58.7479 11.359C58.6163 11.1474 58.4358 10.9704 58.2216 10.8431C58.0055 10.7242 57.8214 10.5545 57.6854 10.3487C57.5493 10.1429 57.4653 9.90714 57.4406 9.66168C57.4406 8.76865 58.3683 8.01071 60.2236 7.38789C61.4182 6.95178 62.6748 6.70979 63.9459 6.67115C64.0461 6.65851 64.1478 6.66929 64.2431 6.70265C64.3384 6.736 64.4247 6.79101 64.4951 6.86336C64.5656 6.93571 64.6183 7.02343 64.649 7.11959C64.6798 7.21576 64.6879 7.31775 64.6725 7.41755L64.5193 13.8435C64.5193 14.5948 64.7269 14.9655 65.1422 14.9655C65.6182 14.3122 66.158 13.7078 66.7537 13.1613C67.3596 12.5922 68.1617 12.2789 68.9929 12.2864C69.6136 12.2877 70.2264 12.4261 70.7873 12.6918C71.3365 12.9444 71.8214 13.3178 72.206 13.7842C72.5824 14.2469 72.8479 14.7897 72.9821 15.3709C73.1524 16.2016 73.227 17.0491 73.2046 17.8967L73.3084 23.4379C73.3627 24.1892 73.5061 24.6687 73.7533 24.8911C73.9674 25.0793 74.1628 25.2879 74.3366 25.5139C74.4829 25.7054 74.5612 25.9402 74.559 26.1812C74.559 27.2654 73.1881 27.8058 70.4462 27.8025C67.9516 27.8025 66.7042 27.3082 66.7042 26.3196C66.7165 26.0926 66.788 25.8727 66.9118 25.682L67.2232 25.1383C67.4354 24.6866 67.5676 24.2016 67.6138 23.7048C67.7115 22.8152 67.7544 21.9205 67.7423 21.0257C67.8023 19.9091 67.6617 18.7907 67.3271 17.7237C67.2304 17.4299 67.0417 17.1751 66.7888 16.997C66.5359 16.8189 66.2324 16.7271 65.9232 16.7351C65.709 16.7225 65.4955 16.77 65.3069 16.8722C65.1182 16.9744 64.9619 17.1272 64.8554 17.3135C64.5861 17.9133 64.4706 18.5707 64.5193 19.2264L64.5292 22.123Z" fill="#009247"/>
<path d="M88.0385 18.0306V20.082C88.0135 20.9914 88.0697 21.9012 88.2065 22.8006C88.3202 23.3295 88.4883 23.6162 88.7009 23.6558C88.8921 23.6887 89.0793 23.7417 89.2594 23.8139C89.4077 23.8733 89.4819 24.0611 89.4819 24.3725C89.4756 24.8663 89.3575 25.3523 89.1367 25.794C88.9158 26.2358 88.5978 26.6217 88.2065 26.9231C87.5512 27.5408 86.6897 27.8931 85.7893 27.9117C85.4601 27.9103 85.1348 27.8401 84.8343 27.7056C84.5338 27.5711 84.2647 27.3753 84.0443 27.1307C83.55 26.6117 83.2386 26.3546 83.1348 26.3546C82.5799 26.7584 81.9968 27.1219 81.3898 27.4421C80.8406 27.7467 80.2235 27.9082 79.5954 27.9117C79.0492 27.9271 78.5055 27.8332 77.9961 27.6354C77.4868 27.4376 77.0221 27.14 76.6295 26.76C76.2399 26.3736 75.935 25.9104 75.7341 25.3998C75.5333 24.8892 75.4409 24.3424 75.4629 23.7942C75.4301 23.0287 75.6048 22.2686 75.9685 21.5942C76.3322 20.9199 76.8715 20.3564 77.5292 19.9633C78.7408 19.2471 80.1313 18.8905 81.5381 18.9352C81.8658 18.9752 82.1979 18.9167 82.4922 18.7671C82.6256 18.6534 82.6899 18.3569 82.6899 17.8823C82.6899 15.9051 82.2878 14.9165 81.4837 14.9165C81.0652 14.9165 80.5066 15.4405 79.808 16.4884C79.106 17.5363 78.409 18.0603 77.7071 18.0603C77.5116 18.0683 77.3166 18.0355 77.1345 17.9641C76.9523 17.8926 76.7871 17.7839 76.6492 17.6451C76.5136 17.5031 76.4075 17.3356 76.337 17.1524C76.2666 16.9691 76.2333 16.7736 76.239 16.5774C76.239 15.2971 77.0645 14.2196 78.7106 13.3545C79.9161 12.6903 81.2644 12.3274 82.6404 12.2967C84.0866 12.2208 85.5054 12.7121 86.595 13.6659C87.1211 14.1031 87.5205 14.6732 87.7518 15.3169C87.9815 16.2022 88.0781 17.1168 88.0385 18.0306ZM80.5989 22.9736C80.5845 23.3801 80.693 23.7815 80.9103 24.1254C80.9861 24.2687 81.098 24.3898 81.235 24.4765C81.372 24.5632 81.5294 24.6126 81.6913 24.6197C82.3537 24.6197 82.68 23.9128 82.68 22.4991C82.7024 22.1156 82.659 21.731 82.5515 21.3622C82.5026 21.2615 82.4234 21.1787 82.3249 21.1255C82.2265 21.0722 82.1138 21.0513 82.0028 21.0656C81.8042 21.0705 81.61 21.1245 81.4375 21.2229C81.265 21.3212 81.1195 21.4608 81.0141 21.6291C80.7291 22.0257 80.5831 22.5053 80.5989 22.9934V22.9736Z" fill="#009247"/>
<path d="M103.802 17.0764L100.54 24.7381C100.191 25.6067 99.7505 26.4353 99.2247 27.2096C99.1038 27.4067 98.9385 27.5729 98.7419 27.6948C98.5454 27.8166 98.323 27.8908 98.0927 27.9115C97.3479 27.9115 96.5685 26.9558 95.7545 25.0445L92.1361 16.8243C91.827 16.1741 91.3033 15.6504 90.6531 15.3414C90.4161 15.2584 90.2084 15.108 90.0556 14.9087C89.9029 14.7093 89.8116 14.4698 89.793 14.2193C89.793 13.5965 90.1934 13.1368 90.9892 12.8501C92.2229 12.5005 93.5047 12.352 94.7856 12.4102C97.5934 12.4102 99.0022 12.9045 99.0022 13.8931C98.9615 14.2661 98.796 14.6144 98.5326 14.8817C98.2585 15.1441 98.0838 15.4935 98.0383 15.8703C98.0844 16.4933 98.2613 17.0996 98.5573 17.6498C98.9083 18.3764 99.2543 18.7372 99.6003 18.7372C99.6943 18.7346 99.7867 18.7127 99.8718 18.6727C99.9569 18.6327 100.033 18.5756 100.095 18.5049C100.319 18.2168 100.499 17.8969 100.629 17.5559C100.752 17.2444 100.886 16.9083 101.034 16.5673C101.168 16.2734 101.244 15.956 101.256 15.633C101.174 15.2264 100.985 14.8492 100.708 14.5406C100.543 14.3358 100.443 14.0861 100.421 13.8239C100.418 13.5851 100.491 13.3516 100.628 13.1564C100.766 12.9612 100.961 12.8143 101.187 12.7364C102.013 12.4597 102.883 12.3423 103.753 12.3904C104.461 12.3461 105.17 12.4522 105.834 12.7018C106.032 12.7958 106.198 12.9474 106.309 13.137C106.42 13.3266 106.472 13.5453 106.457 13.7646C106.466 14.0042 106.393 14.2399 106.249 14.4319C106.02 14.6661 105.734 14.8364 105.419 14.9262C105.087 15.0268 104.787 15.2086 104.544 15.4551C104.237 15.9664 103.989 16.5102 103.802 17.0764Z" fill="#009247"/>
<path d="M114.099 13.3349V22.1829C114.077 22.6937 114.139 23.2047 114.282 23.6955C114.427 24.0474 114.65 24.3618 114.934 24.6149C115.129 24.7969 115.296 25.0068 115.429 25.2377C115.528 25.4074 115.583 25.5997 115.587 25.7963C115.587 27.1144 114.216 27.7735 111.474 27.7735C110.288 27.8284 109.101 27.6814 107.965 27.3385C107.218 27.0469 106.847 26.5872 106.847 25.9643C106.845 25.6607 106.944 25.365 107.129 25.124C107.218 25.0202 107.416 24.8225 107.727 24.5309C108.039 24.2328 108.238 23.8365 108.291 23.4088C108.419 22.648 108.475 21.8767 108.459 21.1053L108.404 19.0491C108.422 18.5193 108.4 17.989 108.34 17.4623C108.285 17.2339 108.163 17.0272 107.989 16.8692C107.643 16.622 107.391 16.4342 107.238 16.3057C107.102 16.2044 106.991 16.0732 106.914 15.9224C106.837 15.7716 106.796 15.6051 106.793 15.4357C106.798 15.1713 106.87 14.9125 107.003 14.6835C107.135 14.4544 107.323 14.2626 107.549 14.1258C108.469 13.5986 109.457 13.201 110.486 12.9444L111.682 12.633C112.241 12.4936 112.816 12.4238 113.392 12.4254C113.494 12.4204 113.595 12.4392 113.687 12.4804C113.78 12.5216 113.862 12.5841 113.926 12.6627C114.057 12.8612 114.118 13.0978 114.099 13.3349ZM111.499 6.67174C112.059 6.65664 112.613 6.78422 113.11 7.04246C113.383 7.1807 113.611 7.39339 113.767 7.65586C113.924 7.91833 114.003 8.21983 113.995 8.52537C113.995 9.33602 113.545 10.0083 112.646 10.5965C111.64 11.1955 110.484 11.4924 109.314 11.4516C108.73 11.4878 108.153 11.3123 107.688 10.9573C107.489 10.7932 107.331 10.5858 107.226 10.3509C107.121 10.1161 107.071 9.8602 107.08 9.60296C107.1 9.18079 107.228 8.77075 107.45 8.41116C107.672 8.05157 107.982 7.75415 108.35 7.54666C109.286 6.94139 110.385 6.63615 111.499 6.67174Z" fill="#009247"/>
<path d="M126.849 22.6815C127.022 22.558 127.175 22.4541 127.314 22.3701C127.438 22.2911 127.582 22.2483 127.729 22.2465C127.896 22.2526 128.06 22.3012 128.203 22.3877C128.347 22.4741 128.466 22.5957 128.55 22.7408C128.777 23.0974 128.891 23.5145 128.876 23.9371C128.876 24.98 128.302 25.9143 127.161 26.7101C125.987 27.5295 124.583 27.9553 123.152 27.9261C122.242 27.9323 121.342 27.7344 120.519 27.3469C119.696 26.9593 118.971 26.3921 118.396 25.6869C117.081 24.1968 116.375 22.2662 116.419 20.2792C116.347 18.1889 117.084 16.1512 118.475 14.5898C119.12 13.8559 119.917 13.2721 120.811 12.8792C121.705 12.4864 122.674 12.2942 123.651 12.316C125.103 12.2745 126.525 12.7413 127.67 13.6358C128.178 14.004 128.592 14.4867 128.879 15.045C129.166 15.6032 129.317 16.2212 129.321 16.8488C129.35 17.6064 129.104 18.3492 128.629 18.9397C128.419 19.2028 128.152 19.4141 127.848 19.5573C127.543 19.7004 127.21 19.7715 126.874 19.7652C126.01 19.7652 125.3 18.9611 124.743 17.353C124.462 16.572 124.046 16.1815 123.493 16.1815C123.253 16.1869 123.018 16.2538 122.811 16.3758C122.604 16.4979 122.432 16.6709 122.311 16.8784C121.967 17.4085 121.795 18.0314 121.817 18.6629C121.797 19.7719 122.145 20.8564 122.806 21.7473C123.051 22.1392 123.389 22.4647 123.79 22.6949C124.191 22.9251 124.642 23.0529 125.104 23.0671C125.709 23.0834 126.308 22.951 126.849 22.6815Z" fill="#009247"/>
<path d="M137.822 12.3062C138.739 12.2959 139.649 12.4695 140.498 12.8167C141.347 13.164 142.118 13.6778 142.765 14.3279C143.503 15.05 144.083 15.9177 144.468 16.8758C144.852 17.834 145.033 18.8618 144.999 19.8937C145.02 20.9542 144.82 22.0075 144.412 22.9868C144.005 23.9661 143.398 24.8502 142.632 25.5831C141.866 26.3476 140.952 26.9486 139.947 27.3497C138.942 27.7507 137.866 27.9435 136.784 27.9162C135.895 27.9402 135.012 27.772 134.195 27.4231C133.378 27.0741 132.645 26.5527 132.048 25.8945C130.794 24.5116 130.131 22.6933 130.199 20.828C130.118 18.5962 130.878 16.4154 132.33 14.7184C133.011 13.9364 133.856 13.3146 134.806 12.8976C135.755 12.4806 136.785 12.2786 137.822 12.3062ZM136.991 15.8849C136.82 15.884 136.652 15.9295 136.505 16.0165C136.358 16.1036 136.237 16.2289 136.156 16.3792C135.932 16.7763 135.824 17.2286 135.844 17.6842C135.865 18.515 135.961 19.3423 136.131 20.1557C136.303 21.0915 136.537 22.0146 136.833 22.9189C137.075 23.7443 137.491 24.1595 138.084 24.1595C138.845 24.1595 139.226 23.5417 139.226 22.296C139.218 21.4267 139.132 20.5598 138.969 19.7059C138.794 18.7743 138.55 17.8572 138.237 16.9625C138.146 16.6678 137.975 16.4042 137.743 16.2013C137.542 16.0037 137.273 15.8905 136.991 15.8849Z" fill="#009247"/>
</g>
<defs>
<clipPath id="clip0_301_4947">
<rect width="145" height="32.5152" fill="white" transform="translate(0 0.206055)"/>
</clipPath>
</defs>
</svg>
