<svg width="51" height="50" viewBox="0 0 51 50" fill="none" xmlns="http://www.w3.org/2000/svg">
<path d="M47.1919 8.10254H40.5652C38.875 8.10254 37.4978 9.47975 37.4978 11.17C37.4978 12.8602 38.875 14.2285 40.5652 14.2285H43.2213C43.7757 14.2285 44.2318 14.6845 44.2318 15.239C44.2318 15.7935 43.7757 16.2496 43.2213 16.2496H40.7083C37.623 14.6488 34.0011 13.8171 29.941 13.8171C26.3638 13.8171 22.8671 14.4878 19.594 15.5341C18.2257 14.3 13.2266 10.4277 4.57879 10.4277H4.48041C-4.26433e-07 10.4456 0 13.5488 0 14.7203V45.9401C0 48.2474 2.14631 50.0002 4.0601 50.0002H46.0383C47.9789 50.0002 50.0984 48.2474 50.0984 45.9401C50.0984 30.764 50.2325 27.6071 49.6602 26.1673C49.3382 25.3535 48.9268 24.5665 48.4886 23.7885C49.4366 23.3055 50.0984 22.3576 50.0984 21.2218V11.009C50.0984 9.40821 48.7927 8.11148 47.1919 8.11148V8.10254ZM46.0204 15.239C46.0204 13.6919 44.7684 12.4399 43.2213 12.4399H40.5652C39.8587 12.4399 39.2864 11.8675 39.2864 11.17C39.2864 10.4724 39.8587 9.89113 40.5652 9.89113H47.1919C47.809 9.89113 48.3098 10.3919 48.3098 11.0001V21.2129C48.3098 21.83 47.809 22.3218 47.1919 22.3218H30.9962C29.8158 22.3218 28.8499 21.356 28.8499 20.1755C28.8499 18.995 29.8158 18.0292 30.9962 18.0292H43.2302C44.7773 18.0292 46.0293 16.7772 46.0293 15.2301L46.0204 15.239ZM35.5929 16.2496H30.9962C28.8231 16.2496 27.0614 18.0203 27.0614 20.1845C27.0614 22.3487 28.8231 24.1194 30.9962 24.1194H46.5838C47.1204 24.9958 47.6212 25.8901 47.9878 26.8201C48.2382 27.4372 48.283 29.4672 48.3008 30.8444H43.6505C43.6505 30.8444 43.6416 30.8444 43.6326 30.8444H1.84225C1.94062 29.5745 2.23574 28.5461 2.69183 27.9559C4.76659 25.2372 16.3835 15.6057 29.9589 15.6057C31.971 15.6057 33.849 15.8292 35.6019 16.2496H35.5929ZM39.0181 32.633H43.2302L48.3008 38.0346V45.9312C48.3008 46.3247 48.1667 46.6824 47.9878 47.0043L39.0181 32.6241V32.633ZM48.3008 35.4232L45.6895 32.633H48.3008V35.4232ZM21.7314 32.633L19.907 48.2027H13.9242L19.1111 32.6241H21.7314V32.633ZM23.5289 32.633H26.5695L28.3938 48.2027H21.7045L23.5289 32.633ZM28.376 32.633H30.9962L36.1832 48.2027H30.2003L28.376 32.633ZM2.11948 47.0133C1.94062 46.6913 1.80647 46.3336 1.80647 45.9401V38.0435L6.88607 32.633H11.0982L2.11948 47.0133ZM1.80647 32.6241H4.42676L1.80647 35.4232V32.6241ZM4.4983 12.2074H4.58773C11.3307 12.2074 15.6949 14.7919 17.5997 16.2138C10.186 18.9861 4.23001 23.5023 1.80647 26.2209V14.7024C1.80647 13.4236 1.80647 12.2074 4.4983 12.1984V12.2074ZM3.54141 48.0954L13.1998 32.6241H17.2241L12.0372 48.2027H4.07798C3.89018 48.2027 3.72921 48.1401 3.55035 48.0954H3.54141ZM38.0612 48.2027L32.8743 32.633H36.9075L46.557 48.0954C46.3871 48.1401 46.2171 48.2027 46.0293 48.2027H38.0522H38.0612Z" fill="white"/>
<path d="M34.5116 6.51948C34.5116 4.86503 33.1612 3.51465 31.5068 3.51465C29.8523 3.51465 28.502 4.86503 28.502 6.51948C28.502 8.17392 29.8523 9.52431 31.5068 9.52431C33.1612 9.52431 34.5116 8.17392 34.5116 6.51948ZM31.5068 7.73572C30.8361 7.73572 30.2905 7.1902 30.2905 6.51948C30.2905 5.84876 30.8361 5.30324 31.5068 5.30324C32.1775 5.30324 32.723 5.84876 32.723 6.51948C32.723 7.1902 32.1775 7.73572 31.5068 7.73572Z" fill="white"/>
<path d="M32.3999 2.11948V0.894294C32.3999 0.402433 31.9975 0 31.5056 0C31.0138 0 30.6113 0.402433 30.6113 0.894294V2.11948C30.6113 2.61134 31.0138 3.01377 31.5056 3.01377C31.9975 3.01377 32.3999 2.61134 32.3999 2.11948Z" fill="white"/>
<path d="M30.6113 10.9285V12.1537C30.6113 12.6455 31.0138 13.048 31.5056 13.048C31.9975 13.048 32.3999 12.6455 32.3999 12.1537V10.9285C32.3999 10.4366 31.9975 10.0342 31.5056 10.0342C31.0138 10.0342 30.6113 10.4366 30.6113 10.9285Z" fill="white"/>
<path d="M38.0255 6.51929C38.0255 6.02743 37.6231 5.625 37.1312 5.625H35.906C35.4142 5.625 35.0117 6.02743 35.0117 6.51929C35.0117 7.01116 35.4142 7.41359 35.906 7.41359H37.1312C37.6231 7.41359 38.0255 7.01116 38.0255 6.51929Z" fill="white"/>
<path d="M24.9863 6.51929C24.9863 7.01116 25.3888 7.41359 25.8806 7.41359H27.1058C27.5977 7.41359 28.0001 7.01116 28.0001 6.51929C28.0001 6.02743 27.5977 5.625 27.1058 5.625H25.8806C25.3888 5.625 24.9863 6.02743 24.9863 6.51929Z" fill="white"/>
<path d="M35.253 4.04235L36.1205 3.17488C36.4692 2.82611 36.4692 2.2627 36.1205 1.91392C35.7717 1.56515 35.2083 1.56515 34.8595 1.91392L33.992 2.78139C33.6433 3.13017 33.6433 3.69357 33.992 4.04235C34.1709 4.2212 34.3945 4.30169 34.627 4.30169C34.8595 4.30169 35.0831 4.21226 35.2619 4.04235H35.253Z" fill="white"/>
<path d="M27.5263 11.3935C27.7588 11.3935 27.9823 11.3041 28.1612 11.1341L29.0287 10.2667C29.3774 9.9179 29.3774 9.3545 29.0287 9.00572C28.6799 8.65695 28.1165 8.65695 27.7677 9.00572L26.9003 9.87319C26.5515 10.222 26.5515 10.7854 26.9003 11.1341C27.0791 11.313 27.3027 11.3935 27.5352 11.3935H27.5263Z" fill="white"/>
<path d="M34.8506 11.1341C35.0294 11.313 35.253 11.3935 35.4855 11.3935C35.718 11.3935 35.9416 11.3041 36.1205 11.1341C36.4692 10.7854 36.4692 10.222 36.1205 9.87319L35.253 9.00572C34.9042 8.65695 34.3408 8.65695 33.992 9.00572C33.6433 9.3545 33.6433 9.9179 33.992 10.2667L34.8595 11.1341H34.8506Z" fill="white"/>
<path d="M28.384 4.30169C28.6165 4.30169 28.8401 4.21226 29.0189 4.04235C29.3677 3.69357 29.3677 3.13017 29.0189 2.78139L28.1514 1.91392C27.8027 1.56515 27.2393 1.56515 26.8905 1.91392C26.5417 2.2627 26.5417 2.82611 26.8905 3.17488L27.758 4.04235C27.9368 4.2212 28.1604 4.30169 28.3929 4.30169H28.384Z" fill="white"/>
<path d="M3.27289 40.6274C3.21029 40.6095 3.13874 40.6006 3.0672 40.6006C2.65583 40.6006 2.28916 40.8868 2.19974 41.2892C2.09242 41.7632 2.38754 42.255 2.87046 42.3623C3.35338 42.4697 3.83629 42.1745 3.94361 41.7006C4.05093 41.2266 3.75581 40.7347 3.28183 40.6274H3.27289Z" fill="white"/>
<path d="M5.34803 37.399C4.87405 37.2917 4.38219 37.5868 4.27488 38.0608C4.25699 38.1323 4.24805 38.1949 4.24805 38.2664C4.24805 38.6778 4.53422 39.0445 4.93665 39.1339C5.41063 39.2412 5.90249 38.9461 6.00981 38.4632C6.02769 38.4006 6.03664 38.329 6.03664 38.2575C6.03664 37.8461 5.75046 37.4795 5.34803 37.3811V37.399Z" fill="white"/>
<path d="M7.34287 34.1528C6.85995 34.0902 6.40386 34.439 6.34126 34.9219C6.27866 35.4048 6.62743 35.8609 7.11035 35.9235C7.59327 35.9861 8.04936 35.6373 8.11196 35.1544C8.17456 34.6715 7.82578 34.2154 7.34287 34.1528Z" fill="white"/>
<path d="M17.7166 46.521C18.2105 46.521 18.6109 46.1206 18.6109 45.6267C18.6109 45.1328 18.2105 44.7324 17.7166 44.7324C17.2227 44.7324 16.8223 45.1328 16.8223 45.6267C16.8223 46.1206 17.2227 46.521 17.7166 46.521Z" fill="white"/>
<path d="M18.3869 43.0423C18.8698 43.0871 19.317 42.7293 19.3617 42.2375C19.4064 41.7546 19.0487 41.3074 18.5568 41.2627C18.53 41.2627 18.4942 41.2627 18.4674 41.2627C18.0113 41.2627 17.6267 41.6115 17.582 42.0676C17.582 42.0944 17.582 42.1302 17.582 42.157C17.582 42.6131 17.9308 43.0066 18.3869 43.0513V43.0423Z" fill="white"/>
<path d="M19.2361 39.5728C19.728 39.5728 20.1304 39.1703 20.1304 38.6785C20.1304 38.1866 19.728 37.7842 19.2361 37.7842C18.7442 37.7842 18.3418 38.1866 18.3418 38.6785C18.3418 39.1703 18.7442 39.5728 19.2361 39.5728Z" fill="white"/>
<path d="M19.988 36.103C20.4819 36.103 20.8823 35.7027 20.8823 35.2087C20.8823 34.7148 20.4819 34.3145 19.988 34.3145C19.4941 34.3145 19.0938 34.7148 19.0938 35.2087C19.0938 35.7027 19.4941 36.103 19.988 36.103Z" fill="white"/>
<path d="M32.4002 46.521C32.8941 46.521 33.2944 46.1206 33.2944 45.6267C33.2944 45.1328 32.8941 44.7324 32.4002 44.7324C31.9062 44.7324 31.5059 45.1328 31.5059 45.6267C31.5059 46.1206 31.9062 46.521 32.4002 46.521Z" fill="white"/>
<path d="M31.6404 43.0513C32.1343 43.0513 32.5347 42.6509 32.5347 42.157C32.5347 41.6631 32.1343 41.2627 31.6404 41.2627C31.1465 41.2627 30.7461 41.6631 30.7461 42.157C30.7461 42.6509 31.1465 43.0513 31.6404 43.0513Z" fill="white"/>
<path d="M30.8806 39.5728C31.3745 39.5728 31.7749 39.1724 31.7749 38.6785C31.7749 38.1846 31.3745 37.7842 30.8806 37.7842C30.3867 37.7842 29.9863 38.1846 29.9863 38.6785C29.9863 39.1724 30.3867 39.5728 30.8806 39.5728Z" fill="white"/>
<path d="M30.1287 36.103C30.6226 36.103 31.023 35.7027 31.023 35.2087C31.023 34.7148 30.6226 34.3145 30.1287 34.3145C29.6348 34.3145 29.2344 34.7148 29.2344 35.2087C29.2344 35.7027 29.6348 36.103 30.1287 36.103Z" fill="white"/>
<path d="M46.8512 40.6366C46.3682 40.7529 46.0731 41.2269 46.1894 41.7098C46.3056 42.1927 46.7796 42.4878 47.2625 42.3716C47.7454 42.2553 48.0406 41.7813 47.9332 41.2984C47.817 40.8155 47.343 40.5204 46.8601 40.6366H46.8512Z" fill="white"/>
<path d="M44.7689 37.4081C44.286 37.5154 43.9909 37.9984 44.0982 38.4813C44.2144 38.9642 44.6884 39.2593 45.1713 39.1431C45.6542 39.0268 45.9494 38.5528 45.842 38.0699C45.7258 37.587 45.2518 37.2919 44.7689 37.4081Z" fill="white"/>
<path d="M42.7746 34.1617C42.2827 34.2243 41.9429 34.6715 42.0055 35.1633C42.0681 35.6552 42.5152 35.995 43.0071 35.9324C43.4989 35.8698 43.8388 35.4227 43.7762 34.9308C43.7136 34.439 43.2664 34.0991 42.7746 34.1617Z" fill="white"/>
</svg>
