<svg width="54" height="54" viewBox="0 0 54 54" fill="none" xmlns="http://www.w3.org/2000/svg">
<path d="M26 28L37.25 16.75" stroke="white" stroke-width="3" stroke-miterlimit="10" stroke-linecap="round" stroke-linejoin="round"/>
<path d="M52.25 9.25H44.75V1.75L37.25 9.25V16.75H44.75L52.25 9.25Z" stroke="white" stroke-width="3" stroke-miterlimit="10" stroke-linecap="round" stroke-linejoin="round"/>
<path d="M26 39.25C32.2132 39.25 37.25 34.2132 37.25 28C37.25 21.7868 32.2132 16.75 26 16.75C19.7868 16.75 14.75 21.7868 14.75 28C14.75 34.2132 19.7868 39.25 26 39.25Z" stroke="white" stroke-width="3" stroke-miterlimit="10" stroke-linecap="round" stroke-linejoin="round"/>
<path d="M46.625 14.875C49.0625 18.625 50.375 23.125 50.375 28C50.375 41.5 39.5 52.375 26 52.375C12.5 52.375 1.625 41.5 1.625 28C1.625 14.5 12.5 3.625 26 3.625C30.875 3.625 35.375 4.9375 39.125 7.375" stroke="white" stroke-width="3" stroke-miterlimit="10" stroke-linecap="round" stroke-linejoin="round"/>
</svg>
