<svg width="48" height="48" viewBox="0 0 48 48" fill="none" xmlns="http://www.w3.org/2000/svg">
<path d="M47.6355 45.9605L30.8371 29.1621C30.7293 29.0473 30.5992 28.9558 30.4548 28.8933C30.3103 28.8308 30.1546 28.7985 29.9971 28.7985C29.8397 28.7985 29.684 28.8308 29.5395 28.8933C29.3951 28.9558 29.2649 29.0473 29.1572 29.1621L25.1976 33.0977L14.3986 22.2988V16.8033H21.5979V19.2031C21.5979 19.5213 21.7244 19.8265 21.9494 20.0515C22.1744 20.2765 22.4796 20.4029 22.7978 20.4029H37.1965C37.4177 20.4004 37.6344 20.339 37.8241 20.2252C38.0139 20.1113 38.17 19.9491 38.2764 19.755C38.3707 19.5555 38.4094 19.3342 38.3883 19.1145C38.3671 18.8949 38.287 18.685 38.1564 18.5071L33.8848 12.6037L38.1564 6.70024C38.3068 6.53414 38.4087 6.32994 38.451 6.10989C38.4933 5.88984 38.4744 5.6624 38.3963 5.45236C38.2808 5.2396 38.1058 5.06505 37.8927 4.95C37.6797 4.83495 37.4378 4.78437 37.1965 4.80443H28.7973V1.20477C28.7973 0.886539 28.6708 0.581344 28.4458 0.356321C28.2208 0.131299 27.9156 0.00488281 27.5974 0.00488281H13.1987C12.8805 0.00488281 12.5753 0.131299 12.3503 0.356321C12.1253 0.581344 11.9989 0.886539 11.9989 1.20477V22.2988L1.0559 33.2417C0.385041 33.9191 0.0060274 34.8321 0 35.7855V44.4007C0 45.3553 0.379249 46.2709 1.05432 46.946C1.72938 47.6211 2.64497 48.0003 3.59966 48.0003H46.7955C47.0324 47.9991 47.2637 47.9278 47.4601 47.7955C47.6566 47.6631 47.8094 47.4755 47.8994 47.2564C47.9974 47.0401 48.0247 46.7984 47.9773 46.5657C47.9299 46.333 47.8103 46.1212 47.6355 45.9605ZM34.8447 7.2042L31.437 12.0037C31.2852 12.204 31.203 12.4484 31.203 12.6997C31.203 12.951 31.2852 13.1954 31.437 13.3956L34.8447 18.1951H23.9977V16.8033H27.5974C27.9156 16.8033 28.2208 16.6769 28.4458 16.4518C28.6708 16.2268 28.7973 15.9216 28.7973 15.6034V7.2042H34.8447ZM26.3975 14.4035H14.3986V2.40465H26.3975V14.4035ZM3.59966 45.6005C3.28143 45.6005 2.97623 45.4741 2.75121 45.2491C2.52619 45.0241 2.39977 44.7189 2.39977 44.4007V35.7855C2.39785 35.6281 2.42889 35.4721 2.49088 35.3274C2.55288 35.1828 2.64446 35.0527 2.75974 34.9455L13.1987 24.5065L24.3577 35.6415L34.2927 45.6005H3.59966ZM37.7004 45.6005L26.9014 34.8016L29.9971 31.7059L43.8918 45.6005H37.7004Z" fill="white"/>
</svg>
