<svg width="30" height="30" viewBox="0 0 30 30" fill="none" xmlns="http://www.w3.org/2000/svg">
<circle cx="15" cy="15" r="15" fill="#222326"/>
<path d="M18.3028 17.9282C18.3028 17.7509 18.2197 17.6096 18.0535 17.5044C16.9841 16.8672 15.7458 16.5486 14.3384 16.5486C13.6015 16.5486 12.8064 16.6428 11.9531 16.8312C11.7204 16.881 11.604 17.0251 11.604 17.2633C11.604 17.3742 11.6414 17.4697 11.7162 17.5501C11.791 17.6304 11.8894 17.6706 12.0113 17.6706C12.039 17.6706 12.1415 17.6484 12.3188 17.6041C13.0502 17.4545 13.7234 17.3797 14.3384 17.3797C15.5906 17.3797 16.6905 17.665 17.638 18.2357C17.7432 18.2967 17.8347 18.3272 17.9122 18.3272C18.0175 18.3272 18.1089 18.2898 18.1865 18.215C18.2641 18.1402 18.3028 18.0446 18.3028 17.9282ZM19.1007 16.1413C19.1007 15.9197 19.0038 15.7507 18.8098 15.6343C17.4967 14.8531 15.9785 14.4625 14.2553 14.4625C13.4076 14.4625 12.5681 14.5788 11.737 14.8115C11.4711 14.8836 11.3381 15.0609 11.3381 15.3435C11.3381 15.482 11.3866 15.5997 11.4835 15.6967C11.5805 15.7936 11.6982 15.8421 11.8368 15.8421C11.8755 15.8421 11.978 15.82 12.1443 15.7756C12.8202 15.5928 13.5156 15.5014 14.2304 15.5014C15.7763 15.5014 17.1282 15.8449 18.2862 16.532C18.4192 16.604 18.5245 16.64 18.602 16.64C18.7406 16.64 18.8583 16.5915 18.9553 16.4946C19.0522 16.3976 19.1007 16.2799 19.1007 16.1413ZM19.9983 14.0802C19.9983 13.8197 19.8875 13.6258 19.6659 13.4984C18.9677 13.0939 18.156 12.7878 17.2307 12.58C16.3054 12.3722 15.3552 12.2683 14.38 12.2683C13.2497 12.2683 12.2412 12.3985 11.3547 12.659C11.2273 12.6977 11.1206 12.7684 11.0347 12.8709C10.9488 12.9734 10.9059 13.1078 10.9059 13.274C10.9059 13.4457 10.9627 13.5898 11.0763 13.7062C11.1899 13.8225 11.3325 13.8807 11.5043 13.8807C11.5653 13.8807 11.6761 13.8585 11.8368 13.8142C12.5737 13.6092 13.4242 13.5067 14.3883 13.5067C15.2693 13.5067 16.1267 13.6009 16.9606 13.7893C17.7945 13.9777 18.4968 14.2408 19.0675 14.5788C19.1838 14.6453 19.2946 14.6786 19.3999 14.6786C19.5606 14.6786 19.7005 14.6218 19.8196 14.5082C19.9388 14.3946 19.9983 14.2519 19.9983 14.0802ZM21.7021 15.3185C21.7021 16.4765 21.4168 17.5445 20.8461 18.5225C20.2754 19.5004 19.501 20.2748 18.5231 20.8455C17.5451 21.4162 16.4772 21.7015 15.3191 21.7015C14.1611 21.7015 13.0931 21.4162 12.1152 20.8455C11.1372 20.2748 10.3629 19.5004 9.79221 18.5225C9.22151 17.5445 8.93616 16.4765 8.93616 15.3185C8.93616 14.1605 9.22151 13.0925 9.79221 12.1146C10.3629 11.1366 11.1372 10.3623 12.1152 9.7916C13.0931 9.2209 14.1611 8.93555 15.3191 8.93555C16.4772 8.93555 17.5451 9.2209 18.5231 9.7916C19.501 10.3623 20.2754 11.1366 20.8461 12.1146C21.4168 13.0925 21.7021 14.1605 21.7021 15.3185Z" fill="white"/>
</svg>
