<svg width="30" height="30" viewBox="0 0 30 30" fill="none" xmlns="http://www.w3.org/2000/svg">
<circle cx="15" cy="15" r="15" fill="#222326"/>
<path d="M15.2956 9.57422H17.1405C17.1604 9.65411 17.1758 9.73501 17.1867 9.81656C17.2429 10.4526 17.5364 11.0451 18.0098 11.478C18.4832 11.911 19.1025 12.1533 19.7465 12.1577V13.8816C19.6603 13.9094 19.5697 13.9218 19.479 13.9181C19.0499 13.8712 18.6245 13.7948 18.206 13.6895C17.8448 13.5517 17.4935 13.3898 17.1544 13.2048V13.4335C17.1544 14.348 17.1544 15.2899 17.1544 16.2181C17.159 16.5959 17.1343 16.9735 17.0806 17.3476C16.9997 17.9719 16.7588 18.5653 16.3809 19.0712C16.0031 19.5771 15.5008 19.9786 14.922 20.2374C14.5819 20.3614 14.2336 20.4623 13.8796 20.5392H13.2385C13.2116 20.5266 13.1839 20.5159 13.1555 20.5072C12.5057 20.4253 11.8953 20.1531 11.4023 19.7255C10.9093 19.2979 10.5562 18.7342 10.388 18.1066C10.3106 17.8335 10.2521 17.5554 10.2128 17.2744V16.7394C10.2635 16.4879 10.3004 16.2364 10.3742 15.9895C10.5821 15.3302 10.9837 14.7473 11.5276 14.3156C12.0716 13.8839 12.7331 13.6229 13.4276 13.5661C13.6351 13.5341 13.8427 13.5249 14.0641 13.5066C14.0641 14.101 14.0641 14.6498 14.0641 15.203C14.0641 15.3356 13.9949 15.3539 13.8842 15.3859C13.5306 15.4663 13.1836 15.5733 12.8464 15.706C12.5867 15.803 12.3636 15.9772 12.2075 16.2048C12.0515 16.4323 11.9702 16.7021 11.9747 16.9772C11.9551 17.2892 12.0287 17.5999 12.1862 17.8707C12.3437 18.1415 12.5781 18.3603 12.8603 18.4998C13.1183 18.658 13.418 18.7364 13.7211 18.725C14.0242 18.7136 14.3171 18.6129 14.5622 18.4358C14.7458 18.3055 14.8998 18.1385 15.0142 17.9455C15.1286 17.7526 15.2009 17.538 15.2264 17.3156C15.2816 16.8604 15.3047 16.4021 15.2956 15.9438C15.2956 13.9136 15.2956 11.8818 15.2956 9.84857C15.3094 9.75255 15.3002 9.66567 15.2956 9.57422Z" fill="white"/>
</svg>
