<svg width="38" height="40" viewBox="0 0 38 40" fill="none" xmlns="http://www.w3.org/2000/svg">
<path d="M29.4218 40H9.14016C8.69903 40 8.33143 39.665 8.29762 39.2308L6.6641 18.2883C3.30495 17.9033 0.689453 15.0808 0.689453 11.6667C0.689453 7.98417 3.79762 4.87417 7.47706 4.87417C8.24607 4.87417 9.00072 5.02167 9.70466 5.3075C10.8911 2.09083 14.5816 0 19.281 0C23.6957 0 26.7835 1.76 28.6951 5.375C29.4447 5.045 30.2568 4.87333 31.0849 4.87333C34.7644 4.87417 37.8726 7.98417 37.8726 11.6667C37.8726 15.0808 35.2571 17.9033 31.8979 18.2883L30.2644 39.2308C30.2306 39.665 29.863 40 29.4218 40ZM9.92269 38.3333H28.6385L30.2686 17.4358C30.3033 17.0017 30.6709 16.6667 31.112 16.6667C33.9083 16.6667 36.1824 14.4242 36.1824 11.6667C36.1824 8.64583 33.4959 6.54083 31.0849 6.54083C30.2551 6.54083 29.4802 6.76917 28.783 7.22167C28.5759 7.35583 28.3173 7.39417 28.0799 7.32417C27.8416 7.255 27.6464 7.08667 27.5458 6.86167C25.9554 3.3175 23.3297 1.66667 19.281 1.66667C14.923 1.66667 11.6255 3.67917 11.0754 6.67417C11.0247 6.94917 10.8379 7.18083 10.5768 7.29083C10.3165 7.4025 10.0165 7.37583 9.77988 7.22167C9.08269 6.76917 8.30776 6.54083 7.4779 6.54083C5.06607 6.54083 2.37959 8.64583 2.37959 11.6667C2.37959 14.4242 4.65368 16.6667 7.45002 16.6667C7.89114 16.6667 8.25875 17.0017 8.29255 17.4358L9.92269 38.3333Z" fill="white"/>
</svg>
