<svg width="25" height="22" viewBox="0 0 25 22" fill="none" xmlns="http://www.w3.org/2000/svg">
<path d="M23.3789 0H1.55859C0.690234 0 0 0.706934 0 1.57529V19.7997C0 20.6681 0.690234 21.375 1.55859 21.375H23.3789C24.2473 21.375 24.9375 20.6681 24.9375 19.7997V1.57529C24.9375 0.706934 24.2473 0 23.3789 0ZM17.6399 11.0048C17.4729 10.81 17.2169 10.6597 16.9274 10.6597C16.6436 10.6597 16.4432 10.7933 16.2149 10.977L15.174 11.8564C14.9569 12.0123 14.7844 12.1181 14.5339 12.1181C14.2945 12.1181 14.0774 12.029 13.9216 11.8898C13.8659 11.8397 13.7657 11.7451 13.6822 11.6616L10.6875 8.42197C10.4648 8.16592 10.1309 8.00449 9.75791 8.00449C9.38496 8.00449 9.03984 8.18818 8.82275 8.43867L1.78125 16.933V2.43252C1.83691 2.054 2.13193 1.78125 2.51045 1.78125H22.4215C22.8056 1.78125 23.1173 2.06514 23.1396 2.44922L23.1562 16.9441L17.6399 11.0048Z" fill="#777777"/>
</svg>
