<svg width="37" height="36" viewBox="0 0 37 36" fill="none" xmlns="http://www.w3.org/2000/svg">
<path d="M36.3459 30.8539L21.0339 2.41832C19.9486 0.402227 17.0574 0.402227 15.9712 2.41832L0.659996 30.8539C0.424347 31.2915 0.306203 31.7828 0.317097 32.2798C0.327991 32.7768 0.467549 33.2624 0.722151 33.6893C0.976752 34.1163 1.3377 34.4699 1.76975 34.7157C2.20181 34.9615 2.69022 35.0911 3.1873 35.0918H33.8141C34.3116 35.0919 34.8006 34.9628 35.2332 34.7174C35.6659 34.4719 36.0275 34.1183 36.2826 33.6913C36.5378 33.2642 36.6777 32.7783 36.6888 32.2809C36.6999 31.7836 36.5818 31.2919 36.3459 30.8539ZM18.503 30.6895C18.1476 30.6895 17.8002 30.5841 17.5047 30.3866C17.2092 30.1892 16.9789 29.9085 16.8429 29.5802C16.7069 29.2519 16.6713 28.8906 16.7406 28.542C16.8099 28.1935 16.9811 27.8733 17.2324 27.622C17.4837 27.3707 17.8039 27.1996 18.1524 27.1302C18.501 27.0609 18.8623 27.0965 19.1906 27.2325C19.5189 27.3685 19.7996 27.5988 19.997 27.8943C20.1945 28.1898 20.2998 28.5372 20.2998 28.8926C20.2998 29.1285 20.2534 29.3622 20.1631 29.5802C20.0728 29.7982 19.9404 29.9963 19.7735 30.1632C19.6067 30.33 19.4086 30.4624 19.1906 30.5527C18.9726 30.643 18.7389 30.6895 18.503 30.6895ZM20.4544 12.6174L19.9387 23.5783C19.9387 23.9596 19.7872 24.3252 19.5176 24.5948C19.2481 24.8644 18.8824 25.0158 18.5012 25.0158C18.1199 25.0158 17.7543 24.8644 17.4847 24.5948C17.2151 24.3252 17.0637 23.9596 17.0637 23.5783L16.548 12.6219C16.5364 12.3601 16.5776 12.0986 16.6692 11.8531C16.7608 11.6075 16.901 11.3829 17.0812 11.1927C17.2615 11.0025 17.4782 10.8505 17.7184 10.7458C17.9587 10.6411 18.2175 10.5858 18.4796 10.5833H18.4985C18.7623 10.5832 19.0235 10.6365 19.2661 10.7401C19.5088 10.8436 19.728 10.9953 19.9104 11.1859C20.0929 11.3765 20.2348 11.6021 20.3277 11.849C20.4206 12.096 20.4624 12.3592 20.4508 12.6228L20.4544 12.6174Z" fill="#FF0000"/>
</svg>
