<svg width="30" height="30" viewBox="0 0 30 30" fill="none" xmlns="http://www.w3.org/2000/svg">
<circle cx="15" cy="15" r="15" fill="#222326"/>
<path d="M21.6192 12.3275C21.6192 11.2054 20.7938 10.3027 19.7739 10.3027C18.3924 10.2378 16.9835 10.2129 15.5446 10.2129C15.4698 10.2129 15.395 10.2129 15.3202 10.2129C15.2454 10.2129 15.1706 10.2129 15.0957 10.2129C13.6594 10.2129 12.2479 10.2378 10.8664 10.3027C9.84901 10.3027 9.02359 11.2104 9.02359 12.3325C8.96125 13.2203 8.93382 14.108 8.93631 14.9958C8.93382 15.8836 8.96125 16.7713 9.0211 17.6616C9.0211 18.7837 9.84651 19.6939 10.8639 19.6939C12.3153 19.7612 13.804 19.7912 15.3177 19.7887C16.8338 19.7937 18.3176 19.7637 19.7714 19.6939C20.7913 19.6939 21.6168 18.7837 21.6168 17.6616C21.6766 16.7713 21.704 15.8836 21.7015 14.9933C21.7065 14.1055 21.6791 13.2178 21.6192 12.3275ZM14.0983 17.4421V12.542L17.7141 14.9908L14.0983 17.4421Z" fill="white"/>
</svg>
