<svg width="60" height="60" viewBox="0 0 60 60" fill="none" xmlns="http://www.w3.org/2000/svg">
<circle cx="30" cy="30" r="30" fill="#49A760"/>
<path d="M30 16C22.2684 16 16 22.2684 16 30C16 37.7316 22.2684 44 30 44C37.7316 44 44 37.7316 44 30C44 22.2684 37.7316 16 30 16ZM36.4615 32.1538H30C29.7144 32.1538 29.4405 32.0404 29.2385 31.8384C29.0365 31.6365 28.9231 31.3625 28.9231 31.0769V21.3846C28.9231 21.099 29.0365 20.8251 29.2385 20.6231C29.4405 20.4212 29.7144 20.3077 30 20.3077C30.2856 20.3077 30.5595 20.4212 30.7615 20.6231C30.9635 20.8251 31.0769 21.099 31.0769 21.3846V30H36.4615C36.7472 30 37.0211 30.1135 37.223 30.3154C37.425 30.5174 37.5385 30.7913 37.5385 31.0769C37.5385 31.3625 37.425 31.6365 37.223 31.8384C37.0211 32.0404 36.7472 32.1538 36.4615 32.1538Z" fill="white"/>
</svg>
