<svg width="60" height="60" viewBox="0 0 60 60" fill="none" xmlns="http://www.w3.org/2000/svg">
<circle cx="30" cy="30" r="30" fill="#49A760"/>
<path d="M29.9146 33.8355C27.4227 31.7908 25.7588 29.2676 24.8841 27.832L24.2316 26.6044C24.4597 26.3601 26.1995 24.501 26.9535 23.4923C27.901 22.2256 26.5273 21.0816 26.5273 21.0816C26.5273 21.0816 22.6619 17.2238 21.781 16.4586C20.9001 15.6923 19.886 16.1179 19.886 16.1179C18.0345 17.3117 16.1152 18.3496 16 23.3412C15.9957 28.0146 19.5508 32.8348 23.3952 36.5665C27.2458 40.7808 32.5327 45.0048 37.644 45C42.6455 44.8862 43.6853 42.971 44.8816 41.1234C44.8816 41.1234 45.3084 40.1123 44.5413 39.2324C43.7736 38.3528 39.9072 34.4947 39.9072 34.4947C39.9072 34.4947 38.7616 33.1236 37.4921 34.0699C36.5459 34.7757 34.8469 36.3455 34.4376 36.7261C34.4384 36.7275 31.5962 35.2155 29.9146 33.8355Z" fill="white"/>
</svg>
