<svg width="32" height="43" viewBox="0 0 32 43" fill="none" xmlns="http://www.w3.org/2000/svg">
<path d="M31.3265 15.6632C31.3265 7.0189 24.3076 0 15.6632 0C7.0189 0 0 7.0189 0 15.6632C0 22.756 4.95017 29.11 11.7474 30.8832L13.0773 34.4296C9.38316 34.6512 3.17697 35.5378 3.17697 38.6409C3.17697 42.8522 14.4072 43 15.7371 43C17.067 43 28.2972 42.8522 28.2972 38.6409C28.2972 35.4639 22.0172 34.6512 18.323 34.4296L19.579 30.957C26.3763 29.1838 31.3265 22.8299 31.3265 15.6632ZM9.90034 23.1993L11.0086 16.8454L6.35395 12.3385L12.7818 11.378L15.6632 5.54124L18.5447 11.378L24.9725 12.3385L20.3179 16.8454L21.4261 23.1993L15.6632 20.1701L9.90034 23.1993ZM25.5636 38.6409C24.8247 39.3797 21.2045 40.488 15.5893 40.488C10.0481 40.488 6.42783 39.3797 5.61512 38.6409C6.28007 37.9759 9.30928 37.0155 13.89 36.8677L14.7027 39.0103C14.8505 39.3797 15.146 39.6014 15.5893 39.6014C15.9588 39.6014 16.3282 39.3797 16.4759 39.0103L17.2148 36.8677C21.9433 37.0155 24.8986 37.9759 25.5636 38.6409Z" fill="#EFB443"/>
</svg>
