<svg width="44" height="45" viewBox="0 0 44 45" fill="none" xmlns="http://www.w3.org/2000/svg">
<path fill-rule="evenodd" clip-rule="evenodd" d="M14.0488 12.6523C14.4131 11.5182 14.8461 10.4689 15.3379 9.53171C16.2385 7.79647 17.3384 6.41787 18.5725 5.5212C15.3137 6.18001 12.3989 7.7795 10.1334 10.0173C9.71429 10.4314 9.31542 10.8696 8.94083 11.3279C10.6423 11.8748 12.3473 12.3162 14.0488 12.6523ZM12.7151 21.2572C12.7493 18.4353 13.1414 15.7833 13.8048 13.4538C12.0035 13.0938 10.2023 12.6184 8.40105 12.0276C6.4934 14.6322 5.33825 17.8139 5.25236 21.2572H12.7151ZM13.7875 29.8315C13.1345 27.5154 12.7494 24.8839 12.7151 22.0892H5.25236C5.33825 25.5086 6.47602 28.6701 8.3632 31.2678C10.1714 30.6701 11.9795 30.1913 13.7875 29.8315ZM18.5725 37.825C17.3384 36.9285 16.2386 35.5498 15.3379 33.8145C14.8393 32.8604 14.3993 31.7906 14.0283 30.6328C12.3198 30.9691 10.6078 31.4138 8.89968 31.9673C9.28446 32.4461 9.69701 32.8977 10.1335 33.329C12.3988 35.5667 15.3137 37.1661 18.5725 37.825ZM29.8405 30.6259C29.4727 31.7873 29.029 32.857 28.5306 33.8145C27.6268 35.5498 26.5269 36.9284 25.2959 37.825C28.5549 37.1662 31.4695 35.5667 33.735 33.329C34.1714 32.8977 34.5841 32.4427 34.9693 31.9673C33.2607 31.4103 31.5485 30.9621 29.8405 30.6259ZM31.1533 22.0891C31.1189 24.8805 30.7342 27.512 30.0844 29.8246C31.8925 30.1811 33.7006 30.6633 35.5086 31.2677C37.3922 28.67 38.5299 25.5085 38.6159 22.0891H31.1533ZM30.0671 13.4605C30.7275 15.7901 31.119 18.4387 31.1534 21.2571H38.6161C38.5301 17.8138 37.3753 14.6354 35.4673 12.0275C33.6696 12.6252 31.8683 13.1041 30.0671 13.4605ZM25.2958 5.5213C26.5268 6.41787 27.6267 7.79657 28.5305 9.53181C29.022 10.4724 29.4552 11.5217 29.8231 12.6592C31.5247 12.3264 33.2263 11.8817 34.9275 11.328C34.5528 10.8696 34.1543 10.4315 33.7348 10.0174C31.4694 7.7795 28.5548 6.18011 25.2958 5.5213ZM43.1981 12.6863C42.8855 12.3773 42.4487 12.1872 41.9675 12.1872C41.4896 12.1872 41.0532 12.3773 40.7402 12.6863C40.5652 12.8595 40.4241 13.0735 40.3381 13.3112L40.3349 13.3213L40.3313 13.3315L40.3281 13.3348L40.3245 13.3452L40.3213 13.3519L40.3177 13.3621L40.3144 13.3723L40.3108 13.3826V13.3928H40.3076V13.403L40.304 13.4133L40.3008 13.4235L40.2972 13.4337L40.2936 13.444L40.2903 13.4542V13.4645L40.2868 13.4746L40.2836 13.4848L40.28 13.4952V13.5053L40.2768 13.5155L40.2732 13.5259V13.536L40.27 13.5462L40.2664 13.5564V13.5667L40.2631 13.5769L40.2595 13.5871V13.5974V13.6007L40.2563 13.6076V13.6178V13.6212L40.2527 13.6279V13.6381V13.6415L40.2495 13.6483V13.6585V13.6618L40.2459 13.672V13.6857V13.6924L40.2426 13.706V13.7128V13.7263L40.2391 13.7331V13.7433L40.2358 13.7705V13.774V13.7943V13.7977C40.2322 13.8317 40.2322 13.869 40.2322 13.9029C40.2322 14.3782 40.4283 14.8062 40.7408 15.1186C41.0538 15.4276 41.4901 15.6211 41.9681 15.6211C42.4494 15.6211 42.8861 15.4276 43.1988 15.1186C43.5116 14.8062 43.7077 14.3782 43.7077 13.9029C43.7071 13.4267 43.511 12.9987 43.1981 12.6863ZM3.96668 10.8459C3.65041 10.5369 3.21729 10.3433 2.73613 10.3433C2.25498 10.3433 1.82186 10.5369 1.50558 10.8459C1.19301 11.1549 0.996968 11.5861 0.996968 12.0615C0.996968 12.5336 1.19301 12.9648 1.50558 13.2772C1.82186 13.5862 2.25498 13.7764 2.73613 13.7764C3.21729 13.7764 3.65051 13.5862 3.96668 13.2772L3.99085 13.2536L4.0251 13.2127L4.08034 13.1482L4.08713 13.1415L4.09042 13.1381L4.09402 13.1348L4.10081 13.1246L4.1041 13.1212L4.1077 13.1178L4.11449 13.1075L4.11778 13.1042L4.12138 13.1008L4.12467 13.094L4.12827 13.0907L4.13187 13.0839L4.13876 13.0737H4.14205L4.14565 13.0669L4.15254 13.0566L4.15943 13.0499L4.16262 13.0397H4.16622L4.16951 13.033L4.1763 13.0227L4.18319 13.0125L4.18679 13.0058H4.19008L4.19368 12.9955L4.20057 12.9888L4.20747 12.9786L4.21107 12.9683L4.21796 12.9615L4.22125 12.9514L4.22804 12.9411L4.23164 12.9344H4.23493L4.23853 12.9241L4.24532 12.9174V12.914L4.24861 12.9038L4.2591 12.8868L4.26599 12.88V12.8766L4.26928 12.8664L4.27607 12.8563L4.27967 12.8494L4.28327 12.8427L4.28656 12.8393L4.29016 12.8291L4.29345 12.8258L4.29705 12.8191L4.30034 12.8122L4.30394 12.8055V12.8021L4.31073 12.792V12.7886L4.31402 12.7818L4.31762 12.7715L4.32081 12.7682V12.7648L4.3277 12.7546V12.7478L4.3313 12.7444L4.33459 12.7341L4.33819 12.7308V12.7241L4.34508 12.7173V12.7106L4.34838 12.7072L4.35198 12.697V12.6901L4.35516 12.6868L4.35876 12.6766L4.36236 12.6733V12.6699L4.36926 12.6495L4.37244 12.6393L4.37604 12.6325C4.43776 12.4526 4.47211 12.2624 4.47211 12.062C4.47201 11.5861 4.27957 11.1549 3.96668 10.8459ZM10.2125 37.4344C9.92051 37.1491 9.52165 36.9623 9.08163 36.9353H9.07155H8.92355H8.91665H8.8929L8.80701 36.942L8.79292 36.9454L8.79971 36.942L8.78274 36.9454L8.69686 36.9556L8.67958 36.959H8.68647L8.67628 36.9623L8.56263 36.9861L8.52838 36.9928L8.50781 36.9995L8.48724 37.0064H8.47675L8.44929 37.0166H8.4461L8.42553 37.0233L8.42193 37.0266L8.40465 37.03L8.39786 37.0334L8.38407 37.0368L8.37729 37.0401C8.1401 37.1285 7.9272 37.2643 7.75533 37.4341C7.43874 37.7465 7.2464 38.1744 7.2464 38.6498C7.2464 39.1252 7.43874 39.5564 7.75533 39.8654C8.0679 40.1745 8.50472 40.3681 8.98228 40.3681C9.46343 40.3681 9.90025 40.1745 10.2128 39.8654C10.5258 39.5564 10.7218 39.1252 10.7218 38.6498C10.7218 38.1744 10.5255 37.7468 10.2125 37.4344ZM29.2525 29.6649C29.8954 27.4103 30.2737 24.8328 30.308 22.0891H22.3568V29.0197C24.6566 29.0402 26.9527 29.2541 29.2525 29.6649ZM22.3568 38.1373C24.4505 37.9268 26.3582 36.1711 27.7812 33.4343C28.2454 32.5412 28.6578 31.5463 29.0084 30.4698C26.7877 30.0758 24.5707 29.8721 22.3568 29.8483V38.1373ZM14.8635 30.4766C15.2107 31.553 15.623 32.5447 16.0872 33.4342C17.51 36.1711 19.4178 37.9267 21.5114 38.1372V29.8516C19.2976 29.8755 17.0806 30.086 14.8635 30.4766ZM13.5608 22.0891C13.5951 24.8362 13.9731 27.4171 14.6195 29.675C16.9156 29.2642 19.2118 29.0435 21.5115 29.0197V22.0891H13.5608ZM14.6365 13.61C13.9799 15.8817 13.5951 18.4828 13.5608 21.2572H21.5115V14.262C19.2187 14.2382 16.9257 14.0175 14.6365 13.61ZM21.5115 5.20896C19.4179 5.41949 17.5101 7.17525 16.0873 9.91202C15.6299 10.7848 15.2278 11.756 14.8842 12.8086C17.0944 13.1992 19.3014 13.4063 21.5116 13.43L21.5115 5.20896ZM22.3568 14.262V21.2572H30.308C30.2737 18.4863 29.8886 15.8885 29.2354 13.6203C26.9426 14.0277 24.6498 14.2416 22.3568 14.262ZM27.6577 1.60945C28.2832 1.73178 28.3554 0.899827 27.8879 0.804724C27.6093 0.73685 27.3342 0.658715 27.0527 0.594195C26.4683 0.47877 26.3477 1.30392 26.8567 1.40247L27.6577 1.60945ZM32.2362 3.48399C32.3737 3.56547 32.5698 3.54851 32.6867 3.46021C32.9445 3.2701 32.917 2.91347 32.6489 2.7573L31.889 2.35321C31.284 2.11545 31.0779 2.92708 31.5075 3.09676C31.7515 3.20894 31.999 3.35495 32.2362 3.48399ZM36.2477 6.36351C36.6123 6.72351 37.241 6.1666 36.8184 5.7489L36.1755 5.18508C35.942 4.95433 35.4814 5.14444 35.4814 5.48055C35.4814 5.64018 35.5224 5.71496 35.629 5.82012L36.2477 6.36351ZM39.4685 10.0853C39.7437 10.5334 40.4655 10.1057 40.1699 9.6201C40.0118 9.38235 39.8431 9.15149 39.6783 8.92054C39.3346 8.47226 38.6676 8.98506 38.9943 9.41293C39.1592 9.63352 39.3172 9.85776 39.4685 10.0853ZM43.0299 21.9329C43.0299 22.4897 43.872 22.4796 43.872 21.9396C43.8752 21.6645 43.8788 21.3657 43.8653 21.0908C43.8653 20.5576 43.0231 20.5679 43.0231 21.1111C43.0299 21.3828 43.0299 21.6578 43.0299 21.9329ZM42.3902 26.7888C42.27 27.3761 43.1089 27.4815 43.2085 26.9891L43.4045 26.1606C43.5142 25.6138 42.6858 25.4576 42.5761 25.9908L42.3902 26.7888ZM40.6168 31.3595C40.376 31.7602 40.9947 32.2458 41.3384 31.7873C41.4863 31.5463 41.6272 31.244 41.751 30.9859C41.9813 30.4154 41.1703 30.1777 40.9879 30.6294L40.6168 31.3595ZM37.8085 35.397C37.468 35.7332 38.0008 36.3851 38.4477 35.9437C38.6369 35.7298 38.8224 35.5124 39.0011 35.2916C39.3585 34.8264 38.6574 34.3579 38.3444 34.7687C38.1691 34.9826 37.9904 35.1898 37.8085 35.397ZM34.1303 38.6771C33.6664 39.0236 34.1956 39.6722 34.6218 39.3564C34.8521 39.2037 35.0925 39.0202 35.316 38.8505C35.7528 38.5244 35.2301 37.8725 34.7972 38.1917C34.584 38.3546 34.3536 38.5278 34.1303 38.6771ZM29.782 41.0236C29.2798 41.2205 29.5723 42.005 30.0946 41.7979C30.3491 41.7062 30.6411 41.5771 30.8887 41.4651C31.3699 41.275 31.0881 40.4871 30.5552 40.6977C30.3043 40.8063 30.0362 40.932 29.782 41.0236ZM24.9934 42.2937C24.3953 42.4125 24.6259 43.2173 25.1172 43.1189C25.3959 43.0815 25.6947 43.0374 25.9698 42.9796C26.5232 42.8709 26.3477 42.056 25.8117 42.1612C25.5504 42.219 25.2584 42.2598 24.9934 42.2937ZM20.037 42.4295C19.3904 42.4295 19.497 43.2614 19.9648 43.2614C20.2394 43.2817 20.5629 43.2885 20.8239 43.319C21.4325 43.319 21.3704 42.4871 20.8654 42.4871C20.5867 42.4736 20.3153 42.4532 20.037 42.4295ZM15.1866 41.4243C14.688 41.2274 14.3924 42.0084 14.9184 42.2155L15.74 42.4702C15.9428 42.5518 16.1457 42.409 16.235 42.2631C16.3486 41.9813 16.2386 41.7741 15.9808 41.6723L15.1866 41.4243ZM2.56426 29.9434C2.36822 29.4579 1.5745 29.7396 1.7907 30.2761C1.90075 30.5376 2.02459 30.7957 2.14842 31.0502C2.34086 31.5223 3.12811 31.2302 2.9079 30.6871C2.79137 30.4425 2.67082 30.1946 2.56426 29.9434ZM1.14827 25.254C1.03461 24.6903 0.21332 24.8805 0.316277 25.3965C0.364619 25.6749 0.41944 25.9569 0.481256 26.232C0.584522 26.7515 1.4162 26.6122 1.30646 26.0554C1.24783 25.7904 1.19301 25.5188 1.14827 25.254ZM0.880022 20.3641C0.880022 19.7461 0.0342505 19.8276 0.0342505 20.3098C0.0172795 20.595 0.00678839 20.8734 0 21.1587C0 21.736 0.842172 21.7054 0.842172 21.179L0.880022 20.3641ZM1.76334 15.5489C1.94559 15.1041 1.19301 14.7204 0.959118 15.2976C0.873234 15.5727 0.804219 15.8478 0.721935 16.1194C0.598099 16.7204 1.44027 16.8087 1.53664 16.3299C1.60885 16.0685 1.68424 15.807 1.76334 15.5489ZM5.33146 8.81528C5.6787 8.36029 4.98782 7.87806 4.66476 8.30247C4.48929 8.52661 4.31392 8.75066 4.14894 8.98171C3.99085 9.18543 4.08034 9.51139 4.31392 9.60304C4.49947 9.69479 4.71968 9.61665 4.83292 9.46719C4.99471 9.2466 5.16288 9.02916 5.33146 8.81528ZM8.82388 5.34481C9.257 5.02546 8.76217 4.34978 8.30159 4.68934C8.07819 4.86594 7.84779 5.04598 7.63447 5.23274C7.19117 5.67432 7.84779 6.20054 8.18783 5.86107L8.82388 5.34481ZM13.0417 2.76735C13.5161 2.5806 13.2443 1.79275 12.6876 2.01354C12.4367 2.12561 12.1512 2.25475 11.9109 2.38714C11.3781 2.70294 11.8798 3.37872 12.2992 3.12735L13.0417 2.76735ZM17.7542 1.24265C18.2011 1.15445 18.1978 0.512605 17.7542 0.424309C17.7167 0.410693 17.6239 0.417501 17.5823 0.424309C17.304 0.482021 17.0221 0.539835 16.7439 0.607708C16.235 0.70962 16.3862 1.53141 16.9431 1.41924C17.2112 1.35482 17.4828 1.29711 17.7542 1.24265ZM21.9341 0H21.8619C21.3086 0 21.3086 0.831954 21.8619 0.831954C22.1644 0.831954 22.4636 0.83866 22.7625 0.848922C23.3573 0.848922 23.3126 0.0135136 22.7936 0.0135136L21.9341 0ZM27.7812 9.91202C26.3582 7.17515 24.4505 5.41949 22.3568 5.20896V13.4334C24.5674 13.4097 26.774 13.2059 28.9879 12.8153C28.6406 11.7628 28.2384 10.7882 27.7812 9.91202Z" fill="#EFB443"/>
</svg>
