<svg width="17" height="13" viewBox="0 0 17 13" fill="none" xmlns="http://www.w3.org/2000/svg">
<path d="M8.5 9.75C7.95115 9.75 7.4023 9.56644 6.93414 9.19445L0 3.69688V11.375C0 12.2721 0.713535 13 1.59375 13H15.4062C16.2865 13 17 12.2725 17 11.375V3.69688L10.0672 9.19818C9.59902 9.56719 9.04785 9.75 8.5 9.75ZM0.540879 2.75234L7.58658 8.34167C8.12414 8.76823 8.87719 8.76823 9.41475 8.34167L16.4604 2.75234C16.7709 2.48151 17 2.0651 17 1.625C17 0.727526 16.2861 0 15.4062 0H1.59375C0.713535 0 0 0.727526 0 1.625C0 2.0651 0.199551 2.48151 0.540879 2.75234Z" fill="#164A2E"/>
</svg>
