<svg width="31" height="41" viewBox="0 0 31 41" fill="none" xmlns="http://www.w3.org/2000/svg">
<g filter="url(#filter0_d_301_5362)">
<path d="M15.4464 1C9.67851 1 5 5.7025 5 11.5C5 19.375 15.4464 31 15.4464 31C15.4464 31 25.8929 19.375 25.8929 11.5C25.8929 5.7025 21.2143 1 15.4464 1ZM15.4464 15.25C13.387 15.25 11.7156 13.57 11.7156 11.5C11.7156 9.43 13.387 7.75 15.4464 7.75C17.5059 7.75 19.1773 9.43 19.1773 11.5C19.1773 13.57 17.5059 15.25 15.4464 15.25Z" fill="#FF0000"/>
<path d="M15.4464 31L15.0745 31.3342L15.4464 31.7481L15.8183 31.3342L15.4464 31ZM15.4464 31C15.8183 31.3342 15.8184 31.3341 15.8186 31.3339L15.819 31.3334L15.8207 31.3316L15.8268 31.3247L15.8501 31.2986C15.8705 31.2757 15.9004 31.2418 15.9393 31.1976C16.0171 31.1091 16.1307 30.9788 16.2749 30.8105C16.5634 30.474 16.9746 29.9853 17.4677 29.3747C18.4535 28.1538 19.7686 26.4425 21.0848 24.4818C22.4 22.5225 23.7223 20.3051 24.7173 18.0727C25.7094 15.8468 26.3929 13.5694 26.3929 11.5C26.3929 5.42877 21.4929 0.5 15.4464 0.5C9.39996 0.5 4.5 5.42877 4.5 11.5C4.5 13.5694 5.18346 15.8468 6.17556 18.0727C7.17057 20.3051 8.49287 22.5225 9.80807 24.4818C11.1242 26.4425 12.4394 28.1538 13.4252 29.3747C13.9183 29.9853 14.3295 30.474 14.6179 30.8105C14.7622 30.9788 14.8757 31.1091 14.9535 31.1976C14.9924 31.2418 15.0224 31.2757 15.0428 31.2986L15.0661 31.3247L15.0722 31.3316L15.0738 31.3334L15.0743 31.3339C15.0744 31.3341 15.0745 31.3342 15.4464 31ZM15.4464 14.75C13.6655 14.75 12.2156 13.2963 12.2156 11.5C12.2156 9.70373 13.6655 8.25 15.4464 8.25C17.2273 8.25 18.6773 9.70373 18.6773 11.5C18.6773 13.2963 17.2273 14.75 15.4464 14.75Z" stroke="white"/>
</g>
<defs>
<filter id="filter0_d_301_5362" x="0" y="0" width="30.8926" height="40.4961" filterUnits="userSpaceOnUse" color-interpolation-filters="sRGB">
<feFlood flood-opacity="0" result="BackgroundImageFix"/>
<feColorMatrix in="SourceAlpha" type="matrix" values="0 0 0 0 0 0 0 0 0 0 0 0 0 0 0 0 0 0 127 0" result="hardAlpha"/>
<feOffset dy="4"/>
<feGaussianBlur stdDeviation="2"/>
<feComposite in2="hardAlpha" operator="out"/>
<feColorMatrix type="matrix" values="0 0 0 0 0 0 0 0 0 0 0 0 0 0 0 0 0 0 0.25 0"/>
<feBlend mode="normal" in2="BackgroundImageFix" result="effect1_dropShadow_301_5362"/>
<feBlend mode="normal" in="SourceGraphic" in2="effect1_dropShadow_301_5362" result="shape"/>
</filter>
</defs>
</svg>
