<svg width="28" height="27" viewBox="0 0 28 27" fill="none" xmlns="http://www.w3.org/2000/svg">
<circle cx="13.9995" cy="13.6596" r="13.0698" fill="black"/>
<path fill-rule="evenodd" clip-rule="evenodd" d="M10.5217 7.26595C10.5217 8.07429 9.90626 8.72846 8.94375 8.72846C8.01874 8.72846 7.40326 8.07429 7.4223 7.26595C7.40326 6.41833 8.01872 5.7832 8.96219 5.7832C9.90624 5.7832 10.5033 6.41833 10.5217 7.26595ZM7.49969 19.2994V9.88382H10.4259V19.2988H7.49969V19.2994Z" fill="white"/>
<path fill-rule="evenodd" clip-rule="evenodd" d="M12.7727 12.8887C12.7727 11.7143 12.734 10.7131 12.6953 9.88514H15.237L15.3721 11.175H15.4299C15.815 10.578 16.7775 9.67383 18.337 9.67383C20.2621 9.67383 21.7061 10.9447 21.7061 13.7161V19.3007H18.7799V14.0828C18.7799 12.8691 18.3567 12.0417 17.2977 12.0417C16.4888 12.0417 16.0078 12.6 15.8156 13.1387C15.7382 13.3316 15.7001 13.6006 15.7001 13.8709V19.3007H12.7739V12.8887H12.7727Z" fill="white"/>
</svg>
