<svg width="27" height="27" viewBox="0 0 27 27" fill="none" xmlns="http://www.w3.org/2000/svg">
<circle cx="13.851" cy="13.6596" r="13.0698" fill="black"/>
<path fill-rule="evenodd" clip-rule="evenodd" d="M21.4797 8.58085C20.9069 8.83533 20.2905 9.00671 19.6439 9.08409C20.304 8.68835 20.8108 8.06203 21.0492 7.31573C20.4322 7.68239 19.7472 7.94778 19.0196 8.09163C18.4364 7.4705 17.6049 7.08203 16.6862 7.08203C14.921 7.08203 13.4897 8.51334 13.4897 10.2786C13.4897 10.5289 13.5182 10.773 13.5728 11.0072C10.9158 10.8743 8.56059 9.60136 6.98386 7.66733C6.70861 8.13941 6.55125 8.68836 6.55125 9.27418C6.55125 10.383 7.11474 11.3614 7.97321 11.9348C7.44867 11.9182 6.95634 11.7743 6.52476 11.5349V11.5749C6.52476 13.1241 7.62733 14.4157 9.08876 14.7101C8.82078 14.7828 8.53825 14.8223 8.2469 14.8223C8.04072 14.8223 7.84026 14.8021 7.64499 14.7647C8.05163 16.0345 9.23262 16.9589 10.6312 16.9849C9.53747 17.8418 8.15913 18.3533 6.66135 18.3533C6.40272 18.3533 6.14824 18.3383 5.89844 18.3081C7.31313 19.2149 8.9932 19.7446 10.7984 19.7446C16.6779 19.7446 19.8932 14.8737 19.8932 10.6499C19.8932 10.5112 19.8906 10.3731 19.8838 10.2365C20.5091 9.78469 21.0513 9.22172 21.4797 8.58085Z" fill="white"/>
</svg>
