<svg width="53" height="50" viewBox="0 0 53 50" fill="none" xmlns="http://www.w3.org/2000/svg">
<path d="M26.1689 50C25.5925 49.714 25.0451 49.3729 24.5345 48.9814C20.3384 44.9983 16.1726 40.9848 11.9917 36.9865L1.25048 26.717L0.969218 26.451C-0.323072 25.1663 -0.323072 24.7255 0.969218 23.4561L24.2305 1.05485L24.4053 0.895201C25.7204 -0.305814 26.3893 -0.313418 27.7348 0.963611C31.3837 4.4197 35.0198 7.89353 38.6433 11.3851C42.8242 15.3834 47.0001 19.3868 51.1709 23.3952C51.4175 23.6336 51.6485 23.8875 51.8626 24.1554C51.9647 24.2539 52.0459 24.372 52.1014 24.5026C52.1568 24.6332 52.1854 24.7736 52.1854 24.9155C52.1854 25.0574 52.1568 25.1978 52.1014 25.3284C52.0459 25.459 51.9647 25.5771 51.8626 25.6756C51.3381 26.2533 50.7984 26.8158 50.2359 27.3631C42.771 34.5591 35.3011 41.7551 27.8261 48.951C27.3058 49.349 26.7512 49.7 26.1689 50ZM26.0321 2.11142L2.39073 24.9535L26.1689 47.674L49.8178 24.8699L26.0321 2.11142Z" fill="#009247"/>
<path d="M19.6908 17.5722V23.8509C20.3673 23.9346 20.7398 23.6609 20.831 23.0528C20.9451 22.2926 21.0363 21.5325 21.0971 20.7268C21.0864 20.6243 21.0986 20.5207 21.133 20.4236C21.1674 20.3265 21.2231 20.2383 21.2959 20.1655C21.3688 20.0926 21.457 20.037 21.5541 20.0026C21.6513 19.9682 21.7548 19.9559 21.8573 19.9666C22.4122 19.9666 22.6175 20.2631 22.6175 20.7268C22.6175 23.9244 22.6175 27.1271 22.6175 30.3349C22.6175 30.8822 22.3742 31.1406 21.8041 31.133C21.2339 31.1254 21.1427 30.7834 21.1275 30.3045C21.1275 29.5444 21.0515 28.7842 20.9831 27.9709C20.9147 27.1575 20.5346 26.8231 19.6604 26.8307C19.6604 27.9405 19.6604 29.0503 19.6604 30.1601C19.6604 31.1026 19.6604 32.0376 19.6604 32.9726C19.6604 33.6111 19.8124 34.1356 20.641 34.0292C20.7172 34.0019 20.8005 34.0019 20.8766 34.0292C21.69 34.5156 21.1883 35.2986 21.2643 35.9447C21.31 36.3324 21.1807 36.7428 20.6334 36.7428C19.2271 36.7428 17.8132 36.7428 16.4068 36.6896C16.2671 36.6593 16.1371 36.5948 16.0283 36.5019C15.9196 36.4091 15.8355 36.2908 15.7835 36.1575C15.7076 35.59 15.7076 35.0148 15.7835 34.4472C15.8238 34.3401 15.8912 34.2452 15.9792 34.172C16.0671 34.0987 16.1726 34.0495 16.2852 34.0292C17.0454 34.0292 17.2126 33.5731 17.2431 32.965C17.2431 32.6533 17.2431 32.3417 17.2431 32.03C17.2431 27.606 17.2431 23.1744 17.2431 18.7504C17.2431 18.0435 17.167 17.6406 16.2548 17.4278C15.3426 17.2149 15.9583 16.0899 15.7911 15.3906C15.6999 15.0106 15.9128 14.7445 16.3537 14.7521C19.0675 14.7521 21.7813 14.7521 24.4951 14.7901C25.2552 14.7901 25.2096 15.345 25.2096 15.8543L25.1184 22.3307C25.1184 22.6499 25.1184 22.9616 25.1184 23.2732C25.1184 23.7369 25.1184 24.1778 24.4723 24.2082C23.8261 24.2386 23.7121 23.7977 23.7121 23.2884C23.6513 22.2015 23.5981 21.1068 23.5145 20.0198C23.37 18.1119 22.7011 17.519 20.7778 17.5114L19.6908 17.5722Z" fill="#009247"/>
<path d="M31.1801 30.1227C31.4689 28.4884 31.7882 26.8617 32.0542 25.2274C32.4039 23.0762 32.708 20.9174 33.0349 18.7587C33.1413 18.0897 33.0349 17.6489 32.1759 17.6489C31.963 17.6489 31.7502 17.2384 31.5373 17.018C31.5373 17.018 31.5373 16.9647 31.5373 16.9419C31.2865 15.0568 31.3549 14.9884 33.2553 14.9884C34.0915 14.9884 34.9277 14.9884 35.7562 14.9884C35.9605 14.9722 36.1642 15.0258 36.334 15.1404C36.7673 15.5281 36.4176 17.4208 35.9691 17.7705C35.6093 18.0258 35.3424 18.3913 35.2089 18.8119C34.2815 23.9276 33.3997 29.0433 32.5104 34.159C32.4308 34.8545 32.3115 35.5448 32.153 36.2266C32.0956 36.3834 32.0025 36.5248 31.8812 36.6395C31.7598 36.7543 31.6135 36.8393 31.4537 36.8879C29.9334 37.1235 29.7737 37.0095 29.5304 35.5273C28.8083 31.0957 28.1241 26.6565 27.4096 22.2173C27.2195 21.0087 27.0371 19.8076 26.771 18.6142C26.7282 18.4323 26.648 18.2613 26.5354 18.1121C26.4229 17.9629 26.2805 17.8388 26.1173 17.7477C25.8938 17.6803 25.7044 17.5306 25.5872 17.3288C25.4701 17.1269 25.434 16.8881 25.4863 16.6607C25.5852 14.7984 25.3039 14.8516 27.364 14.8592C28.2534 14.8592 29.1352 14.8592 30.0246 14.8592C30.6631 14.8592 31.028 15.0644 30.9444 15.7713C30.9126 16.0237 30.9126 16.2791 30.9444 16.5315C31.0356 17.2916 30.8152 17.7173 29.941 17.6945C29.3404 17.6945 29.3404 18.1658 29.4012 18.599C29.7762 21.2747 30.1589 23.9478 30.5491 26.6185C30.7239 27.7739 30.9216 28.8989 31.104 30.0695L31.1801 30.1227Z" fill="#009247"/>
</svg>
