<svg width="27" height="27" viewBox="0 0 27 27" fill="none" xmlns="http://www.w3.org/2000/svg">
<path d="M12.6276 11.5059L8.16406 16.2737L12.2218 14.042L14.3014 16.2737L18.765 11.5059L14.7579 13.7376L12.6276 11.5059Z" fill="black"/>
<path d="M13.4395 0.589844C6.22222 0.589844 0.371094 6.43996 0.371094 13.6573C0.371094 20.8746 6.22222 26.7258 13.4395 26.7258C20.6563 26.7258 26.5075 20.8746 26.5075 13.6573C26.5075 6.43996 20.6563 0.589844 13.4395 0.589844ZM13.488 21.2454C12.6738 21.2454 11.8877 21.1338 11.1456 20.9272L8.36508 22.4627V19.5618C6.50927 18.1672 5.32173 16.0314 5.32173 13.6371C5.32173 9.43518 8.97788 6.02888 13.4879 6.02888C17.998 6.02888 21.6542 9.43518 21.6542 13.6371C21.6542 17.8391 17.9981 21.2454 13.488 21.2454Z" fill="black"/>
</svg>
