<svg width="17" height="16" viewBox="0 0 17 16" fill="none" xmlns="http://www.w3.org/2000/svg">
<path d="M9.04517 7.62469L1.59428 0.181338C1.45002 0.0577902 1.26444 -0.00676868 1.07464 0.000562423C0.884842 0.00789352 0.7048 0.0865746 0.570492 0.220883C0.436184 0.355191 0.357503 0.535233 0.350172 0.725032C0.342841 0.914831 0.4074 1.10041 0.530947 1.24467L7.36344 8.07717L0.727023 14.7136C0.586564 14.8549 0.507725 15.046 0.507725 15.2453C0.507725 15.4445 0.586564 15.6356 0.727023 15.7769C0.79713 15.8476 0.880539 15.9037 0.972438 15.942C1.06434 15.9803 1.16291 16 1.26246 16C1.36202 16 1.46059 15.9803 1.55249 15.942C1.64438 15.9037 1.72779 15.8476 1.7979 15.7769L9.04517 8.52965C9.16491 8.4095 9.23214 8.24679 9.23214 8.07717C9.23214 7.90755 9.16491 7.74484 9.04517 7.62469Z" fill="#231F20"/>
<path d="M16.2698 7.62469L8.81889 0.181338C8.67462 0.0577902 8.48905 -0.00676868 8.29925 0.000562423C8.10945 0.00789352 7.92941 0.0865746 7.7951 0.220883C7.66079 0.355191 7.58211 0.535233 7.57478 0.725032C7.56745 0.914831 7.63201 1.10041 7.75556 1.24467L14.5881 8.07717L7.95163 14.7136C7.81117 14.8549 7.73233 15.046 7.73233 15.2453C7.73233 15.4445 7.81117 15.6356 7.95163 15.7769C8.09293 15.9174 8.28407 15.9962 8.4833 15.9962C8.68253 15.9962 8.87367 15.9174 9.01497 15.7769L16.2698 8.52965C16.3895 8.4095 16.4567 8.24679 16.4567 8.07717C16.4567 7.90755 16.3895 7.74484 16.2698 7.62469Z" fill="#231F20"/>
</svg>
