<svg width="17" height="17" viewBox="0 0 17 17" fill="none" xmlns="http://www.w3.org/2000/svg">
<path d="M17 13.4261C17 13.6435 16.9598 13.9272 16.8793 14.2773C16.7988 14.6275 16.7143 14.9032 16.6257 15.1044C16.4567 15.5069 15.9657 15.9335 15.1527 16.3842C14.3961 16.7947 13.6475 17 12.907 17C12.6896 17 12.4783 16.9859 12.2731 16.9577C12.0678 16.9296 11.8364 16.8793 11.5788 16.8068C11.3213 16.7344 11.1301 16.676 11.0053 16.6317C10.8806 16.5875 10.6572 16.505 10.3352 16.3842C10.0133 16.2635 9.81605 16.1911 9.74361 16.1669C8.95478 15.8852 8.25047 15.5511 7.63068 15.1648C6.60038 14.5289 5.53587 13.6616 4.43714 12.5629C3.33842 11.4641 2.47112 10.3996 1.83523 9.36932C1.44886 8.74953 1.11482 8.04522 0.833097 7.25639C0.808949 7.18395 0.736506 6.98674 0.615767 6.66477C0.495028 6.3428 0.412524 6.11944 0.368253 5.99467C0.323982 5.86991 0.265625 5.67874 0.193182 5.42116C0.120739 5.16359 0.0704309 4.93217 0.0422585 4.72692C0.0140862 4.52166 0 4.31037 0 4.09304C0 3.35251 0.205256 2.60393 0.615767 1.8473C1.06652 1.03433 1.49313 0.543324 1.8956 0.37429C2.09683 0.285748 2.37251 0.201231 2.72266 0.120739C3.0728 0.0402462 3.35653 0 3.57386 0C3.68655 0 3.77107 0.0120739 3.82741 0.0362216C3.9723 0.084517 4.18561 0.390388 4.46733 0.953835C4.55587 1.10677 4.67661 1.3241 4.82955 1.60582C4.98248 1.88755 5.12334 2.14311 5.25213 2.37251C5.38092 2.60192 5.50568 2.81723 5.62642 3.01847C5.65057 3.05066 5.721 3.15128 5.83771 3.32031C5.95443 3.48935 6.04096 3.63222 6.0973 3.74893C6.15365 3.86565 6.18182 3.98035 6.18182 4.09304C6.18182 4.25402 6.06712 4.45526 5.83771 4.69673C5.60831 4.93821 5.35878 5.15956 5.08913 5.3608C4.81948 5.56203 4.56996 5.77533 4.34055 6.00071C4.11115 6.22609 3.99645 6.41122 3.99645 6.55611C3.99645 6.62855 4.01657 6.7191 4.05682 6.82777C4.09706 6.93643 4.13127 7.01894 4.15945 7.07528C4.18762 7.13163 4.24396 7.22822 4.32848 7.36506C4.413 7.50189 4.45928 7.57836 4.46733 7.59446C5.07907 8.69721 5.77936 9.64299 6.56818 10.4318C7.35701 11.2206 8.30279 11.9209 9.40554 12.5327C9.42164 12.5407 9.49811 12.587 9.63494 12.6715C9.77178 12.756 9.86837 12.8124 9.92472 12.8406C9.98106 12.8687 10.0636 12.9029 10.1722 12.9432C10.2809 12.9834 10.3714 13.0036 10.4439 13.0036C10.5888 13.0036 10.7739 12.8888 10.9993 12.6594C11.2247 12.43 11.438 12.1805 11.6392 11.9109C11.8404 11.6412 12.0618 11.3917 12.3033 11.1623C12.5447 10.9329 12.746 10.8182 12.907 10.8182C13.0196 10.8182 13.1344 10.8464 13.2511 10.9027C13.3678 10.959 13.5107 11.0456 13.6797 11.1623C13.8487 11.279 13.9493 11.3494 13.9815 11.3736C14.1828 11.4943 14.3981 11.6191 14.6275 11.7479C14.8569 11.8767 15.1125 12.0175 15.3942 12.1705C15.6759 12.3234 15.8932 12.4441 16.0462 12.5327C16.6096 12.8144 16.9155 13.0277 16.9638 13.1726C16.9879 13.2289 17 13.3134 17 13.4261Z" fill="#164A2E"/>
</svg>
