<svg width="17" height="16" viewBox="0 0 17 16" fill="none" xmlns="http://www.w3.org/2000/svg">
<path d="M7.41189 8.37531L14.8628 15.8187C15.007 15.9422 15.1926 16.0068 15.3824 15.9994C15.5722 15.9921 15.7523 15.9134 15.8866 15.7791C16.0209 15.6448 16.0996 15.4648 16.1069 15.275C16.1142 15.0852 16.0497 14.8996 15.9261 14.7553L9.09362 7.92283L15.73 1.28641C15.8705 1.14511 15.9493 0.953972 15.9493 0.754739C15.9493 0.555507 15.8705 0.364369 15.73 0.223072C15.6599 0.152388 15.5765 0.0962841 15.4846 0.0579975C15.3927 0.0197108 15.2942 -4.71986e-07 15.1946 -4.63283e-07C15.095 -4.5458e-07 14.9965 0.0197109 14.9046 0.0579975C14.8127 0.0962841 14.7293 0.152388 14.6592 0.223072L7.41189 7.47035C7.29215 7.5905 7.22492 7.75321 7.22492 7.92283C7.22492 8.09245 7.29215 8.25516 7.41189 8.37531Z" fill="#231F20"/>
<path d="M0.187278 8.37531L7.63817 15.8187C7.78244 15.9422 7.96801 16.0068 8.15781 15.9994C8.34761 15.9921 8.52765 15.9134 8.66196 15.7791C8.79627 15.6448 8.87495 15.4648 8.88228 15.275C8.88961 15.0852 8.82505 14.8996 8.7015 14.7553L1.86901 7.92283L8.50543 1.28641C8.64589 1.14511 8.72473 0.953973 8.72473 0.754741C8.72473 0.555508 8.64589 0.36437 8.50543 0.223073C8.36413 0.082614 8.17299 0.00377516 7.97376 0.00377518C7.77453 0.00377519 7.58339 0.082614 7.44209 0.223073L0.187278 7.47035C0.0675432 7.5905 0.000311178 7.75321 0.000311193 7.92283C0.000311208 8.09245 0.0675433 8.25516 0.187278 8.37531Z" fill="#231F20"/>
</svg>
