<svg width="27" height="27" viewBox="0 0 27 27" fill="none" xmlns="http://www.w3.org/2000/svg">
<circle cx="13.5914" cy="13.6578" r="13.068" fill="black"/>
<path d="M9.98663 21.5358C9.22542 21.5358 8.5098 21.239 7.97166 20.7009L7.39566 20.1257C6.28478 19.0148 6.28478 17.2066 7.39566 16.0962L11.1374 12.3544C11.6755 11.8163 12.3912 11.5195 13.1524 11.5195C13.9136 11.5195 14.6292 11.8163 15.1669 12.3544L15.7425 12.93C15.9017 13.0892 15.9017 13.3464 15.7425 13.5056C15.5834 13.6648 15.3261 13.6648 15.1669 13.5056L14.5914 12.93C14.2071 12.5457 13.6958 12.3337 13.1524 12.3337C12.6085 12.3337 12.0973 12.5457 11.713 12.93L7.97125 16.6713C7.17788 17.4647 7.17788 18.7559 7.97125 19.5497L8.54684 20.1253C8.93111 20.5096 9.44238 20.7216 9.98622 20.7216C10.5297 20.7216 11.0409 20.5096 11.4252 20.1253L14.0162 17.5347C14.1753 17.3756 14.4326 17.3756 14.5918 17.5347C14.7509 17.6939 14.7509 17.9512 14.5918 18.1103L12.0012 20.7009C11.4635 21.2394 10.7478 21.5358 9.98663 21.5358Z" fill="white"/>
<path d="M14.88 16.6419C14.1192 16.6419 13.4032 16.3451 12.8655 15.807C12.7063 15.6478 12.7063 15.3906 12.8655 15.2314C13.0246 15.0722 13.2819 15.0722 13.4411 15.2314C13.8253 15.6157 14.3366 15.8277 14.88 15.8277C15.4239 15.8277 15.9351 15.6157 16.3194 15.2314L20.0612 11.4897C20.8545 10.6963 20.8545 9.40507 20.0612 8.6117L19.486 8.0353C18.6926 7.24193 17.401 7.24193 16.6076 8.0353L14.0166 10.6263C13.8575 10.7854 13.6002 10.7854 13.4411 10.6263C13.2819 10.4671 13.2819 10.2098 13.4411 10.0507L16.0316 7.46011C17.1425 6.34923 18.9503 6.34923 20.0612 7.46011L20.6367 8.03611C21.7476 9.14699 21.7476 10.9548 20.6367 12.0652L16.895 15.807C16.3573 16.3451 15.6412 16.6419 14.88 16.6419Z" fill="white"/>
</svg>
