<svg width="30" height="30" viewBox="0 0 30 30" fill="none" xmlns="http://www.w3.org/2000/svg">
<path d="M15.6387 16.9006L21.6785 21.1003V12.7402L19.0071 14.5803L15.6387 16.9006Z" fill="white"/>
<path d="M15.0003 0C6.71612 0 0 6.7149 0 14.9991C0 23.2833 6.71612 29.9994 15.0003 29.9994C23.2839 29.9994 30 23.2833 30 14.9991C30 6.7149 23.2839 0 15.0003 0ZM22.0463 21.7993L7.95257 21.7997H7.42236C6.60324 21.7997 5.93293 21.1295 5.93293 20.3103V10.1361C5.93293 9.31694 6.60318 8.64669 7.42236 8.64669L22.6217 8.64633C23.4409 8.64633 24.1111 9.31651 24.1111 10.1356V10.5673L24.1135 20.3116C24.078 21.3947 23.6087 21.7812 22.0463 21.7993Z" fill="white"/>
<path d="M14.9969 17.2633C14.924 17.2633 14.8513 17.2415 14.7886 17.198L14.6798 17.1222L8.47656 21.4356H21.5217L15.3167 17.1211C15.3167 17.1211 15.0691 17.2633 14.9969 17.2633Z" fill="white"/>
<path d="M21.5112 9.01172H8.52539L14.9971 13.81L21.5112 9.01172Z" fill="white"/>
<path d="M14.3539 16.8946L8.31982 12.7383L8.31641 21.1012L14.3599 16.8988L14.3539 16.8946Z" fill="white"/>
</svg>
