<svg width="30" height="30" viewBox="0 0 30 30" fill="none" xmlns="http://www.w3.org/2000/svg">
<path d="M12.9648 18.0559L18.0573 15.0006L12.9648 11.9453V18.0559Z" fill="white"/>
<path d="M15 0C6.71625 0 0 6.71531 0 15C0 23.2847 6.71625 30 15 30C23.2838 30 30 23.2838 30 15C30 6.71625 23.2838 0 15 0ZM23.145 15.6572C23.145 17.0634 22.9819 18.4697 22.9819 18.4697C22.9819 18.4697 22.8225 19.6678 22.335 20.1938C21.7153 20.8856 21.0216 20.8894 20.7028 20.9306C18.4228 21.105 15 21.1106 15 21.1106C15 21.1106 10.7644 21.0694 9.46125 20.9363C9.09844 20.8641 8.28562 20.8847 7.665 20.1938C7.17656 19.6669 7.01813 18.4697 7.01813 18.4697C7.01813 18.4697 6.855 17.0644 6.855 15.6572V14.3391C6.855 12.9328 7.01813 11.5275 7.01813 11.5275C7.01813 11.5275 7.1775 10.3294 7.665 9.80156C8.28469 9.10875 8.97844 9.105 9.29719 9.06563C11.5763 8.88937 14.9963 8.88938 14.9963 8.88938H15.0037C15.0037 8.88938 18.4237 8.88937 20.7028 9.06563C21.0206 9.105 21.7153 9.10875 22.335 9.80063C22.8234 10.3284 22.9819 11.5266 22.9819 11.5266C22.9819 11.5266 23.145 12.9328 23.145 14.3391V15.6572Z" fill="white"/>
</svg>
