<svg width="27" height="27" viewBox="0 0 27 27" fill="none" xmlns="http://www.w3.org/2000/svg">
<circle cx="13.2963" cy="13.6596" r="13.0698" fill="black"/>
<rect x="6.71875" y="7.97266" width="13.0845" height="11.3434" rx="2" fill="black"/>
<path d="M8.43441 19.2786C8.37686 19.253 8.33529 19.2242 8.40244 19.1667C8.44401 19.1347 8.48877 19.1059 8.53354 19.0771C8.9524 18.8053 9.34569 18.5078 9.60468 18.0696C9.82211 17.705 9.78693 17.4907 9.51515 17.222C7.99956 15.706 7.33449 13.8925 7.66703 11.7495C7.85568 10.5405 8.40883 9.49464 9.21459 8.58628C9.7006 8.03616 10.2793 7.59157 10.9124 7.22056C10.9508 7.19817 11.0052 7.19177 11.0116 7.1342C10.9988 7.10222 10.9764 7.11181 10.9572 7.11181C9.87966 7.11181 8.80212 7.08942 7.72778 7.11821C6.6982 7.15019 5.80931 7.9466 5.81251 9.08844C5.8189 12.4244 5.81251 15.7604 5.81251 19.0995C5.81251 20.1358 6.60228 21.0026 7.63505 21.0409C8.50796 21.0761 9.38086 21.0473 10.257 21.0441C10.3209 21.0473 10.3849 21.0505 10.4488 21.0505H15.0659C16.217 21.0505 17.3681 21.0569 18.5192 21.0505C19.5871 21.0505 20.4536 20.187 20.4536 19.1219V19.1027V17.2316C20.4536 17.1868 20.4696 17.1389 20.4408 17.0909C20.3833 17.0941 20.3609 17.1421 20.3289 17.1741C19.7086 17.7977 18.9764 18.2999 18.1738 18.6549C16.2074 19.5217 14.2058 19.5825 12.1754 18.8852C11.9996 18.8212 11.8077 18.8148 11.6255 18.8596C11.3569 18.9268 11.0915 19.0068 10.8261 19.0867C10.0459 19.3298 9.24976 19.4385 8.43441 19.2786ZM10.7526 13.8893C10.8069 13.8189 10.8357 13.7773 10.8677 13.7357C11.2865 13.2048 11.7054 12.6739 12.1243 12.1397C12.2458 11.9862 12.3673 11.8295 12.444 11.644C12.5335 11.4329 12.4376 11.2346 12.2202 11.1578C12.1243 11.129 12.0219 11.1162 11.9196 11.1226C11.3505 11.1194 10.7781 11.1194 10.209 11.1226C10.1291 11.1226 10.0491 11.1322 9.97239 11.1514C9.79333 11.1962 9.68462 11.3785 9.72938 11.5608C9.76135 11.6824 9.85728 11.7783 9.97878 11.8071C10.0555 11.8263 10.1355 11.8359 10.2154 11.8327C10.5607 11.8359 10.9092 11.8327 11.2546 11.8359C11.2929 11.8359 11.3409 11.8103 11.3697 11.8679C11.3409 11.9062 11.3121 11.9446 11.2833 11.9798C10.7877 12.6067 10.2953 13.2368 9.79972 13.8637C9.67822 14.0204 9.61427 14.1931 9.7038 14.385C9.79333 14.5769 9.97558 14.6121 10.161 14.6249C10.3081 14.6345 10.4584 14.6281 10.6087 14.6281C11.1267 14.6281 11.6415 14.6313 12.1594 14.6249C12.4344 14.6217 12.5815 14.4554 12.5527 14.1995C12.5303 13.998 12.3929 13.8925 12.1371 13.8893C11.6862 13.8861 11.2354 13.8893 10.7526 13.8893ZM14.4616 12.2069C14.0619 11.8583 13.6207 11.8359 13.189 12.0918C12.6646 12.3988 12.4728 12.901 12.5367 13.4831C12.5975 14.0268 12.8341 14.4714 13.4032 14.6537C13.7582 14.7688 14.0875 14.7273 14.3785 14.4906C14.4552 14.4298 14.4776 14.4426 14.5319 14.5098C14.6375 14.6441 14.8197 14.6953 14.9796 14.6345C15.1395 14.5865 15.245 14.4394 15.245 14.2731C15.2482 13.6334 15.2514 12.9937 15.245 12.354C15.2418 12.0982 15.002 11.935 14.7526 11.9862C14.6151 12.015 14.5383 12.1077 14.4616 12.2069ZM16.6774 13.3935C16.6646 14.1931 17.3265 14.7976 18.1578 14.7145C18.922 14.6377 19.4176 14.0652 19.3921 13.256C19.3665 12.4564 18.7718 11.9094 17.9564 11.935C17.1922 11.9574 16.6519 12.5715 16.6774 13.3935ZM16.3961 12.757C16.3961 12.2549 16.3993 11.7559 16.3961 11.2538C16.3961 10.9979 16.233 10.838 15.99 10.8412C15.7534 10.8444 15.5967 11.0043 15.5935 11.2506C15.5903 11.4009 15.5935 11.548 15.5935 11.6984V14.2411C15.5935 14.4394 15.715 14.6121 15.8749 14.6537C16.0955 14.7145 16.3225 14.5833 16.3801 14.3626C16.3897 14.3243 16.3961 14.2859 16.3929 14.2443C16.3993 13.7485 16.3961 13.2528 16.3961 12.757Z" fill="#B9BCBC"/>
<path d="M10.253 21.0488C9.38014 21.0488 8.50404 21.0775 7.63114 21.0456C6.59836 21.004 5.80859 20.1372 5.80859 19.1041C5.80859 15.7682 5.81499 12.4322 5.80859 9.09305C5.80859 7.95121 6.70068 7.15481 7.72706 7.12602C8.8014 7.09723 9.87894 7.11962 10.9565 7.11962C10.9757 7.11962 11.0012 7.11003 11.0108 7.14201C11.0044 7.19958 10.9469 7.20598 10.9117 7.22837C10.2786 7.59939 9.69989 8.04397 9.21387 8.5941C8.41132 9.50245 7.85496 10.5451 7.66631 11.7573C7.33378 13.8971 8.00204 15.7138 9.51443 17.2298C9.78302 17.5017 9.81819 17.7128 9.60396 18.0774C9.34497 18.5156 8.95168 18.8131 8.53282 19.0849C8.48805 19.1105 8.44329 19.1425 8.39853 19.1713C8.33138 19.2289 8.37295 19.2576 8.4305 19.2832C8.44329 19.312 8.45928 19.3376 8.47846 19.3632C8.84617 19.6894 9.19469 20.0381 9.556 20.3707C9.72547 20.5274 9.89493 20.6905 10.058 20.8537C10.1251 20.9144 10.2371 20.9336 10.253 21.0488Z" fill="white"/>
<path d="M10.2522 21.0458C10.2362 20.9338 10.1243 20.9146 10.0572 20.8475C9.89412 20.6811 9.72465 20.5212 9.55519 20.3645C9.19388 20.0319 8.84536 19.6832 8.47765 19.357C8.45846 19.3314 8.44248 19.3058 8.42969 19.277C9.24504 19.4369 10.0412 19.3282 10.8246 19.0883C11.09 19.0084 11.3554 18.9284 11.6239 18.8612C11.8062 18.8133 11.998 18.8229 12.1739 18.8868C14.2011 19.5841 16.2027 19.5201 18.1723 18.6565C18.9749 18.3015 19.7071 17.8026 20.3274 17.1789C20.3594 17.1469 20.3817 17.0989 20.4393 17.0957C20.4681 17.1405 20.4521 17.1885 20.4521 17.2364V19.1075C20.4585 20.1758 19.6016 21.0458 18.5336 21.0554H18.5176C17.3665 21.0617 16.2155 21.0554 15.0644 21.0554H10.4441C10.3801 21.049 10.3162 21.0458 10.2522 21.0458Z" fill="white"/>
<path d="M10.7516 13.8908C11.2344 13.8908 11.6884 13.8876 12.1393 13.8908C12.3919 13.894 12.5294 13.9996 12.5549 14.2011C12.5837 14.4538 12.4366 14.6233 12.1617 14.6265C11.6437 14.6329 11.1289 14.6297 10.6109 14.6297C10.4606 14.6297 10.3135 14.6361 10.1632 14.6265C9.9778 14.6169 9.79554 14.5785 9.70601 14.3866C9.61648 14.1947 9.68043 14.022 9.80194 13.8652C10.2943 13.2384 10.7899 12.6083 11.2856 11.9814C11.3143 11.943 11.3431 11.9046 11.3719 11.8694C11.3399 11.8151 11.2951 11.8406 11.2568 11.8374C10.9114 11.8343 10.5629 11.8374 10.2176 11.8343C10.1377 11.8343 10.0577 11.8247 9.98099 11.8087C9.79874 11.7671 9.68683 11.5848 9.72839 11.4057C9.75717 11.2841 9.8531 11.185 9.9746 11.1562C10.0513 11.137 10.1313 11.1274 10.2112 11.1274C10.7804 11.1242 11.3527 11.1242 11.9218 11.1274C12.0242 11.1242 12.1233 11.137 12.2224 11.1626C12.4398 11.2361 12.5326 11.4376 12.4462 11.6487C12.3695 11.8311 12.248 11.9878 12.1265 12.1445C11.7076 12.6786 11.2887 13.2096 10.8699 13.7373C10.8347 13.7789 10.8027 13.8205 10.7516 13.8908Z" fill="white"/>
<path d="M14.4604 12.2083C14.5371 12.1091 14.617 12.0164 14.7481 11.9908C15.0007 11.9396 15.2373 12.1027 15.2405 12.3586C15.2501 12.9983 15.2469 13.638 15.2405 14.2777C15.2405 14.444 15.1318 14.5911 14.9751 14.6391C14.8153 14.6999 14.633 14.6519 14.5275 14.5143C14.4731 14.4472 14.4508 14.4344 14.374 14.4952C14.0831 14.7318 13.7537 14.7734 13.3988 14.6583C12.8297 14.4728 12.5962 14.0282 12.5323 13.4876C12.4651 12.9023 12.6602 12.4034 13.1846 12.0963C13.6194 11.8373 14.0607 11.8597 14.4604 12.2083ZM13.3285 13.3757C13.3348 13.5164 13.3796 13.6508 13.4627 13.7627C13.6354 13.993 13.9647 14.041 14.1982 13.8683C14.2365 13.8395 14.2717 13.8043 14.3037 13.7627C14.4827 13.5196 14.4827 13.1198 14.3037 12.8768C14.2141 12.752 14.0735 12.6784 13.9232 12.6752C13.5715 12.6529 13.3253 12.9247 13.3285 13.3757ZM16.6762 13.3949C16.6506 12.5729 17.191 11.9588 17.9584 11.9364C18.7737 11.9108 19.3684 12.4578 19.394 13.2574C19.4196 14.0666 18.924 14.6391 18.1598 14.7158C17.3253 14.799 16.6634 14.1945 16.6762 13.3949ZM17.4787 13.3181C17.4723 13.4781 17.5203 13.6348 17.6162 13.7659C17.7921 13.9962 18.1214 14.041 18.3516 13.8619C18.3868 13.8363 18.4156 13.8043 18.4444 13.7723C18.6298 13.5292 18.6298 13.1198 18.4476 12.8768C18.358 12.7552 18.2173 12.6784 18.0671 12.6752C17.7217 12.6561 17.4787 12.9183 17.4787 13.3181ZM16.3948 12.7584C16.3948 13.2542 16.398 13.7499 16.3948 14.2457C16.398 14.4728 16.2189 14.6615 15.9919 14.6679C15.9536 14.6679 15.912 14.6647 15.8736 14.6551C15.7137 14.6135 15.5922 14.444 15.5922 14.2425V11.6997C15.5922 11.5494 15.589 11.4023 15.5922 11.252C15.5954 11.0057 15.7521 10.8458 15.9887 10.8458C16.2317 10.8426 16.3948 11.0025 16.3948 11.2583C16.398 11.7573 16.3948 12.2595 16.3948 12.7584Z" fill="white"/>
<path d="M13.3282 13.3745C13.325 12.9236 13.5712 12.6517 13.9197 12.6709C14.07 12.6773 14.2107 12.7508 14.3002 12.8756C14.4792 13.1155 14.4792 13.5185 14.3002 13.7615C14.1275 13.9918 13.7982 14.0398 13.5648 13.8671C13.5264 13.8383 13.4912 13.8031 13.4593 13.7615C13.3793 13.6496 13.3346 13.5153 13.3282 13.3745ZM17.4784 13.317C17.4784 12.9204 17.7214 12.6549 18.0668 12.6741C18.2171 12.6773 18.3577 12.754 18.4473 12.8756C18.6295 13.1187 18.6295 13.5313 18.4441 13.7711C18.265 13.9982 17.9325 14.0366 17.7055 13.8575C17.6703 13.8319 17.6415 13.7999 17.6159 13.7647C17.52 13.6336 17.4752 13.4769 17.4784 13.317Z" fill="black"/>
<path d="M7.90256 7.12695H18.3934C19.5413 7.12695 20.4717 8.05769 20.4717 9.20593V18.8972C20.4717 20.0454 19.5413 20.9761 18.3934 20.9761H7.90256C6.75468 20.9761 5.82422 20.0454 5.82422 18.8972V9.20593C5.82422 8.05769 6.75468 7.12695 7.90256 7.12695Z" stroke="white" stroke-width="0.5" stroke-miterlimit="10"/>
</svg>
